<svg xmlns="http://www.w3.org/2000/svg" xmlns:xlink="http://www.w3.org/1999/xlink" viewBox="0 0 594.84 252.42"><defs><style>.cls-1,.cls-10,.cls-11,.cls-12,.cls-15,.cls-16,.cls-17,.cls-19,.cls-2,.cls-5,.cls-6,.cls-7,.cls-8,.cls-9{fill:none;}.cls-2{stroke:#de7a7a;stroke-width:0.72px;}.cls-3,.cls-4{fill:url(#_10_lpi_10_2);}.cls-10,.cls-11,.cls-12,.cls-15,.cls-16,.cls-17,.cls-19,.cls-4,.cls-5,.cls-6,.cls-7,.cls-8,.cls-9{stroke:#369;}.cls-14,.cls-6,.cls-7,.cls-8{stroke-linejoin:round;}.cls-7{stroke-dasharray:2 2;}.cls-8{stroke-dasharray:2.08 2.08;}.cls-11,.cls-14,.cls-15,.cls-16,.cls-17,.cls-19,.cls-9{stroke-width:0.5px;}.cls-10{stroke-linecap:square;}.cls-11,.cls-12,.cls-19{stroke-miterlimit:10;}.cls-13{fill:#3e3a39;}.cls-14,.cls-18{fill:#fff;}.cls-14{stroke:#3e3a39;stroke-linecap:round;}.cls-15{stroke-dasharray:1.9 1.9;}.cls-16{stroke-dasharray:1.9 1.9;}.cls-17{stroke-dasharray:1.9 1.9;}.cls-19{stroke-dasharray:11.63 11.63;}</style><pattern id="_10_lpi_10_2" data-name="10 lpi 10 % 2" width="72" height="72" patternUnits="userSpaceOnUse" viewBox="0 0 72 72"><rect class="cls-1" width="72" height="72"/><line class="cls-2" x1="67.25" y1="157.74" x2="157.74" y2="67.25"/><line class="cls-2" x1="49.27" y1="139.77" x2="139.77" y2="49.27"/><line class="cls-2" x1="31.3" y1="121.79" x2="121.79" y2="31.3"/><line class="cls-2" x1="58.26" y1="148.75" x2="148.75" y2="58.26"/><line class="cls-2" x1="40.28" y1="130.78" x2="130.78" y2="40.28"/><line class="cls-2" x1="22.31" y1="112.81" x2="112.81" y2="22.31"/><line class="cls-2" x1="62.75" y1="153.25" x2="153.25" y2="62.75"/><line class="cls-2" x1="44.78" y1="135.27" x2="135.27" y2="44.78"/><line class="cls-2" x1="26.8" y1="117.3" x2="117.3" y2="26.8"/><line class="cls-2" x1="71.74" y1="162.24" x2="162.24" y2="71.74"/><line class="cls-2" x1="53.77" y1="144.26" x2="144.26" y2="53.77"/><line class="cls-2" x1="35.79" y1="126.29" x2="126.29" y2="35.79"/><line class="cls-2" x1="17.82" y1="108.31" x2="108.31" y2="17.82"/><line class="cls-2" x1="-4.75" y1="157.74" x2="85.74" y2="67.25"/><line class="cls-2" x1="-22.73" y1="139.77" x2="67.77" y2="49.27"/><line class="cls-2" x1="-40.7" y1="121.79" x2="49.79" y2="31.3"/><line class="cls-2" x1="-13.74" y1="148.75" x2="76.75" y2="58.26"/><line class="cls-2" x1="-31.72" y1="130.78" x2="58.78" y2="40.28"/><line class="cls-2" x1="-49.69" y1="112.81" x2="40.81" y2="22.31"/><line class="cls-2" x1="-9.25" y1="153.25" x2="81.25" y2="62.75"/><line class="cls-2" x1="-27.22" y1="135.27" x2="63.27" y2="44.78"/><line class="cls-2" x1="-45.2" y1="117.3" x2="45.3" y2="26.8"/><line class="cls-2" x1="-0.26" y1="162.24" x2="90.24" y2="71.74"/><line class="cls-2" x1="-18.23" y1="144.26" x2="72.26" y2="53.77"/><line class="cls-2" x1="-36.21" y1="126.29" x2="54.29" y2="35.79"/><line class="cls-2" x1="-54.18" y1="108.31" x2="36.31" y2="17.82"/><line class="cls-2" x1="-76.75" y1="157.74" x2="13.74" y2="67.25"/><line class="cls-2" x1="-85.74" y1="148.75" x2="4.75" y2="58.26"/><line class="cls-2" x1="-81.25" y1="153.25" x2="9.25" y2="62.75"/><line class="cls-2" x1="-72.26" y1="162.24" x2="18.24" y2="71.74"/><line class="cls-2" x1="-90.23" y1="144.26" x2="0.26" y2="53.77"/><line class="cls-2" x1="67.25" y1="85.74" x2="157.74" y2="-4.75"/><line class="cls-2" x1="49.27" y1="67.77" x2="139.77" y2="-22.73"/><line class="cls-2" x1="31.3" y1="49.79" x2="121.79" y2="-40.7"/><line class="cls-2" x1="58.26" y1="76.75" x2="148.75" y2="-13.74"/><line class="cls-2" x1="40.28" y1="58.78" x2="130.78" y2="-31.72"/><line class="cls-2" x1="22.31" y1="40.81" x2="112.81" y2="-49.69"/><line class="cls-2" x1="62.75" y1="81.25" x2="153.25" y2="-9.25"/><line class="cls-2" x1="44.78" y1="63.27" x2="135.27" y2="-27.22"/><line class="cls-2" x1="26.8" y1="45.3" x2="117.3" y2="-45.2"/><line class="cls-2" x1="71.74" y1="90.24" x2="162.24" y2="-0.26"/><line class="cls-2" x1="53.77" y1="72.26" x2="144.26" y2="-18.23"/><line class="cls-2" x1="35.79" y1="54.29" x2="126.29" y2="-36.21"/><line class="cls-2" x1="17.82" y1="36.31" x2="108.31" y2="-54.18"/><line class="cls-2" x1="31.19" y1="121.69" x2="121.69" y2="31.19"/><line class="cls-2" x1="13.22" y1="103.72" x2="103.72" y2="13.22"/><line class="cls-2" x1="-4.75" y1="85.74" x2="85.74" y2="-4.75"/><line class="cls-2" x1="-22.73" y1="67.77" x2="67.77" y2="-22.73"/><line class="cls-2" x1="-40.7" y1="49.79" x2="49.79" y2="-40.7"/><line class="cls-2" x1="22.21" y1="112.7" x2="112.7" y2="22.21"/><line class="cls-2" x1="4.23" y1="94.73" x2="94.73" y2="4.23"/><line class="cls-2" x1="-13.74" y1="76.75" x2="76.75" y2="-13.74"/><line class="cls-2" x1="-31.72" y1="58.78" x2="58.78" y2="-31.72"/><line class="cls-2" x1="-49.69" y1="40.81" x2="40.81" y2="-49.69"/><line class="cls-2" x1="26.7" y1="117.2" x2="117.2" y2="26.7"/><line class="cls-2" x1="8.73" y1="99.22" x2="99.22" y2="8.73"/><line class="cls-2" x1="-9.25" y1="81.25" x2="81.25" y2="-9.25"/><line class="cls-2" x1="-27.22" y1="63.27" x2="63.27" y2="-27.22"/><line class="cls-2" x1="-45.2" y1="45.3" x2="45.3" y2="-45.2"/><line class="cls-2" x1="17.71" y1="108.21" x2="108.21" y2="17.71"/><line class="cls-2" x1="-0.26" y1="90.24" x2="90.24" y2="-0.26"/><line class="cls-2" x1="-18.23" y1="72.26" x2="72.26" y2="-18.23"/><line class="cls-2" x1="-36.21" y1="54.29" x2="54.29" y2="-36.21"/><line class="cls-2" x1="-54.18" y1="36.31" x2="36.31" y2="-54.18"/><line class="cls-2" x1="-40.81" y1="121.69" x2="49.69" y2="31.19"/><line class="cls-2" x1="-58.78" y1="103.72" x2="31.72" y2="13.22"/><line class="cls-2" x1="-76.75" y1="85.74" x2="13.74" y2="-4.75"/><line class="cls-2" x1="-49.79" y1="112.7" x2="40.7" y2="22.21"/><line class="cls-2" x1="-67.77" y1="94.73" x2="22.73" y2="4.23"/><line class="cls-2" x1="-85.74" y1="76.75" x2="4.75" y2="-13.74"/><line class="cls-2" x1="-45.3" y1="117.2" x2="45.2" y2="26.7"/><line class="cls-2" x1="-63.27" y1="99.22" x2="27.22" y2="8.73"/><line class="cls-2" x1="-81.25" y1="81.25" x2="9.25" y2="-9.25"/><line class="cls-2" x1="-54.29" y1="108.21" x2="36.21" y2="17.71"/><line class="cls-2" x1="-72.26" y1="90.24" x2="18.24" y2="-0.26"/><line class="cls-2" x1="-90.23" y1="72.26" x2="0.26" y2="-18.23"/><line class="cls-2" x1="67.25" y1="13.74" x2="157.74" y2="-76.75"/><line class="cls-2" x1="58.26" y1="4.75" x2="148.75" y2="-85.74"/><line class="cls-2" x1="62.75" y1="9.25" x2="153.25" y2="-81.25"/><line class="cls-2" x1="71.74" y1="18.24" x2="162.24" y2="-72.26"/><line class="cls-2" x1="53.77" y1="0.26" x2="144.26" y2="-90.23"/><line class="cls-2" x1="31.19" y1="49.69" x2="121.69" y2="-40.81"/><line class="cls-2" x1="13.22" y1="31.72" x2="103.72" y2="-58.78"/><line class="cls-2" x1="-4.75" y1="13.74" x2="85.74" y2="-76.75"/><line class="cls-2" x1="22.21" y1="40.7" x2="112.7" y2="-49.79"/><line class="cls-2" x1="4.23" y1="22.73" x2="94.73" y2="-67.77"/><line class="cls-2" x1="-13.74" y1="4.75" x2="76.75" y2="-85.74"/><line class="cls-2" x1="26.7" y1="45.2" x2="117.2" y2="-45.3"/><line class="cls-2" x1="8.73" y1="27.22" x2="99.22" y2="-63.27"/><line class="cls-2" x1="-9.25" y1="9.25" x2="81.25" y2="-81.25"/><line class="cls-2" x1="17.71" y1="36.21" x2="108.21" y2="-54.29"/><line class="cls-2" x1="-0.26" y1="18.24" x2="90.24" y2="-72.26"/><line class="cls-2" x1="-18.23" y1="0.26" x2="72.26" y2="-90.23"/><line class="cls-2" x1="-40.81" y1="49.69" x2="49.69" y2="-40.81"/><line class="cls-2" x1="-58.78" y1="31.72" x2="31.72" y2="-58.78"/><line class="cls-2" x1="-76.75" y1="13.74" x2="13.74" y2="-76.75"/><line class="cls-2" x1="-49.79" y1="40.7" x2="40.7" y2="-49.79"/><line class="cls-2" x1="-67.77" y1="22.73" x2="22.73" y2="-67.77"/><line class="cls-2" x1="-85.74" y1="4.75" x2="4.75" y2="-85.74"/><line class="cls-2" x1="-45.3" y1="45.2" x2="45.2" y2="-45.3"/><line class="cls-2" x1="-63.27" y1="27.22" x2="27.22" y2="-63.27"/><line class="cls-2" x1="-81.25" y1="9.25" x2="9.25" y2="-81.25"/><line class="cls-2" x1="-54.29" y1="36.21" x2="36.21" y2="-54.29"/><line class="cls-2" x1="-72.26" y1="18.24" x2="18.24" y2="-72.26"/><line class="cls-2" x1="-90.23" y1="0.26" x2="0.26" y2="-90.23"/></pattern></defs><g id="レイヤー_2" data-name="レイヤー 2"><g id="_1F" data-name="1F"><rect class="cls-3" x="332.6" y="113.5" width="39.14" height="37.39"/><rect class="cls-3" x="321.83" y="19.61" width="27.02" height="29"/><rect class="cls-3" x="78.4" y="113.5" width="18.6" height="37.39"/><rect class="cls-4" x="168.06" y="113.5" width="54.07" height="37.39"/><rect class="cls-3" x="18.71" y="94.7" width="47.59" height="18.8"/><rect class="cls-3" x="18.57" y="113.5" width="59.82" height="37.39"/><rect class="cls-3" x="293.45" y="67.53" width="57.54" height="37.5"/><rect class="cls-3" x="321.83" y="48.62" width="21.76" height="8.72"/><rect class="cls-5" x="18.71" y="113.5" width="59.69" height="37.39"/><polyline class="cls-5" points="18.75 150.89 18.75 160.89 0 160.89"/><rect class="cls-5" x="78.4" y="113.5" width="18.6" height="37.39"/><rect class="cls-5" x="116.94" y="113.5" width="105.19" height="37.39"/><rect class="cls-5" x="222.13" y="113.5" width="51.38" height="37.39"/><rect class="cls-5" x="293.45" y="113.5" width="39.14" height="37.39"/><polyline class="cls-6" points="273.51 103.93 273.51 104.93 272.51 104.93"/><line class="cls-7" x1="270.51" y1="104.93" x2="119.6" y2="104.93"/><polyline class="cls-6" points="118.6 104.93 117.6 104.93 117.6 103.93"/><line class="cls-8" x1="117.6" y1="101.85" x2="117.6" y2="69.58"/><polyline class="cls-6" points="117.6 68.53 117.6 67.53 118.6 67.53"/><line class="cls-7" x1="120.6" y1="67.54" x2="271.51" y2="67.54"/><polyline class="cls-6" points="272.51 67.53 273.51 67.53 273.51 68.53"/><line class="cls-8" x1="273.51" y1="70.62" x2="273.51" y2="102.89"/><rect class="cls-5" x="332.6" y="113.5" width="39.14" height="37.39"/><line class="cls-9" x1="116.94" y1="141.73" x2="96.99" y2="141.73"/><line class="cls-9" x1="116.94" y1="40.61" x2="96.99" y2="40.61"/><polyline class="cls-5" points="116.86 40.61 106.88 40.61 106.88 26.61"/><line class="cls-9" x1="96.99" y1="38.28" x2="116.94" y2="38.28"/><line class="cls-9" x1="96.99" y1="35.95" x2="116.94" y2="35.95"/><line class="cls-9" x1="96.99" y1="33.61" x2="116.94" y2="33.61"/><line class="cls-9" x1="96.99" y1="31.28" x2="116.94" y2="31.28"/><line class="cls-9" x1="96.99" y1="28.94" x2="116.94" y2="28.94"/><line class="cls-9" x1="96.99" y1="26.61" x2="116.94" y2="26.61"/><line class="cls-9" x1="293.45" y1="141.73" x2="273.51" y2="141.73"/><line class="cls-9" x1="283.49" y1="40.61" x2="273.51" y2="40.61"/><line class="cls-9" x1="273.51" y1="38.28" x2="283.49" y2="38.28"/><line class="cls-9" x1="273.51" y1="35.95" x2="283.49" y2="35.95"/><line class="cls-9" x1="273.51" y1="33.61" x2="283.49" y2="33.61"/><line class="cls-9" x1="273.51" y1="31.28" x2="283.49" y2="31.28"/><line class="cls-9" x1="273.51" y1="47.59" x2="283.49" y2="47.59"/><line class="cls-9" x1="273.51" y1="45.25" x2="283.49" y2="45.25"/><line class="cls-9" x1="273.51" y1="42.92" x2="283.49" y2="42.92"/><line class="cls-9" x1="283.48" y1="127.69" x2="293.45" y2="127.69"/><line class="cls-5" x1="283.48" y1="120.73" x2="283.48" y2="139.39"/><line class="cls-9" x1="293.45" y1="130.03" x2="283.48" y2="130.03"/><line class="cls-9" x1="293.45" y1="132.36" x2="283.48" y2="132.36"/><line class="cls-9" x1="293.45" y1="134.69" x2="283.48" y2="134.69"/><line class="cls-9" x1="293.45" y1="137.03" x2="283.48" y2="137.03"/><line class="cls-9" x1="293.45" y1="120.73" x2="283.48" y2="120.73"/><line class="cls-9" x1="293.45" y1="123.06" x2="283.48" y2="123.06"/><line class="cls-9" x1="293.45" y1="125.4" x2="283.48" y2="125.4"/><polyline class="cls-5" points="368.76 28.92 358.8 28.92 358.8 48.62"/><line class="cls-9" x1="348.86" y1="38.28" x2="358.79" y2="38.28"/><line class="cls-9" x1="348.86" y1="35.95" x2="358.79" y2="35.95"/><line class="cls-9" x1="348.86" y1="33.61" x2="358.79" y2="33.61"/><line class="cls-9" x1="348.86" y1="31.28" x2="358.79" y2="31.28"/><line class="cls-9" x1="348.86" y1="47.62" x2="358.79" y2="47.62"/><line class="cls-9" x1="348.86" y1="45.28" x2="358.79" y2="45.28"/><line class="cls-9" x1="348.86" y1="42.95" x2="358.79" y2="42.95"/><line class="cls-9" x1="348.86" y1="40.61" x2="358.79" y2="40.61"/><polygon class="cls-5" points="293.45 105.03 293.45 67.53 293.45 67.53 351.42 67.53 351.42 105.03 351.42 105.03 293.45 105.03"/><line class="cls-10" x1="0.52" y1="169.34" x2="18.75" y2="169.34"/><line class="cls-9" x1="4.07" y1="160.89" x2="4.07" y2="169.34"/><line class="cls-9" x1="8.96" y1="160.89" x2="8.96" y2="169.34"/><line class="cls-5" x1="131.17" y1="18.99" x2="131.17" y2="47.52"/><line class="cls-5" x1="121.4" y1="47.31" x2="140.94" y2="47.31"/><polyline class="cls-5" points="267.05 57.33 273.51 57.33 273.51 19.61 116.97 18.86"/><line class="cls-5" x1="169.18" y1="57.33" x2="261.38" y2="57.33"/><polyline class="cls-5" points="161.55 57.33 145.38 57.33 145.38 18.99"/><line class="cls-5" x1="293.42" y1="19.68" x2="293.42" y2="57.2"/><line class="cls-5" x1="307.63" y1="19.68" x2="307.63" y2="56.19"/><line class="cls-5" x1="348.86" y1="19.68" x2="348.86" y2="48.61"/><line class="cls-5" x1="316.07" y1="56.19" x2="299.19" y2="56.19"/><line class="cls-5" x1="368.76" y1="19.68" x2="368.76" y2="48.61"/><polyline class="cls-5" points="321.83 48.62 343.59 48.62 343.59 57.33"/><polyline class="cls-5" points="321.83 19.61 448.49 19.61 448.49 72.22 351.42 72.22"/><polyline class="cls-5" points="336.78 57.33 321.83 57.33 321.83 56.34 321.83 19.61 273.51 19.61"/><path class="cls-11" d="M584.48,130.17H554.4s-6.17.43-9.71-3.11c0,0-6-5.9-9.55-9.44s-9.72-3.13-9.72-3.13H473.08"/><path class="cls-11" d="M584.48,125.3H554.4s-6.17.42-9.71-3.12c0,0-6-5.9-9.55-9.44s-9.72-3.13-9.72-3.13H473.08"/><path class="cls-11" d="M584.48,120.42H554.4s-6.17.42-9.71-3.12c0,0-6-5.9-9.55-9.44s-9.72-3.13-9.72-3.13H473.08"/><path class="cls-11" d="M584.48,115.54H554.4s-6.17.42-9.71-3.12c0,0-6-5.9-9.55-9.43s-9.72-3.13-9.72-3.13H473.08"/><path class="cls-11" d="M584.48,110.66H554.4s-6.17.42-9.71-3.12c0,0-6-5.9-9.55-9.43S525.42,95,525.42,95H473.08"/><line class="cls-9" x1="148.66" y1="67.53" x2="148.66" y2="72.22"/><line class="cls-9" x1="146.19" y1="67.53" x2="146.19" y2="72.22"/><line class="cls-9" x1="143.72" y1="67.53" x2="143.72" y2="72.22"/><line class="cls-9" x1="141.25" y1="67.53" x2="141.25" y2="72.22"/><line class="cls-9" x1="138.78" y1="67.53" x2="138.78" y2="72.22"/><polygon class="cls-5" points="151.13 67.53 136.24 67.53 136.24 72.22 136.31 72.22 150.37 72.22 151.13 72.22 151.13 67.53"/><polygon class="cls-5" points="18.71 94.7 18.71 67.54 56.69 67.54 56.69 0.5 96.89 0.5 96.89 57.2 86.85 57.2 86.85 67.64 86.85 67.64 98.89 67.64 98.89 100.34 98.89 100.34 98.89 105.03 66.07 105.03 66.07 100.34 66.07 100.34 66.07 94.7 18.71 94.7"/><polyline class="cls-5" points="96.89 3.29 116.97 3.29 116.97 57.2"/><polyline class="cls-5" points="293.42 28.34 283.49 28.34 283.49 48.43"/><line class="cls-5" x1="351.42" y1="105.03" x2="371.74" y2="105.03"/><polygon class="cls-6" points="478.38 135.45 468.07 147.13 457.75 135.45 478.38 135.45"/><line class="cls-9" x1="106.96" y1="127.69" x2="116.94" y2="127.69"/><line class="cls-5" x1="106.96" y1="120.73" x2="106.96" y2="139.39"/><line class="cls-9" x1="116.94" y1="130.03" x2="106.96" y2="130.03"/><line class="cls-9" x1="116.94" y1="132.36" x2="106.96" y2="132.36"/><line class="cls-9" x1="116.94" y1="134.69" x2="106.96" y2="134.69"/><line class="cls-9" x1="116.94" y1="137.03" x2="106.96" y2="137.03"/><line class="cls-9" x1="116.94" y1="120.73" x2="106.96" y2="120.73"/><line class="cls-9" x1="116.94" y1="123.06" x2="106.96" y2="123.06"/><line class="cls-9" x1="116.94" y1="125.4" x2="106.96" y2="125.4"/><rect class="cls-12" x="18.75" y="173.44" width="78.25" height="4.84"/><line class="cls-9" x1="13.85" y1="169.34" x2="13.85" y2="160.89"/><polyline class="cls-5" points="18.75 175.86 13.85 175.86 13.85 169.34"/><rect class="cls-12" x="117.95" y="173.44" width="155.56" height="4.84"/><line class="cls-12" x1="117.95" y1="175.86" x2="96.99" y2="175.86"/><rect class="cls-12" x="293.45" y="173.44" width="78.29" height="4.84"/><line class="cls-12" x1="293.45" y1="175.86" x2="273.51" y2="175.86"/><polyline class="cls-5" points="473.08 90.51 473.08 114.49 462.11 114.49 462.11 94.98"/><line class="cls-5" x1="467.64" y1="90.51" x2="467.64" y2="109.61"/><line class="cls-9" x1="486.93" y1="162.47" x2="449.2" y2="162.47"/><line class="cls-9" x1="486.93" y1="157.59" x2="449.2" y2="157.59"/><line class="cls-9" x1="486.93" y1="167.34" x2="449.2" y2="167.34"/><line class="cls-9" x1="486.93" y1="172.22" x2="449.2" y2="172.22"/><line class="cls-9" x1="492.45" y1="177.1" x2="443.96" y2="177.1"/><line class="cls-9" x1="497.69" y1="181.98" x2="438.73" y2="181.98"/><line class="cls-9" x1="502.85" y1="186.78" x2="433.91" y2="186.78"/><path class="cls-13" d="M123.74,130.53c-.16.07-.18.07-.21.13-.18.34-.24.49-.66,1.22.08.05.14.09.14.16a.22.22,0,0,1-.05.14c-.1.12-.12.15-.12.22v5.14h-1.06v-4.13c-.21.29-.33.44-.56.71l-.88-.63a11.47,11.47,0,0,0,2.35-3.77l1,.51c.06,0,.17.1.17.18A.12.12,0,0,1,123.74,130.53Zm4.71,1.19-.26,0c-.05,0-.67.69-.81.82a17.77,17.77,0,0,1-2.07,1.67v1.71c0,.38.07.49.39.49H127c.34,0,.46-.21.55-1l.91.64c-.25,1.2-.57,1.33-1.3,1.33h-2c-.61,0-.88-.25-.88-.86v-6.81l1,.08c.13,0,.29,0,.29.14s-.07.11-.09.13a.23.23,0,0,0-.14.17V133a10.27,10.27,0,0,0,2.13-2.17l.89.55s.2.12.2.21A.14.14,0,0,1,128.45,131.72Z"/><path class="cls-13" d="M136.19,133.61v-1.09h-5.38v1.14h-1v-2h4.5a7.07,7.07,0,0,0,1.11-1.71l.9.3s.15.08.15.15,0,.05,0,.06-.23.07-.27.11a8.71,8.71,0,0,1-.7,1.09h1.7v1.93Zm-2.12,1.93v1.37c0,.64-.53.79-1.08.79h-.57l-.4-1,.72.06c.16,0,.22-.14.22-.28v-1h-3.13v-.89H133v-.56l.44.07a1.48,1.48,0,0,0,.34-.38h-2.42v-.84h4.11l.26.4c-.41.37-1.13,1-1.62,1.31h3.08v.89Zm-2.85-3.95a5.71,5.71,0,0,0-.78-1.2l.83-.51a5.25,5.25,0,0,1,.81,1.17Zm2.06-.18a6.35,6.35,0,0,0-.84-1.3l.82-.5a6.18,6.18,0,0,1,.89,1.34Z"/><path class="cls-13" d="M145.39,132.46v-1.11h-2.31V132h1.84v.74h-1.84v.46h2.43V134H143c0,.18,0,.26-.08.47h3.34v.78h-2.92a2.09,2.09,0,0,0,.85.75,6.61,6.61,0,0,0,2,.65l-.47.88a4.88,4.88,0,0,1-1.92-.68,4.42,4.42,0,0,1-1.34-1.22,3.31,3.31,0,0,1-1.25,1.23,6,6,0,0,1-1.93.63l-.58-.81a3.47,3.47,0,0,0,2.82-1.43h-2.72v-.78h3A2.17,2.17,0,0,0,142,134h-2.37v-.78H142v-.46H140.2V132H142c0-.35,0-.36,0-.69H139.8v1.15h-.94v-2H142v-.72l1.09.09c.15,0,.21,0,.21.1s0,.06-.08.1-.1.07-.1.12v.31h3.18v1.92Z"/><path class="cls-13" d="M148.46,135c0,.07-.05.09-.11.12v.69a6,6,0,0,1,0,1l-.67,0a8,8,0,0,0,.12-1.9l.49,0C148.37,134.88,148.46,134.9,148.46,135Zm6.74-2.71a1.42,1.42,0,0,1-.38-.14v.46h-.89c0,.1,0,.24,0,.37h1.57v2.27H154a3.8,3.8,0,0,0,1.72,1.5l-.77.82a5.12,5.12,0,0,1-1.65-1.88,4.86,4.86,0,0,1-1.83,2l-.79-.78a3.24,3.24,0,0,0,1.87-1.62H151.3V133h1.54c0-.08,0-.29,0-.37h-1v-.44c-.14.09-.24.16-.41.25l-.5-.53v.1h-.82v.48h.8v.76h-.8v.53h1a10.89,10.89,0,0,1-.17,2.2c-.31,1.44-.81,1.5-1.77,1.52l-.33-1a3.11,3.11,0,0,0,.54.07c.52,0,.65-.48.73-.91l-.34,0a4,4,0,0,0-.16-.9l.36-.1a2.47,2.47,0,0,1,.18.62,4.9,4.9,0,0,0,.05-.77H148.8v.19h-.88v-4.85h3.43v.91h-1.21v.46H151v.3a4.15,4.15,0,0,0,1.82-1.77l.83.17c.11,0,.18,0,.18.11a.1.1,0,0,1,0,.08,4.24,4.24,0,0,0,2.08,1.32Zm-6.17,4-.48.14a8.86,8.86,0,0,0-.1-1.55l.46,0a5,5,0,0,1,.14,1.16A2.13,2.13,0,0,1,149,136.25Zm.29-5.51h-.52v.46h.52Zm0,1.22h-.52v.48h.52Zm0,1.24h-.52v.53h.52Zm-.09,2.74v-.1a4.24,4.24,0,0,0-.16-1l.4-.06a2.63,2.63,0,0,1,.15,1.07Zm3-2.21v.71h.59c0-.17,0-.37,0-.71Zm1.06-2.91a5.77,5.77,0,0,1-.91,1h1.91A3.41,3.41,0,0,1,153.26,130.82Zm1.3,2.91h-.66c0,.34,0,.6-.05.71h.71Z"/><path class="cls-13" d="M156.86,137.39v-.89h3.34v-.72h-2.47v-.9h2.47v-.56c-.88.07-1.27.08-2,.11-.21,0-.23,0-.31.07s-.13.11-.18.11-.15-.21-.16-.37l0-.74H159c.11-.23.14-.29.39-.87h-1.1v-.86h5v.86h-1a19.64,19.64,0,0,1,1.89,1.51l-.84.63c-.34-.35-.55-.53-.7-.66l-1.41.12h.14c.08,0,.11.05.11.11s-.11.13-.15.15v.37h2.37v.9h-2.37v.72h3.34v.89Zm6.7-5.09v-.91H157.9v1h-1v-1.82h3.23v-.81l.94,0c.24,0,.43,0,.43.16a.13.13,0,0,1-.07.1c-.09.07-.12.1-.12.14v.39h3.21v1.76Zm-2.94.34c-.21.34-.37.61-.54.86.75,0,1.18,0,1.62-.09l-.34-.23.46-.54Z"/><path class="cls-13" d="M225.77,137.36v-.9h3.4v-1.72H227.1v-1h2.07v-1.46h-1.95a10.69,10.69,0,0,1-.83,1.38l-1-.52a6.58,6.58,0,0,0,.85-1.21,8.11,8.11,0,0,0,.77-2l1,.27c.19,0,.23.09.23.14s0,.08-.11.12a.33.33,0,0,0-.19.18,5.63,5.63,0,0,1-.27.76h1.51v-1.6l1.1.05c.14,0,.21,0,.21.14s0,.08-.1.12-.13.11-.13.18v1.11h2.88v.92h-2.88v1.46h2v1h-2v1.72h3.27v.9Z"/><path class="cls-13" d="M242.17,136.1c-.2.9-.53,1.32-1.81,1.33l-.46-1.11c.3,0,.63,0,.7,0,.4,0,.54-.15.68-.87a14.82,14.82,0,0,0,.18-3.36h-.06a8.15,8.15,0,0,1-3.1,5.39l-.86-.61a7.38,7.38,0,0,0,2-2.09,6.51,6.51,0,0,0,1-2.69h-.35a7.86,7.86,0,0,1-1.94,3.5l-.78-.5a6.11,6.11,0,0,0,1.22-1.58,4.13,4.13,0,0,0,.55-1.42h-.23a4.19,4.19,0,0,1-.6,1l-.85-.43a2.87,2.87,0,0,0,.38-.55h-.53v1.4c.21-.07.41-.15.73-.28l0,.92a5.85,5.85,0,0,1-.71.29v3.06h-1v-2.7l-.71.26a2.34,2.34,0,0,0-.24.09c-.06.09-.15.21-.2.21s-.07,0-.08-.14l-.17-1.08c.51-.11.81-.19,1.4-.36v-1.67h-.54a9.34,9.34,0,0,1-.24.91l-.9-.28a8.06,8.06,0,0,0,.49-2.43l1,.14s.1,0,.1.09a.13.13,0,0,1-.05.1c-.12.09-.13.09-.14.14l-.07.42h.37v-1.41l1,.08s.1,0,.1.07,0,.08-.07.1-.1.05-.1.1v1.06h.75v.47a7.5,7.5,0,0,0,.58-1.85l1.08.16c.05,0,.08,0,.08.07s-.05.09-.1.12-.12.08-.15.2c-.08.31-.13.48-.27.89h3.15A26.41,26.41,0,0,1,242.17,136.1Z"/><path class="cls-13" d="M250.62,132.46v-1.11h-2.3V132h1.83v.74h-1.83v.46h2.42V134h-2.47c0,.18,0,.26-.08.47h3.34v.78h-2.91a2,2,0,0,0,.84.75,6.66,6.66,0,0,0,2,.65l-.48.88a4.9,4.9,0,0,1-1.91-.68,4.18,4.18,0,0,1-1.34-1.22,3.28,3.28,0,0,1-1.26,1.23,6,6,0,0,1-1.92.63l-.58-.81a3.47,3.47,0,0,0,2.82-1.43H244.1v-.78h3.05a3,3,0,0,0,.08-.47h-2.37v-.78h2.4v-.46h-1.82V132h1.81c0-.35,0-.36,0-.69H245v1.15h-.93v-2h3.17v-.72l1.08.09c.16,0,.21,0,.21.1s0,.06-.08.1-.09.07-.09.12v.31h3.18v1.92Z"/><path class="cls-13" d="M253.7,135c0,.07-.06.09-.12.12s0,.42,0,.69a6.76,6.76,0,0,1-.05,1l-.67,0a7.1,7.1,0,0,0,.12-1.9l.5,0C253.61,134.88,253.7,134.9,253.7,135Zm6.74-2.71a1.5,1.5,0,0,1-.39-.14v.46h-.89V133h1.57v2.27h-1.47a3.78,3.78,0,0,0,1.73,1.5l-.77.82a5.12,5.12,0,0,1-1.65-1.88,5,5,0,0,1-1.83,2l-.79-.78a3.25,3.25,0,0,0,1.86-1.62h-1.28V133h1.55v-.37h-1v-.44a3.49,3.49,0,0,1-.4.25l-.5-.53v.1h-.82v.48h.8v.76h-.8v.53h1a10.89,10.89,0,0,1-.17,2.2c-.31,1.44-.81,1.5-1.77,1.52l-.33-1a3,3,0,0,0,.53.07c.52,0,.66-.48.73-.91l-.34,0a3.94,3.94,0,0,0-.15-.9l.35-.1a2.62,2.62,0,0,1,.19.62c0-.33,0-.43.05-.77H254v.19h-.89v-4.85h3.44v.91h-1.21v.46h.82v.3a4.12,4.12,0,0,0,1.81-1.77l.84.17c.11,0,.18,0,.18.11a.11.11,0,0,1,0,.08,4.28,4.28,0,0,0,2.08,1.32Zm-6.18,4-.47.14a10,10,0,0,0-.1-1.55l.45,0a5.1,5.1,0,0,1,.15,1.16A1.12,1.12,0,0,1,254.26,136.25Zm.29-5.51H254v.46h.51Zm0,1.22H254v.48h.51Zm0,1.24H254v.53h.51Zm-.09,2.74v-.1a4.55,4.55,0,0,0-.15-1l.4-.06a2.61,2.61,0,0,1,.14,1.07Zm3-2.21v.71H258c0-.17,0-.37.05-.71Zm1.05-2.91a5.77,5.77,0,0,1-.91,1h1.91A3.54,3.54,0,0,1,258.49,130.82Zm1.3,2.91h-.65c0,.34-.05.6-.06.71h.71Z"/><path class="cls-13" d="M262.09,137.39v-.89h3.35v-.72H263v-.9h2.47v-.56c-.89.07-1.28.08-2,.11-.21,0-.23,0-.31.07s-.12.11-.17.11-.15-.21-.16-.37l-.05-.74h1.49c.11-.23.14-.29.38-.87h-1.1v-.86h5v.86h-1a22.5,22.5,0,0,1,1.89,1.51l-.85.63a6.78,6.78,0,0,0-.7-.66l-1.4.12h.13c.08,0,.12.05.12.11s-.11.13-.16.15v.37h2.37v.9h-2.37v.72h3.35v.89Zm6.7-5.09v-.91h-5.65v1h-1v-1.82h3.22v-.81l.95,0c.24,0,.42,0,.42.16a.12.12,0,0,1-.06.1c-.09.07-.13.1-.13.14v.39h3.22v1.76Zm-2.94.34-.53.86c.75,0,1.18,0,1.61-.09l-.33-.23.46-.54Z"/><path class="cls-13" d="M300.46,129.46c-.17,0-.19.07-.25.22-.15.34-.25.61-.51,1.17.09.06.23.14.23.25a.2.2,0,0,1-.06.13c-.11.11-.12.12-.12.18v6.15h-1.14v-4.89a3.16,3.16,0,0,1-.4.53l-1-.61a9.49,9.49,0,0,0,2.13-3.88l1.11.41c.11,0,.17.12.17.19S300.53,129.43,300.46,129.46Zm5.56,7.67a6.88,6.88,0,0,1-2-1.8v2.26h-1.19V135.2a8.69,8.69,0,0,1-1.91,2.1l-.87-.77a7.41,7.41,0,0,0,2.19-2.31h-2v-1h2.61v-.91H301V129H306v3.32h-1.93v.91h2.51v1h-2.09a7.44,7.44,0,0,0,2.37,2.07ZM304.83,130h-2.64v1.27h2.64Z"/><path class="cls-13" d="M316.86,137.52l-2.22,0a3.77,3.77,0,0,1-3-1,6.16,6.16,0,0,1-1,1.12l-.8-.59v.55h-1.13V133a1.29,1.29,0,0,1-.25.33l-1-.6a11.85,11.85,0,0,0,1.84-4.13l1.12.35s.22.08.22.2a.13.13,0,0,1-.08.13c-.21.08-.22.09-.27.25-.13.39-.21.61-.45,1.2.26.14.29.15.29.26s0,.08-.12.17a.33.33,0,0,0-.14.22v5.58a3.94,3.94,0,0,0,1.12-1.17,7.33,7.33,0,0,1-.85-1.94l.9-.25a6.66,6.66,0,0,0,.41,1.2,8.14,8.14,0,0,0,.3-1.88h-.55c-.16.3-.18.35-.29.54l-.89-.48a17,17,0,0,0,1.22-2.42h-.75v-1h1.86l.31.25a23.22,23.22,0,0,1-1,2.14h1v-.16H314v-.45h-1.53v-.78H314v-.42h-1.16v-.84H314v-.57l.8,0c.53,0,.53.07.53.13s-.07.13-.12.16-.13.12-.13.26h1.61v1.26H317v.78h-.34v1.29h-1.61v.48h1.38v.84h-1.38v.48h1.85v.84h-1.85v1.13H314v-1.13h-1.47v-.73a7.47,7.47,0,0,1-.42,1.32,2.45,2.45,0,0,0,2,.79,25.39,25.39,0,0,0,3.26-.23ZM314,133.91h-1.09v-.84H314v-.48h-1.23a11.31,11.31,0,0,1-.22,1.8H314Zm1.6-3.81h-.52v.42h.52Zm0,1.2h-.52v.45h.52Z"/><path class="cls-13" d="M318.43,137.42v-1h3.82v-.82h-2.82v-1h2.82v-.64c-1,.08-1.45.09-2.33.12-.23,0-.25,0-.35.08s-.14.13-.2.13-.17-.24-.18-.43l-.05-.84h1.7c.12-.26.15-.33.43-1H320v-1h5.67v1h-1.1a22.26,22.26,0,0,1,2.16,1.73l-1,.72a10.4,10.4,0,0,0-.8-.76c-.56.06-1.14.1-1.61.13l.16,0c.09,0,.13.06.13.13s-.12.14-.18.17v.42h2.71v1h-2.71v.82h3.82v1Zm7.66-5.81v-1h-6.47v1.11H318.5V129.6h3.69v-.92l1.08,0c.28,0,.48,0,.48.17a.17.17,0,0,1-.07.13c-.1.07-.14.11-.14.15v.45h3.67v2Zm-3.36.39c-.24.39-.43.69-.62,1,.86,0,1.35,0,1.85-.1l-.38-.26.53-.62Z"/><path class="cls-13" d="M193.92,46.79c-3.07-1.88-4.15-3.26-5.21-5.66a10.67,10.67,0,0,1-5.51,5.76l-1.49-1.34a8.47,8.47,0,0,0,5.7-6.64h-5.29V37.26h5.47c.06-.67.06-1.45.06-1.68,0-.88,0-1.54-.06-2l2,.1c.11,0,.26,0,.26.19s-.15.25-.29.38a5,5,0,0,0,0,.88c0,.14,0,1.43-.06,2.15h5.73v1.65h-5.58c.93,2.92,2.12,4.62,5.84,6.41Z"/><path class="cls-13" d="M201.17,33.63l1.61.06c.34,0,.4.06.4.16a.1.1,0,0,1,0,.09c-.08.09-.23.24-.23.3v.81h1.25v.53a11.64,11.64,0,0,0,.61-1.37l1.43.58c.11,0,.23.09.23.18a.16.16,0,0,1-.07.13c-.2,0-.23.06-.31.18a19.9,19.9,0,0,1-1,1.87h.69v1.34h-1.65a12.42,12.42,0,0,1-1,1.12h1.4l.7.65a20.27,20.27,0,0,1-2,2.06v.06c.74,0,.9-.06,2.31-.18l0,1.2-2.35.26v1.51c0,1.42-.7,1.51-2.18,1.53l-.68-1.41c.68.05.73.05.9.05a.34.34,0,0,0,.38-.37V43.81c-.25,0-1.78.14-1.86.17s-.26.26-.32.26-.15-.12-.21-.36l-.32-1.33c.68,0,1.47,0,2.71-.08v-.88l.62.09a3.42,3.42,0,0,0,.43-.76h-1.08a19.81,19.81,0,0,1-1.92,1.26l-1.18-1a13.65,13.65,0,0,0,1.44-.88v-.73h1a14.19,14.19,0,0,0,1.22-1.12H199V37.15h2.21v-.88h-1.82V35.05h1.82Zm1.75,3.52h.27c.19-.26.37-.5.6-.88h-.87Zm1.83,2.72a11,11,0,0,0,2.55-6.15l1.64.22c.09,0,.26.06.26.2a.17.17,0,0,1,0,.12c-.2.15-.22.17-.25.29a17.78,17.78,0,0,1-.5,1.78H212v1.49h-.8a11,11,0,0,1-1.67,5.51,6.69,6.69,0,0,0,2.53,2l-1.15,1.33a7.28,7.28,0,0,1-2.45-2.1,11.15,11.15,0,0,1-3.17,2l-1.11-1.28a7.7,7.7,0,0,0,3.44-2,12,12,0,0,1-1.13-3.05,3.49,3.49,0,0,1-.29.4Zm3.08-2-.26.55a11.47,11.47,0,0,0,1,3.56,9.38,9.38,0,0,0,1-4.11Z"/><path class="cls-13" d="M215.7,46.36V44.87h5.61V43.66h-4.14V42.15h4.14v-.94c-1.48.12-2.13.13-3.41.18-.35,0-.38,0-.52.12s-.21.19-.29.19c-.23,0-.26-.36-.28-.63l-.07-1.23h2.5c.18-.38.23-.49.64-1.46H218V37h8.34v1.43h-1.61a34.56,34.56,0,0,1,3.17,2.54L226.51,42a13.93,13.93,0,0,0-1.17-1.12c-.83.09-1.68.16-2.37.2l.23,0c.14,0,.2.08.2.18s-.18.22-.26.25v.62h4v1.51h-4v1.21h5.61v1.49ZM227,37.82V36.28h-9.49v1.64h-1.65V34.87h5.41V33.51l1.59,0c.41,0,.71,0,.71.26a.25.25,0,0,1-.1.18c-.16.11-.22.17-.22.23v.66h5.4v3Zm-4.94.57c-.35.58-.62,1-.9,1.45,1.27,0,2-.08,2.72-.16-.26-.16-.29-.19-.57-.38l.78-.91Z"/><path class="cls-13" d="M394.44,54.28v-.79H387.9v.79h-1.77V43H389a6.53,6.53,0,0,0,.53-1.75l2.08.19c.13,0,.23.08.23.17s-.1.14-.14.17c-.28.15-.32.17-.4.29s-.35.79-.42.93h5.33V54.28Zm0-9.73H387.9v1.38h6.54Zm0,2.85H387.9v1.51h6.54Zm0,3H387.9V52h6.54Z"/><path class="cls-13" d="M411.43,47.88l-.66-1.71c-.26.12-1.66.73-1.72.78a.23.23,0,0,0-.09.18c.06,0,.24.08.24.2s0,.12-.41.27c-.08,0-.29.43-.35.51h4.77V54.4h-1.83v-.62h-7v.64h-1.75V48.11h3.85a1.43,1.43,0,0,0,.19-.43,7.36,7.36,0,0,1-1.8.2l-.64-1.59c-.81.4-1.45.66-2.26,1a.24.24,0,0,0-.15.16c-.08.19-.11.26-.21.26s-.2-.27-.22-.33l-.24-1.47A21.21,21.21,0,0,0,405,44.52L405,46l-.41.19a2.83,2.83,0,0,0,.81.13c.47,0,.55-.16.55-.48V43h-4.6V41.47h6.31v5.46l.79.12-.52-1.28a22.61,22.61,0,0,0,3.69-1.49l.11,1.46-.75.34a1.69,1.69,0,0,0,.84.18c.52,0,.71-.11.71-.46V43H408V41.55h6.24v5.2C414.25,47.85,412.42,47.86,411.43,47.88Zm-8-2.73a12.93,12.93,0,0,0-1.86-.54l.48-1.28a11.62,11.62,0,0,1,1.9.57Zm8,4.22h-7v.81h7Zm0,2.09h-7v1h7Zm-1.63-6.4A9.09,9.09,0,0,0,408,44.6l.55-1.22a8.76,8.76,0,0,1,1.76.53Z"/><path class="cls-13" d="M418.14,54.08V52.59h5.61V51.38h-4.14V49.87h4.14v-.94c-1.48.12-2.13.14-3.41.18-.35,0-.38,0-.52.12s-.21.19-.29.19-.26-.35-.28-.63l-.07-1.23h2.5c.18-.38.23-.49.64-1.46h-1.85V44.68h8.34v1.43H427.2a34.56,34.56,0,0,1,3.17,2.54L429,49.71a13.93,13.93,0,0,0-1.17-1.12c-.83.09-1.68.16-2.37.2l.23,0c.14,0,.2.08.2.18s-.18.22-.26.25v.62h4v1.51h-4v1.21h5.61v1.49Zm11.25-8.54V44H419.9v1.63h-1.65v-3h5.41V41.23l1.59,0c.41,0,.71,0,.71.26a.25.25,0,0,1-.1.18c-.16.11-.22.17-.22.23v.66H431v2.95Zm-4.94.57c-.35.58-.62,1-.9,1.45,1.27,0,2-.08,2.72-.16-.26-.16-.29-.19-.57-.38l.78-.91Z"/><path class="cls-13" d="M531.46,26.39a13.48,13.48,0,0,1-1.6-.53v4.33a5.66,5.66,0,0,0,.73-.64L532,30.74a.35.35,0,0,1,.1.19c0,.08-.06.11-.12.12h-.41a.46.46,0,0,0-.31.1c-1.15.68-1.28.76-2.27,1.29a10.21,10.21,0,0,0,3.1,1l-.95,1.37a10.56,10.56,0,0,1-5.06-2.5l0,1.2c-.52.16-1.07.31-2,.54l-3,.71c-.21,0-.5.11-.59.23s-.15.15-.25.15-.15-.09-.19-.22l-.57-1.54a15.46,15.46,0,0,0,2.21-.28V25.89a7.78,7.78,0,0,1-1.49.64L519,25.19a10.55,10.55,0,0,0,5.75-3.85l1.81.25a.27.27,0,0,1,.24.27.17.17,0,0,1,0,.13,11,11,0,0,0,5.71,2.92Zm-9.1-.88h2.47V24.09l1.88.06h.17A6.77,6.77,0,0,1,525.69,23,18.6,18.6,0,0,1,522.36,25.51Zm5.75,1.13H523.4v.74h4.71Zm0,1.85H523.4v.8h4.71Zm-3.64,1.93H523.4v2.3c1.46-.32,2-.48,2.48-.61A8,8,0,0,1,524.47,30.42Zm1.92,0a5,5,0,0,0,1.2,1.22,13.49,13.49,0,0,0,2-1.22Zm.71-6.09c0,.08,0,.11-.13.19-.31.19-.35.22-.35.3v.69h2.48A14.11,14.11,0,0,1,527.1,24.33Z"/><path class="cls-13" d="M547.17,27.09V25.32h-9.34V27.2h-1.69V23.84h2.74a4.42,4.42,0,0,0-1-1.09l1.32-1a9.66,9.66,0,0,1,1.56,1.57l-.62.48h1.37V21.57l1.37.07c.75,0,.83,0,.83.21s0,.15-.16.26-.13.16-.13.24v1.49h1.72l-1-.56a8.37,8.37,0,0,0,1.36-1.61l1.33.7c.17.09.27.1.27.26s-.23.22-.47.26l-.37.45c-.12.15-.27.34-.42.5h3v3.25Zm-10.93,7.58v-1.5h5.26V32.09h-4.13V30.64h4.13v-1h-2.86V25.9h7.72v3.78h-2.88v1h4.18v1.45h-4.18v1.08h5.29v1.5Zm8.37-7.33h-4.24v.9h4.24Z"/><path class="cls-13" d="M457.3,232.12a16.84,16.84,0,0,1-3.06-3.88v2.59h1.57v1.52h-1.57v2.3h-1.65v-2.3h-1.51v-1.52h1.51V228a15.57,15.57,0,0,1-3,4.13l-1.57-.79v3.26h-1.66v-7a6.58,6.58,0,0,1-.68.87l-1.35-.94a18.94,18.94,0,0,0,3.43-5.81l1.56.47c.24.08.35.15.35.28s-.09.13-.12.15c-.31.09-.34.1-.38.21-.39.79-.52,1.07-1,1.94.16.09.29.18.29.33a.36.36,0,0,1-.13.25c-.23.16-.28.2-.28.27v5.63a13.36,13.36,0,0,0,3.84-5.52h-2.72v-1.48h3.5v-2.61l1.68.08c.07,0,.29,0,.29.18a.24.24,0,0,1-.11.18c-.18.14-.21.17-.21.26v1.91h3.9v1.48h-3.41a12.74,12.74,0,0,0,4,5.23Z"/><path class="cls-13" d="M471.46,224a18.48,18.48,0,0,1,3.2,2.32l-1.15,1.24a12.36,12.36,0,0,0-1.29-1.12c-1.25.09-2.46.16-3.71.2-.71,0-4.25.11-5,.14-.49,0-.53,0-.64.14s-.25.28-.32.28-.17-.24-.18-.28l-.17-1.64,3.21,0A9.31,9.31,0,0,0,466,224h-4.2V222.6h5.61v-1.1l1.93.11c.26,0,.38.06.38.19a.19.19,0,0,1-.09.16c-.17.16-.21.21-.21.27v.37h5.53V224Zm-1,10.87h-.39l-.59-1.6c.31,0,.69.06,1.08.06.23,0,.55,0,.55-.32v-.52h-5.64v2.26h-1.72v-7.38h9v6.15C472.84,234.82,470.89,234.82,470.5,234.82Zm.65-6.19h-5.64v.7h5.64Zm0,1.89h-5.64v.74h5.64Zm-1.34-5.73.66-.84h-2.22a16.3,16.3,0,0,1-1,1.3c1,0,1.91,0,3.3,0A7.21,7.21,0,0,0,469.81,224.79Z"/><path class="cls-13" d="M490.61,226.32v3h-3.37v.81h3.95v4.31h-1.54v-.35h-2.41v.44h-1.57v-8.18h-.88V223.5l-1.12,1.15a3.73,3.73,0,0,1-.77-.53.9.9,0,0,1-.23.18v.83h1.78v5.07h-3.6v2.14c.67-.22,1.1-.35,1.57-.52a9.33,9.33,0,0,0-.51-.84l1.41-.7a15.87,15.87,0,0,1,1.8,3.43l-1.49.62A11.53,11.53,0,0,0,483,233c-.44.2-1.46.61-3.18,1.23-.4.14-.44.16-.54.32s-.13.23-.22.23-.17-.17-.2-.26L478.4,233l.91-.23v-7.45l-.41.26-1.17-1.22a7.19,7.19,0,0,0,3.34-2.82l1.31.19c.07,0,.46.08.46.29a.18.18,0,0,1,0,.11,6.65,6.65,0,0,0,2,1.28v-.29h2.34v-1.55l1.68.12c.14,0,.35.06.35.21s0,.11-.12.17-.2.18-.2.27v.78h2.76v3.19Zm-9.7-2.2a11.5,11.5,0,0,1-1.31,1h1.31Zm2,2.23h-2.06v.71h2.06Zm0,1.89h-2.06V229h2.06Zm-1.1-5-.5.52,1.25.09C482.23,223.62,482.12,223.51,481.81,223.25Zm8.21,1.22h-3.57v1H490Zm-.89,2.3h-1.89v1.15h1.89Zm.52,4.62h-2.41v1.25h2.41Z"/><path class="cls-13" d="M156.67,87.18l-1.15-.88a11.06,11.06,0,0,0,2.25-2.43H150V82.66h8.32a.74.74,0,0,0,.43-.25l1.14,1A27.41,27.41,0,0,1,156.67,87.18Zm-1.09-2.74s-.17.15-.19.19-.07.81-.1,1a6.88,6.88,0,0,1-3.16,5l-1.32-.71a5.72,5.72,0,0,0,3.09-5.76l1.44.07c.26,0,.3,0,.3.1S155.62,84.4,155.58,84.44Z"/><path class="cls-13" d="M169.44,88.17a12.93,12.93,0,0,0-3.64-2.24v4.85h-1.46v-8.9l1.49.24s.29,0,.29.18-.32.24-.32.3v3l.58-.83a11.66,11.66,0,0,1,2.1,1,14.54,14.54,0,0,1,1.93,1.34Z"/><path class="cls-13" d="M175.7,82.32c-.18.12-.2.13-.2.17v4.74H174v-5.3l1.47.11c.1,0,.33,0,.33.12S175.75,82.27,175.7,82.32Zm5.13-.08c-.16.15-.16.18-.16.5,0,.1,0,.6,0,.71a11.21,11.21,0,0,1-.42,4.17A6.1,6.1,0,0,1,176.64,91l-1.07-1.09c2.53-.9,3.59-2,3.59-5.36,0-.27,0-1.83-.08-2.73l1.58.08c.06,0,.31,0,.31.14S181,82.15,180.83,82.24Z"/><path class="cls-13" d="M193.25,85.48a9.14,9.14,0,0,1-1.48,3.3,10.8,10.8,0,0,1-2.87,2.59l-1.2-.94a7.22,7.22,0,0,0,4.14-5.82h-5.55v2.3h-1.42V83.42h3.56V81.53l1.31.07c.26,0,.41.06.41.16s0,0-.09.12-.12.13-.12.18v1.36h2.21a.87.87,0,0,0,.45-.18l1.05.85A4.06,4.06,0,0,0,193.25,85.48Z"/><path class="cls-13" d="M205.38,90.37a8,8,0,0,0-.52-1.26c-1.19.18-7.07,1.07-7.16,1.13l-.18.15a.12.12,0,0,1-.1,0c-.1,0-.14-.1-.19-.3l-.29-1.31c.29,0,.65,0,1.37-.09a55.1,55.1,0,0,0,2.43-6.63l1.46.32c.11,0,.35.1.35.22s0,.06-.24.18-.14.09-.26.39c-.65,1.74-1.69,4.18-2.23,5.39,1.75-.18,3.05-.34,4.41-.55a10.25,10.25,0,0,0-1.42-1.74l1.31-.6a14.73,14.73,0,0,1,2.66,4Z"/><line class="cls-5" x1="324.85" y1="57.33" x2="324.85" y2="67.53"/><path class="cls-14" d="M314.73,33.51a1.61,1.61,0,1,0-1.6-1.61A1.61,1.61,0,0,0,314.73,33.51Z"/><path class="cls-14" d="M319,40l-1.18-4.18C317.53,34.69,316.8,34,316,34h-2.5c-.82,0-1.55.72-1.87,1.82L310.43,40a.66.66,0,0,0,.48.8.65.65,0,0,0,.79-.47l1.18-4.17h.35l-2.05,7.25h1.93v5.38a.74.74,0,0,0,.74.74.75.75,0,0,0,.75-.74V43.38H315v5.38a.74.74,0,0,0,.74.74.75.75,0,0,0,.75-.74V43.38h1.78l-2-7.25h.34l1.18,4.17a.65.65,0,0,0,.79.47A.66.66,0,0,0,319,40Z"/><path class="cls-14" d="M300.46,33.28a1.6,1.6,0,1,0-1.6-1.6A1.6,1.6,0,0,0,300.46,33.28Z"/><path class="cls-14" d="M302.43,33.74h-4.21a1.79,1.79,0,0,0-1.62,1.62v5.38a.71.71,0,0,0,1.41,0V36.31h.32v12a.92.92,0,1,0,1.84,0v-7h.3v7a.93.93,0,0,0,1.85,0v-12h.32v4.43a.71.71,0,0,0,1.41,0V35.36A1.8,1.8,0,0,0,302.43,33.74Z"/><line class="cls-5" x1="273.51" y1="49.02" x2="255.83" y2="49.02"/><line class="cls-5" x1="18.71" y1="94.7" x2="18.71" y2="113.5"/><path class="cls-14" d="M138.34,28.74a1.52,1.52,0,1,0-1.52-1.52A1.51,1.51,0,0,0,138.34,28.74Z"/><path class="cls-14" d="M142.41,34.87l-1.12-4c-.3-1-1-1.72-1.77-1.72h-2.37c-.77,0-1.46.69-1.77,1.72l-1.12,4a.62.62,0,0,0,1.21.31l1.11-3.95h.33L135,38.1h1.83v5.09a.71.71,0,1,0,1.41,0V38.1h.39v5.09a.71.71,0,1,0,1.41,0V38.1h1.69l-1.94-6.87h.33l1.12,3.95a.61.61,0,0,0,.75.44A.62.62,0,0,0,142.41,34.87Z"/><path class="cls-14" d="M123.61,28.38a1.52,1.52,0,1,0-1.52-1.52A1.52,1.52,0,0,0,123.61,28.38Z"/><path class="cls-14" d="M125.48,28.81h-4A1.71,1.71,0,0,0,120,30.34v5.1a.67.67,0,1,0,1.33,0V31.25h.31V42.63a.87.87,0,1,0,1.74,0V36h.29v6.6a.88.88,0,0,0,1.75,0V31.25h.3v4.19a.67.67,0,0,0,.67.67.66.66,0,0,0,.66-.67v-5.1A1.71,1.71,0,0,0,125.48,28.81Z"/><rect class="cls-13" x="232.67" y="67.54" width="40.84" height="37.39"/><polyline class="cls-5" points="523.51 196 537.1 196 537.1 190.22 537.1 190.22 545.76 190.22 545.76 252.41"/><line class="cls-9" x1="496.86" y1="196" x2="497.86" y2="196"/><line class="cls-15" x1="499.76" y1="196" x2="521.56" y2="196"/><line class="cls-9" x1="522.51" y1="196" x2="523.51" y2="196"/><line class="cls-5" x1="493.12" y1="196" x2="496.86" y2="196"/><line class="cls-9" x1="466.48" y1="196" x2="467.48" y2="196"/><line class="cls-16" x1="469.37" y1="196" x2="491.17" y2="196"/><line class="cls-9" x1="492.12" y1="196" x2="493.12" y2="196"/><line class="cls-5" x1="462.73" y1="196" x2="466.48" y2="196"/><line class="cls-9" x1="436.09" y1="196" x2="437.09" y2="196"/><line class="cls-17" x1="438.99" y1="196" x2="460.79" y2="196"/><line class="cls-9" x1="461.73" y1="196" x2="462.73" y2="196"/><line class="cls-5" x1="432.35" y1="196" x2="436.09" y2="196"/><line class="cls-9" x1="405.71" y1="196" x2="406.71" y2="196"/><line class="cls-15" x1="408.6" y1="196" x2="430.4" y2="196"/><line class="cls-9" x1="431.35" y1="196" x2="432.35" y2="196"/><polyline class="cls-5" points="389.63 252.41 389.63 190.22 399.39 190.22 399.39 196 405.71 196"/><polyline class="cls-5" points="449.2 152.71 449.2 172.22 429.89 190.22 399.39 190.22"/><polyline class="cls-5" points="487.21 152.71 487.21 172.22 506.53 190.22 537.1 190.22"/><polyline class="cls-12" points="584.48 180.17 584.48 49.14 577.25 49.14 473.91 49.14 473.91 9.3 594.34 9.3 594.34 49.14 584.48 49.14"/><path class="cls-13" d="M127.78,53.64V49.7h3v.61H128.5v1h2.09v.57H128.5V53h2.35v.62Z"/><path class="cls-13" d="M133.3,53.64h-.73l-1.41-3.94H132l.86,2.73.13.54.11-.54.87-2.73h.78Z"/><rect class="cls-12" x="126" y="47.31" width="10.35" height="8.75"/><path class="cls-18" d="M242.23,89.85a16,16,0,0,0-2.48-2.31,9.75,9.75,0,0,1-3.48,2.38l-.89-.84a9.14,9.14,0,0,0,3.24-2,7.31,7.31,0,0,0,1.73-2.52h-3.88V83.49h4.38a1,1,0,0,0,.53-.2l.79.78a1.29,1.29,0,0,0-.55.56,11.18,11.18,0,0,1-1.18,2.06A20.38,20.38,0,0,1,243.13,89Z"/><path class="cls-18" d="M249.06,86.36a4.37,4.37,0,0,1-.64,2.39,4.68,4.68,0,0,1-2.25,1.72l-1-.76c2-.66,2.66-1.55,2.72-3.35h-3.42v-1h7.67v1Zm-3.21-2.29v-1h4.92v1Z"/><path class="cls-18" d="M253.7,87.16V86h7.22v1.18Z"/><path class="cls-18" d="M264.76,86.62a8.19,8.19,0,0,0-2-.9l.56-.93a7.18,7.18,0,0,1,2.08,1Zm3.11,1.57a16.47,16.47,0,0,1-3.41,2c-.13.06-.16.06-.18.14s0,.16-.1.16-.2-.19-.23-.24l-.54-.91a12.94,12.94,0,0,0,6-4.51l.81.91A11.1,11.1,0,0,1,267.87,88.19Zm-2.07-3.73a6.82,6.82,0,0,0-2-.83l.54-.89a6.65,6.65,0,0,1,2,.82Zm3.1-.24a4.05,4.05,0,0,0-1-.69l.43-.51a5,5,0,0,1,1,.69Zm1-.75a5.48,5.48,0,0,0-1.05-.7l.42-.51a4.72,4.72,0,0,1,1.08.71Z"/><polyline class="cls-11" points="371.74 163.34 371.74 169.34 365.74 169.34"/><line class="cls-19" x1="354.11" y1="169.34" x2="34.2" y2="169.34"/><polyline class="cls-11" points="28.38 169.34 22.38 169.34 22.38 163.34"/><polyline class="cls-11" points="22.38 162.11 22.38 156.11 28.38 156.11"/><line class="cls-19" x1="40.02" y1="156.11" x2="359.92" y2="156.11"/><polyline class="cls-11" points="365.74 156.11 371.74 156.11 371.74 162.11"/><path class="cls-13" d="M185,161.74a10,10,0,0,1-1.15,2.4,11,11,0,0,1,.84.75l-.74.86c-.17-.16-.36-.36-.78-.73a9.75,9.75,0,0,1-3.16,2.44l-.9-.94a7.38,7.38,0,0,0,3.21-2.2,11.67,11.67,0,0,0-1.64-1l.61-.75a9.32,9.32,0,0,1,1.69.95,5.62,5.62,0,0,0,.9-1.85h-2.55a9.25,9.25,0,0,1-1.81,2l-.93-.69a8.17,8.17,0,0,0,2.8-3.92l1.09.32c.06,0,.2.08.2.15s-.09.1-.23.16c-.12.24-.31.63-.51,1h2.3a1.17,1.17,0,0,0,.45-.24l.74.77A1.32,1.32,0,0,0,185,161.74Z"/><path class="cls-13" d="M188.36,163.87V162.6h7.1v1.27Z"/><path class="cls-13" d="M205,161.74a10,10,0,0,1-1.15,2.4,11,11,0,0,1,.84.75l-.74.86c-.17-.16-.36-.36-.78-.73a9.75,9.75,0,0,1-3.16,2.44l-.9-.94a7.38,7.38,0,0,0,3.21-2.2,11.67,11.67,0,0,0-1.64-1l.61-.75a9.32,9.32,0,0,1,1.69.95,5.62,5.62,0,0,0,.9-1.85h-2.55a9.25,9.25,0,0,1-1.81,2l-.93-.69a8.17,8.17,0,0,0,2.8-3.92l1.09.32c.06,0,.2.08.2.15s-.09.1-.23.16c-.12.24-.31.63-.51,1h2.3a1.17,1.17,0,0,0,.45-.24l.74.77A1.32,1.32,0,0,0,205,161.74Z"/><path class="cls-13" d="M210.47,161.74a9,9,0,0,0-2.05-1.26l.61-.94a9.33,9.33,0,0,1,2.1,1.24Zm2.92,2.72a13.59,13.59,0,0,1-3.76,2.22c0,.14-.07.31-.15.31s-.15-.06-.22-.19l-.7-1.2a9.37,9.37,0,0,0,3.7-1.72,14,14,0,0,0,2.93-3.06l.69,1A14.06,14.06,0,0,1,213.39,164.46Z"/></g></g></svg>