<?xml version="1.0" encoding="utf-8"?>
<!-- Generator: Adobe Illustrator 24.3.0, SVG Export Plug-In . SVG Version: 6.00 Build 0)  -->
<svg version="1.1" id="レイヤー_1" xmlns="http://www.w3.org/2000/svg" xmlns:xlink="http://www.w3.org/1999/xlink" x="0px"
	 y="0px" viewBox="0 0 682.2 210.9" style="enable-background:new 0 0 682.2 210.9;" xml:space="preserve">
<style type="text/css">
	.st0{fill:none;}
	.st1{fill:none;stroke:#DE7A7A;stroke-width:0.72;}
	.st2{fill:none;stroke:#231815;stroke-width:0.72;}
	.st3{fill:url(#SVGID_1_);}
	.st4{fill:url(#SVGID_2_);fill-opacity:0.26;}
	.st5{fill:url(#SVGID_3_);}
	.st6{fill:url(#SVGID_4_);}
	.st7{fill:url(#SVGID_5_);}
	.st8{fill:url(#SVGID_6_);}
	.st9{fill:none;stroke:#B5B5B5;stroke-width:0.2;}
	.st10{fill:none;stroke:#336699;}
	.st11{fill:none;stroke:#336699;stroke-width:0.5;}
	.st12{fill:none;stroke:#336699;stroke-width:0.74;}
	.st13{fill:none;stroke:#336699;stroke-linecap:square;}
	.st14{fill:none;stroke:#336699;stroke-dasharray:2;}
	.st15{fill:none;stroke:#336699;stroke-width:0.2;}
	.st16{fill:none;stroke:#336699;stroke-width:0.75;}
	.st17{fill:#3E3A39;}
	.st18{fill:#FFFFFF;}
	.st19{fill:none;stroke:#336699;stroke-miterlimit:10;}
	.st20{fill:#FFFFFF;stroke:#336699;stroke-linejoin:round;}
	.st21{fill:#FFFFFF;stroke:#3E3A39;stroke-width:0.5;stroke-linecap:round;stroke-linejoin:round;}
	.st22{font-family:'MidashiGoPr6N-MB31-90ms-RKSJ-H';}
	.st23{font-size:6px;}
</style>
<pattern  y="210.9" width="72" height="72" patternUnits="userSpaceOnUse" id="_10_lpi_10_2" viewBox="90.5 -162.5 72 72" style="overflow:visible;">
	<g>
		<rect x="90.5" y="-162.5" class="st0" width="72" height="72"/>
		<rect x="90.5" y="-162.5" class="st0" width="72" height="72"/>
		<line class="st1" x1="157.7" y1="-248.2" x2="248.2" y2="-157.7"/>
		<line class="st1" x1="139.8" y1="-230.3" x2="230.3" y2="-139.8"/>
		<line class="st1" x1="121.8" y1="-212.3" x2="212.3" y2="-121.8"/>
		<line class="st1" x1="148.7" y1="-239.2" x2="239.2" y2="-148.7"/>
		<line class="st1" x1="130.8" y1="-221.3" x2="221.3" y2="-130.8"/>
		<line class="st1" x1="112.8" y1="-203.3" x2="203.3" y2="-112.8"/>
		<line class="st1" x1="153.2" y1="-243.7" x2="243.7" y2="-153.2"/>
		<line class="st1" x1="135.3" y1="-225.8" x2="225.8" y2="-135.3"/>
		<line class="st1" x1="117.3" y1="-207.8" x2="207.8" y2="-117.3"/>
		<line class="st1" x1="162.2" y1="-252.7" x2="252.7" y2="-162.2"/>
		<line class="st1" x1="144.3" y1="-234.7" x2="234.7" y2="-144.3"/>
		<line class="st1" x1="126.3" y1="-216.8" x2="216.8" y2="-126.3"/>
		<line class="st1" x1="108.3" y1="-198.8" x2="198.8" y2="-108.3"/>
		<line class="st1" x1="85.7" y1="-248.2" x2="176.2" y2="-157.7"/>
		<line class="st1" x1="67.8" y1="-230.3" x2="158.3" y2="-139.8"/>
		<line class="st1" x1="49.8" y1="-212.3" x2="140.3" y2="-121.8"/>
		<line class="st1" x1="76.7" y1="-239.2" x2="167.2" y2="-148.7"/>
		<line class="st1" x1="58.8" y1="-221.3" x2="149.3" y2="-130.8"/>
		<line class="st1" x1="40.8" y1="-203.3" x2="131.3" y2="-112.8"/>
		<line class="st1" x1="81.2" y1="-243.7" x2="171.7" y2="-153.2"/>
		<line class="st1" x1="63.3" y1="-225.8" x2="153.8" y2="-135.3"/>
		<line class="st1" x1="45.3" y1="-207.8" x2="135.8" y2="-117.3"/>
		<line class="st1" x1="90.2" y1="-252.7" x2="180.7" y2="-162.2"/>
		<line class="st1" x1="72.3" y1="-234.7" x2="162.7" y2="-144.3"/>
		<line class="st1" x1="54.3" y1="-216.8" x2="144.8" y2="-126.3"/>
		<line class="st1" x1="36.3" y1="-198.8" x2="126.8" y2="-108.3"/>
		<line class="st1" x1="13.7" y1="-248.2" x2="104.2" y2="-157.7"/>
		<line class="st1" x1="4.7" y1="-239.2" x2="95.2" y2="-148.7"/>
		<line class="st1" x1="9.2" y1="-243.7" x2="99.7" y2="-153.2"/>
		<line class="st1" x1="18.2" y1="-252.7" x2="108.7" y2="-162.2"/>
		<line class="st1" x1="0.3" y1="-234.7" x2="90.7" y2="-144.3"/>
		<line class="st1" x1="157.7" y1="-176.2" x2="248.2" y2="-85.7"/>
		<line class="st1" x1="139.8" y1="-158.3" x2="230.3" y2="-67.8"/>
		<line class="st1" x1="121.8" y1="-140.3" x2="212.3" y2="-49.8"/>
		<line class="st1" x1="148.7" y1="-167.2" x2="239.2" y2="-76.7"/>
		<line class="st1" x1="130.8" y1="-149.3" x2="221.3" y2="-58.8"/>
		<line class="st1" x1="112.8" y1="-131.3" x2="203.3" y2="-40.8"/>
		<line class="st1" x1="153.2" y1="-171.7" x2="243.7" y2="-81.2"/>
		<line class="st1" x1="135.3" y1="-153.8" x2="225.8" y2="-63.3"/>
		<line class="st1" x1="117.3" y1="-135.8" x2="207.8" y2="-45.3"/>
		<line class="st1" x1="162.2" y1="-180.7" x2="252.7" y2="-90.2"/>
		<line class="st1" x1="144.3" y1="-162.7" x2="234.7" y2="-72.3"/>
		<line class="st1" x1="126.3" y1="-144.8" x2="216.8" y2="-54.3"/>
		<line class="st1" x1="108.3" y1="-126.8" x2="198.8" y2="-36.3"/>
		<line class="st1" x1="121.7" y1="-212.2" x2="212.2" y2="-121.7"/>
		<line class="st1" x1="103.7" y1="-194.2" x2="194.2" y2="-103.7"/>
		<line class="st1" x1="85.7" y1="-176.2" x2="176.2" y2="-85.7"/>
		<line class="st1" x1="67.8" y1="-158.3" x2="158.3" y2="-67.8"/>
		<line class="st1" x1="49.8" y1="-140.3" x2="140.3" y2="-49.8"/>
		<line class="st1" x1="112.7" y1="-203.2" x2="203.2" y2="-112.7"/>
		<line class="st1" x1="94.7" y1="-185.2" x2="185.2" y2="-94.7"/>
		<line class="st1" x1="76.7" y1="-167.2" x2="167.2" y2="-76.7"/>
		<line class="st1" x1="58.8" y1="-149.3" x2="149.3" y2="-58.8"/>
		<line class="st1" x1="40.8" y1="-131.3" x2="131.3" y2="-40.8"/>
		<line class="st1" x1="117.2" y1="-207.7" x2="207.7" y2="-117.2"/>
		<line class="st1" x1="99.2" y1="-189.7" x2="189.7" y2="-99.2"/>
		<line class="st1" x1="81.2" y1="-171.7" x2="171.7" y2="-81.2"/>
		<line class="st1" x1="63.3" y1="-153.8" x2="153.8" y2="-63.3"/>
		<line class="st1" x1="45.3" y1="-135.8" x2="135.8" y2="-45.3"/>
		<line class="st1" x1="108.2" y1="-198.7" x2="198.7" y2="-108.2"/>
		<line class="st1" x1="90.2" y1="-180.7" x2="180.7" y2="-90.2"/>
		<line class="st1" x1="72.3" y1="-162.7" x2="162.7" y2="-72.3"/>
		<line class="st1" x1="54.3" y1="-144.8" x2="144.8" y2="-54.3"/>
		<line class="st1" x1="36.3" y1="-126.8" x2="126.8" y2="-36.3"/>
		<line class="st1" x1="49.7" y1="-212.2" x2="140.2" y2="-121.7"/>
		<line class="st1" x1="31.7" y1="-194.2" x2="122.2" y2="-103.7"/>
		<line class="st1" x1="13.7" y1="-176.2" x2="104.2" y2="-85.7"/>
		<line class="st1" x1="40.7" y1="-203.2" x2="131.2" y2="-112.7"/>
		<line class="st1" x1="22.7" y1="-185.2" x2="113.2" y2="-94.7"/>
		<line class="st1" x1="4.7" y1="-167.2" x2="95.2" y2="-76.7"/>
		<line class="st1" x1="45.2" y1="-207.7" x2="135.7" y2="-117.2"/>
		<line class="st1" x1="27.2" y1="-189.7" x2="117.7" y2="-99.2"/>
		<line class="st1" x1="9.2" y1="-171.7" x2="99.7" y2="-81.2"/>
		<line class="st1" x1="36.2" y1="-198.7" x2="126.7" y2="-108.2"/>
		<line class="st1" x1="18.2" y1="-180.7" x2="108.7" y2="-90.2"/>
		<line class="st1" x1="0.3" y1="-162.7" x2="90.7" y2="-72.3"/>
		<line class="st1" x1="157.7" y1="-104.2" x2="248.2" y2="-13.7"/>
		<line class="st1" x1="148.7" y1="-95.2" x2="239.2" y2="-4.7"/>
		<line class="st1" x1="153.2" y1="-99.7" x2="243.7" y2="-9.2"/>
		<line class="st1" x1="162.2" y1="-108.7" x2="252.7" y2="-18.2"/>
		<line class="st1" x1="144.3" y1="-90.7" x2="234.7" y2="-0.3"/>
		<line class="st1" x1="121.7" y1="-140.2" x2="212.2" y2="-49.7"/>
		<line class="st1" x1="103.7" y1="-122.2" x2="194.2" y2="-31.7"/>
		<line class="st1" x1="85.7" y1="-104.2" x2="176.2" y2="-13.7"/>
		<line class="st1" x1="112.7" y1="-131.2" x2="203.2" y2="-40.7"/>
		<line class="st1" x1="94.7" y1="-113.2" x2="185.2" y2="-22.7"/>
		<line class="st1" x1="76.7" y1="-95.2" x2="167.2" y2="-4.7"/>
		<line class="st1" x1="117.2" y1="-135.7" x2="207.7" y2="-45.2"/>
		<line class="st1" x1="99.2" y1="-117.7" x2="189.7" y2="-27.2"/>
		<line class="st1" x1="81.2" y1="-99.7" x2="171.7" y2="-9.2"/>
		<line class="st1" x1="108.2" y1="-126.7" x2="198.7" y2="-36.2"/>
		<line class="st1" x1="90.2" y1="-108.7" x2="180.7" y2="-18.2"/>
		<line class="st1" x1="72.3" y1="-90.7" x2="162.7" y2="-0.3"/>
		<line class="st1" x1="49.7" y1="-140.2" x2="140.2" y2="-49.7"/>
		<line class="st1" x1="31.7" y1="-122.2" x2="122.2" y2="-31.7"/>
		<line class="st1" x1="13.7" y1="-104.2" x2="104.2" y2="-13.7"/>
		<line class="st1" x1="40.7" y1="-131.2" x2="131.2" y2="-40.7"/>
		<line class="st1" x1="22.7" y1="-113.2" x2="113.2" y2="-22.7"/>
		<line class="st1" x1="4.7" y1="-95.2" x2="95.2" y2="-4.7"/>
		<line class="st1" x1="45.2" y1="-135.7" x2="135.7" y2="-45.2"/>
		<line class="st1" x1="27.2" y1="-117.7" x2="117.7" y2="-27.2"/>
		<line class="st1" x1="9.2" y1="-99.7" x2="99.7" y2="-9.2"/>
		<line class="st1" x1="36.2" y1="-126.7" x2="126.7" y2="-36.2"/>
		<line class="st1" x1="18.2" y1="-108.7" x2="108.7" y2="-18.2"/>
		<line class="st1" x1="0.3" y1="-90.7" x2="90.7" y2="-0.3"/>
	</g>
</pattern>
<pattern  y="210.9" width="72" height="72" patternUnits="userSpaceOnUse" id="新規パターン_2" viewBox="90.5 -162.5 72 72" style="overflow:visible;">
	<g>
		<rect x="90.5" y="-162.5" class="st0" width="72" height="72"/>
		<rect x="90.5" y="-162.5" class="st0" width="72" height="72"/>
		<line class="st2" x1="157.7" y1="-248.2" x2="248.2" y2="-157.7"/>
		<line class="st2" x1="139.8" y1="-230.3" x2="230.3" y2="-139.8"/>
		<line class="st2" x1="121.8" y1="-212.3" x2="212.3" y2="-121.8"/>
		<line class="st2" x1="148.7" y1="-239.2" x2="239.2" y2="-148.7"/>
		<line class="st2" x1="130.8" y1="-221.3" x2="221.3" y2="-130.8"/>
		<line class="st2" x1="112.8" y1="-203.3" x2="203.3" y2="-112.8"/>
		<line class="st2" x1="153.2" y1="-243.7" x2="243.7" y2="-153.2"/>
		<line class="st2" x1="135.3" y1="-225.8" x2="225.8" y2="-135.3"/>
		<line class="st2" x1="117.3" y1="-207.8" x2="207.8" y2="-117.3"/>
		<line class="st2" x1="162.2" y1="-252.7" x2="252.7" y2="-162.2"/>
		<line class="st2" x1="144.3" y1="-234.7" x2="234.7" y2="-144.3"/>
		<line class="st2" x1="126.3" y1="-216.8" x2="216.8" y2="-126.3"/>
		<line class="st2" x1="108.3" y1="-198.8" x2="198.8" y2="-108.3"/>
		<line class="st2" x1="85.7" y1="-248.2" x2="176.2" y2="-157.7"/>
		<line class="st2" x1="67.8" y1="-230.3" x2="158.3" y2="-139.8"/>
		<line class="st2" x1="49.8" y1="-212.3" x2="140.3" y2="-121.8"/>
		<line class="st2" x1="76.7" y1="-239.2" x2="167.2" y2="-148.7"/>
		<line class="st2" x1="58.8" y1="-221.3" x2="149.3" y2="-130.8"/>
		<line class="st2" x1="40.8" y1="-203.3" x2="131.3" y2="-112.8"/>
		<line class="st2" x1="81.2" y1="-243.7" x2="171.7" y2="-153.2"/>
		<line class="st2" x1="63.3" y1="-225.8" x2="153.8" y2="-135.3"/>
		<line class="st2" x1="45.3" y1="-207.8" x2="135.8" y2="-117.3"/>
		<line class="st2" x1="90.2" y1="-252.7" x2="180.7" y2="-162.2"/>
		<line class="st2" x1="72.3" y1="-234.7" x2="162.7" y2="-144.3"/>
		<line class="st2" x1="54.3" y1="-216.8" x2="144.8" y2="-126.3"/>
		<line class="st2" x1="36.3" y1="-198.8" x2="126.8" y2="-108.3"/>
		<line class="st2" x1="13.7" y1="-248.2" x2="104.2" y2="-157.7"/>
		<line class="st2" x1="4.7" y1="-239.2" x2="95.2" y2="-148.7"/>
		<line class="st2" x1="9.2" y1="-243.7" x2="99.7" y2="-153.2"/>
		<line class="st2" x1="18.2" y1="-252.7" x2="108.7" y2="-162.2"/>
		<line class="st2" x1="0.3" y1="-234.7" x2="90.7" y2="-144.3"/>
		<line class="st2" x1="157.7" y1="-176.2" x2="248.2" y2="-85.7"/>
		<line class="st2" x1="139.8" y1="-158.3" x2="230.3" y2="-67.8"/>
		<line class="st2" x1="121.8" y1="-140.3" x2="212.3" y2="-49.8"/>
		<line class="st2" x1="148.7" y1="-167.2" x2="239.2" y2="-76.7"/>
		<line class="st2" x1="130.8" y1="-149.3" x2="221.3" y2="-58.8"/>
		<line class="st2" x1="112.8" y1="-131.3" x2="203.3" y2="-40.8"/>
		<line class="st2" x1="153.2" y1="-171.7" x2="243.7" y2="-81.2"/>
		<line class="st2" x1="135.3" y1="-153.8" x2="225.8" y2="-63.3"/>
		<line class="st2" x1="117.3" y1="-135.8" x2="207.8" y2="-45.3"/>
		<line class="st2" x1="162.2" y1="-180.7" x2="252.7" y2="-90.2"/>
		<line class="st2" x1="144.3" y1="-162.7" x2="234.7" y2="-72.3"/>
		<line class="st2" x1="126.3" y1="-144.8" x2="216.8" y2="-54.3"/>
		<line class="st2" x1="108.3" y1="-126.8" x2="198.8" y2="-36.3"/>
		<line class="st2" x1="121.7" y1="-212.2" x2="212.2" y2="-121.7"/>
		<line class="st2" x1="103.7" y1="-194.2" x2="194.2" y2="-103.7"/>
		<line class="st2" x1="85.7" y1="-176.2" x2="176.2" y2="-85.7"/>
		<line class="st2" x1="67.8" y1="-158.3" x2="158.3" y2="-67.8"/>
		<line class="st2" x1="49.8" y1="-140.3" x2="140.3" y2="-49.8"/>
		<line class="st2" x1="112.7" y1="-203.2" x2="203.2" y2="-112.7"/>
		<line class="st2" x1="94.7" y1="-185.2" x2="185.2" y2="-94.7"/>
		<line class="st2" x1="76.7" y1="-167.2" x2="167.2" y2="-76.7"/>
		<line class="st2" x1="58.8" y1="-149.3" x2="149.3" y2="-58.8"/>
		<line class="st2" x1="40.8" y1="-131.3" x2="131.3" y2="-40.8"/>
		<line class="st2" x1="117.2" y1="-207.7" x2="207.7" y2="-117.2"/>
		<line class="st2" x1="99.2" y1="-189.7" x2="189.7" y2="-99.2"/>
		<line class="st2" x1="81.2" y1="-171.7" x2="171.7" y2="-81.2"/>
		<line class="st2" x1="63.3" y1="-153.8" x2="153.8" y2="-63.3"/>
		<line class="st2" x1="45.3" y1="-135.8" x2="135.8" y2="-45.3"/>
		<line class="st2" x1="108.2" y1="-198.7" x2="198.7" y2="-108.2"/>
		<line class="st2" x1="90.2" y1="-180.7" x2="180.7" y2="-90.2"/>
		<line class="st2" x1="72.3" y1="-162.7" x2="162.7" y2="-72.3"/>
		<line class="st2" x1="54.3" y1="-144.8" x2="144.8" y2="-54.3"/>
		<line class="st2" x1="36.3" y1="-126.8" x2="126.8" y2="-36.3"/>
		<line class="st2" x1="49.7" y1="-212.2" x2="140.2" y2="-121.7"/>
		<line class="st2" x1="31.7" y1="-194.2" x2="122.2" y2="-103.7"/>
		<line class="st2" x1="13.7" y1="-176.2" x2="104.2" y2="-85.7"/>
		<line class="st2" x1="40.7" y1="-203.2" x2="131.2" y2="-112.7"/>
		<line class="st2" x1="22.7" y1="-185.2" x2="113.2" y2="-94.7"/>
		<line class="st2" x1="4.7" y1="-167.2" x2="95.2" y2="-76.7"/>
		<line class="st2" x1="45.2" y1="-207.7" x2="135.7" y2="-117.2"/>
		<line class="st2" x1="27.2" y1="-189.7" x2="117.7" y2="-99.2"/>
		<line class="st2" x1="9.2" y1="-171.7" x2="99.7" y2="-81.2"/>
		<line class="st2" x1="36.2" y1="-198.7" x2="126.7" y2="-108.2"/>
		<line class="st2" x1="18.2" y1="-180.7" x2="108.7" y2="-90.2"/>
		<line class="st2" x1="0.3" y1="-162.7" x2="90.7" y2="-72.3"/>
		<line class="st2" x1="157.7" y1="-104.2" x2="248.2" y2="-13.7"/>
		<line class="st2" x1="148.7" y1="-95.2" x2="239.2" y2="-4.7"/>
		<line class="st2" x1="153.2" y1="-99.7" x2="243.7" y2="-9.2"/>
		<line class="st2" x1="162.2" y1="-108.7" x2="252.7" y2="-18.2"/>
		<line class="st2" x1="144.3" y1="-90.7" x2="234.7" y2="-0.3"/>
		<line class="st2" x1="121.7" y1="-140.2" x2="212.2" y2="-49.7"/>
		<line class="st2" x1="103.7" y1="-122.2" x2="194.2" y2="-31.7"/>
		<line class="st2" x1="85.7" y1="-104.2" x2="176.2" y2="-13.7"/>
		<line class="st2" x1="112.7" y1="-131.2" x2="203.2" y2="-40.7"/>
		<line class="st2" x1="94.7" y1="-113.2" x2="185.2" y2="-22.7"/>
		<line class="st2" x1="76.7" y1="-95.2" x2="167.2" y2="-4.7"/>
		<line class="st2" x1="117.2" y1="-135.7" x2="207.7" y2="-45.2"/>
		<line class="st2" x1="99.2" y1="-117.7" x2="189.7" y2="-27.2"/>
		<line class="st2" x1="81.2" y1="-99.7" x2="171.7" y2="-9.2"/>
		<line class="st2" x1="108.2" y1="-126.7" x2="198.7" y2="-36.2"/>
		<line class="st2" x1="90.2" y1="-108.7" x2="180.7" y2="-18.2"/>
		<line class="st2" x1="72.3" y1="-90.7" x2="162.7" y2="-0.3"/>
		<line class="st2" x1="49.7" y1="-140.2" x2="140.2" y2="-49.7"/>
		<line class="st2" x1="31.7" y1="-122.2" x2="122.2" y2="-31.7"/>
		<line class="st2" x1="13.7" y1="-104.2" x2="104.2" y2="-13.7"/>
		<line class="st2" x1="40.7" y1="-131.2" x2="131.2" y2="-40.7"/>
		<line class="st2" x1="22.7" y1="-113.2" x2="113.2" y2="-22.7"/>
		<line class="st2" x1="4.7" y1="-95.2" x2="95.2" y2="-4.7"/>
		<line class="st2" x1="45.2" y1="-135.7" x2="135.7" y2="-45.2"/>
		<line class="st2" x1="27.2" y1="-117.7" x2="117.7" y2="-27.2"/>
		<line class="st2" x1="9.2" y1="-99.7" x2="99.7" y2="-9.2"/>
		<line class="st2" x1="36.2" y1="-126.7" x2="126.7" y2="-36.2"/>
		<line class="st2" x1="18.2" y1="-108.7" x2="108.7" y2="-18.2"/>
		<line class="st2" x1="0.3" y1="-90.7" x2="90.7" y2="-0.3"/>
	</g>
</pattern>
<g id="レイヤー_2_1_">
	<g id="_2F">
		<pattern  id="SVGID_1_" xlink:href="#_10_lpi_10_2" patternTransform="matrix(1 0 0 -1 68 -15670.0957)">
		</pattern>
		<rect x="87" y="0.5" class="st3" width="25.2" height="18.1"/>
		<pattern  id="SVGID_2_" xlink:href="#譁ｰ隕上ヱ繧ｿ繝ｼ繝ｳ_2" patternTransform="matrix(1 0 0 -1 68 -15670.0957)">
		</pattern>
		<polygon class="st4" points="302.1,104 147.4,104 147.4,67 160.5,67 160.5,74.2 183.2,74.2 183.1,67 302.1,67 		"/>
		<pattern  id="SVGID_3_" xlink:href="#_10_lpi_10_2" patternTransform="matrix(1 0 0 -1 68 -15670.0957)">
		</pattern>
		<rect x="600" y="89.6" class="st5" width="36.6" height="68.5"/>
		<pattern  id="SVGID_4_" xlink:href="#_10_lpi_10_2" patternTransform="matrix(1 0 0 -1 68 -15670.0957)">
		</pattern>
		<rect x="175" y="19.3" class="st6" width="127.1" height="37.4"/>
		<pattern  id="SVGID_5_" xlink:href="#_10_lpi_10_2" patternTransform="matrix(1 0 0 -1 68 -15670.0957)">
		</pattern>
		<rect x="357.3" y="19.5" class="st7" width="19.4" height="37.4"/>
		<pattern  id="SVGID_6_" xlink:href="#_10_lpi_10_2" patternTransform="matrix(1 0 0 -1 68 -15670.0957)">
		</pattern>
		<rect x="112.2" y="0.7" class="st8" width="14.7" height="13.7"/>
		<line class="st9" x1="63.8" y1="104.1" x2="63.8" y2="67"/>
		<line class="st9" x1="68.4" y1="104.1" x2="68.4" y2="67"/>
		<line class="st9" x1="73.1" y1="104.1" x2="73.1" y2="67"/>
		<line class="st9" x1="77.7" y1="104.1" x2="77.7" y2="67"/>
		<line class="st9" x1="82.4" y1="104.1" x2="82.4" y2="67"/>
		<line class="st9" x1="87" y1="104.1" x2="87" y2="67"/>
		<line class="st9" x1="91.7" y1="104.1" x2="91.7" y2="67"/>
		<line class="st9" x1="96.3" y1="104.1" x2="96.3" y2="67"/>
		<line class="st9" x1="101" y1="104.1" x2="101" y2="67"/>
		<line class="st9" x1="105.6" y1="104.1" x2="105.6" y2="67"/>
		<line class="st9" x1="110.3" y1="104.1" x2="110.3" y2="67"/>
		<line class="st9" x1="114.9" y1="104.1" x2="114.9" y2="67"/>
		<line class="st9" x1="119.6" y1="104.1" x2="119.6" y2="67"/>
		<line class="st9" x1="124.2" y1="104.1" x2="124.2" y2="67"/>
		<line class="st9" x1="128.9" y1="104.1" x2="128.9" y2="67"/>
		<line class="st9" x1="133.5" y1="104.1" x2="133.5" y2="67"/>
		<line class="st9" x1="138.2" y1="104.1" x2="138.2" y2="67"/>
		<line class="st9" x1="142.8" y1="104.1" x2="142.8" y2="67"/>
		<line class="st9" x1="59.1" y1="71.6" x2="147.4" y2="71.6"/>
		<line class="st9" x1="59.1" y1="76.3" x2="147.4" y2="76.3"/>
		<line class="st9" x1="59.1" y1="80.9" x2="147.4" y2="80.9"/>
		<line class="st9" x1="59.1" y1="85.6" x2="147.4" y2="85.6"/>
		<line class="st9" x1="59.1" y1="90.2" x2="147.4" y2="90.2"/>
		<line class="st9" x1="59.1" y1="94.9" x2="147.4" y2="94.9"/>
		<line class="st9" x1="59.1" y1="99.5" x2="147.4" y2="99.5"/>
		<rect x="49.4" y="112.6" class="st10" width="38.8" height="37.1"/>
		<polyline class="st10" points="49.4,149.6 49.4,159.5 10.6,159.5 10.6,149.6 		"/>
		<rect x="88.2" y="112.6" class="st10" width="38.8" height="37.1"/>
		<rect x="146.8" y="112.6" class="st10" width="38.8" height="37.1"/>
		<rect x="263.2" y="112.6" class="st10" width="38.8" height="37.1"/>
		<rect x="321.8" y="112.6" class="st10" width="38.8" height="37.1"/>
		<rect x="321.8" y="67" class="st10" width="71" height="37.1"/>
		<rect x="360.6" y="112.6" class="st10" width="38.8" height="37.1"/>
		<rect x="185.6" y="112.6" class="st10" width="38.8" height="37.1"/>
		<rect x="224.4" y="112.6" class="st10" width="38.8" height="37.1"/>
		<line class="st11" x1="146.8" y1="119.7" x2="127" y2="119.7"/>
		<line class="st10" x1="146.8" y1="140.5" x2="127" y2="140.5"/>
		<polyline class="st10" points="127,119.7 136.9,119.7 136.9,133.6 		"/>
		<line class="st11" x1="127" y1="122" x2="146.8" y2="122"/>
		<line class="st11" x1="127" y1="124.3" x2="146.8" y2="124.3"/>
		<line class="st11" x1="127" y1="126.7" x2="146.8" y2="126.7"/>
		<line class="st11" x1="127" y1="129" x2="146.8" y2="129"/>
		<line class="st11" x1="127" y1="131.3" x2="146.8" y2="131.3"/>
		<line class="st11" x1="127" y1="133.6" x2="146.8" y2="133.6"/>
		<line class="st11" x1="146.8" y1="40.3" x2="127" y2="40.3"/>
		<polyline class="st10" points="146.7,40.3 136.8,40.3 136.8,26.4 		"/>
		<line class="st11" x1="127" y1="38" x2="146.8" y2="38"/>
		<line class="st11" x1="127" y1="35.7" x2="146.8" y2="35.7"/>
		<line class="st11" x1="127" y1="33.3" x2="146.8" y2="33.3"/>
		<line class="st11" x1="127" y1="31" x2="146.8" y2="31"/>
		<line class="st11" x1="127" y1="28.7" x2="146.8" y2="28.7"/>
		<line class="st11" x1="127" y1="26.4" x2="146.8" y2="26.4"/>
		<line class="st11" x1="321.8" y1="119.7" x2="302" y2="119.7"/>
		<line class="st10" x1="321.8" y1="140.5" x2="302" y2="140.5"/>
		<polyline class="st10" points="302,119.7 311.9,119.7 311.9,133.6 		"/>
		<line class="st11" x1="302" y1="122" x2="321.8" y2="122"/>
		<line class="st11" x1="302" y1="124.3" x2="321.8" y2="124.3"/>
		<line class="st11" x1="302" y1="126.7" x2="321.8" y2="126.7"/>
		<line class="st11" x1="302" y1="129" x2="321.8" y2="129"/>
		<line class="st11" x1="302" y1="131.3" x2="321.8" y2="131.3"/>
		<line class="st11" x1="302" y1="133.6" x2="321.8" y2="133.6"/>
		<line class="st11" x1="321.8" y1="40.3" x2="302" y2="40.3"/>
		<polyline class="st12" points="321.8,40.3 311.9,40.3 311.9,26.4 		"/>
		<line class="st11" x1="302" y1="38" x2="321.8" y2="38"/>
		<line class="st11" x1="302" y1="35.7" x2="321.8" y2="35.7"/>
		<line class="st11" x1="302" y1="33.3" x2="321.8" y2="33.3"/>
		<line class="st11" x1="302" y1="31" x2="321.8" y2="31"/>
		<line class="st11" x1="302" y1="28.7" x2="321.8" y2="28.7"/>
		<line class="st11" x1="302" y1="26.4" x2="321.8" y2="26.4"/>
		<line class="st11" x1="357.3" y1="33.3" x2="349.9" y2="33.3"/>
		<line class="st11" x1="349.9" y1="31" x2="357.3" y2="31"/>
		<line class="st11" x1="349.9" y1="28.7" x2="357.3" y2="28.7"/>
		<line class="st11" x1="349.9" y1="26.4" x2="357.3" y2="26.4"/>
		<line class="st11" x1="349.9" y1="24.1" x2="357.3" y2="24.1"/>
		<line class="st11" x1="349.9" y1="21.8" x2="357.3" y2="21.8"/>
		<line class="st11" x1="349.9" y1="19.5" x2="357.3" y2="19.5"/>
		<polyline class="st10" points="376.7,38 386.6,38 386.6,26.4 		"/>
		<line class="st11" x1="376.7" y1="38" x2="396.5" y2="38"/>
		<line class="st11" x1="376.7" y1="35.7" x2="396.5" y2="35.7"/>
		<line class="st11" x1="376.7" y1="33.3" x2="396.5" y2="33.3"/>
		<line class="st11" x1="376.7" y1="31" x2="396.5" y2="31"/>
		<line class="st11" x1="376.7" y1="28.7" x2="396.5" y2="28.7"/>
		<line class="st11" x1="376.7" y1="26.4" x2="396.5" y2="26.4"/>
		<line class="st10" x1="59.1" y1="88.5" x2="59.1" y2="83.3"/>
		<polyline class="st10" points="126.9,104.1 59.1,104.1 59.1,98.1 		"/>
		<line class="st10" x1="147.4" y1="67" x2="147.4" y2="104.1"/>
		<polyline class="st10" points="59.1,72 59.1,67 126.9,67 		"/>
		<line class="st10" x1="96.1" y1="66.1" x2="116.9" y2="66.1"/>
		<polyline class="st10" points="59.1,104.1 44.8,104.1 44.8,117.1 49.4,117.1 		"/>
		<polyline class="st13" points="1.3,149.6 1.3,167.9 49.4,167.9 		"/>
		<line class="st11" x1="10.6" y1="159.5" x2="10.6" y2="167.9"/>
		<line class="st11" x1="15.4" y1="159.5" x2="15.4" y2="167.9"/>
		<line class="st11" x1="20.3" y1="159.5" x2="20.3" y2="167.9"/>
		<line class="st11" x1="25.1" y1="159.5" x2="25.1" y2="167.9"/>
		<line class="st11" x1="30" y1="159.5" x2="30" y2="167.9"/>
		<line class="st11" x1="34.8" y1="159.5" x2="34.8" y2="167.9"/>
		<line class="st11" x1="39.7" y1="159.5" x2="39.7" y2="167.9"/>
		<line class="st11" x1="44.5" y1="159.5" x2="44.5" y2="167.9"/>
		<line class="st11" x1="49.4" y1="159.5" x2="49.4" y2="167.9"/>
		<polyline class="st10" points="87,67 87,0.5 126.9,0.5 126.9,56.7 		"/>
		<line class="st10" x1="146.8" y1="19.5" x2="146.8" y2="56.7"/>
		<line class="st10" x1="160.9" y1="19.5" x2="160.9" y2="47.1"/>
		<line class="st10" x1="151.2" y1="46.9" x2="170.6" y2="46.9"/>
		<polyline class="st10" points="127,19.5 302,19.5 302,56.9 262.7,56.9 		"/>
		<line class="st10" x1="252.7" y1="56.9" x2="204.1" y2="56.9"/>
		<polyline class="st10" points="194.5,56.9 185.6,56.9 185.6,56.9 		"/>
		<polyline class="st10" points="185.6,56.9 175,56.9 175,19.5 		"/>
		<line class="st10" x1="321.8" y1="19.5" x2="321.8" y2="56.7"/>
		<line class="st10" x1="335.9" y1="19.5" x2="335.9" y2="55.7"/>
		<line class="st10" x1="376.7" y1="19.5" x2="376.7" y2="52.5"/>
		<polyline class="st10" points="349.9,56.9 349.9,19.5 302,19.5 		"/>
		<line class="st14" x1="116.9" y1="34.7" x2="116.9" y2="67"/>
		<polyline class="st10" points="87,19 116.9,19 116.9,34.7 		"/>
		<polyline class="st10" points="126.9,14.4 112.2,14.4 112.2,0.5 		"/>
		<line class="st10" x1="344.2" y1="55.7" x2="327.5" y2="55.7"/>
		<line class="st10" x1="396.5" y1="19.5" x2="396.5" y2="38"/>
		<polyline class="st10" points="376.7,56.9 357.3,56.9 357.3,19.5 475.5,19.5 475.5,71.6 397.8,71.6 397.8,57.5 		"/>
		<polygon class="st15" points="356.3,50.1 353.6,46 350.8,50.1 		"/>
		<line class="st11" x1="178.2" y1="67" x2="178.2" y2="74.2"/>
		<line class="st11" x1="180.7" y1="67" x2="180.7" y2="74.2"/>
		<line class="st11" x1="175.8" y1="67" x2="175.8" y2="74.2"/>
		<line class="st11" x1="173.3" y1="67" x2="173.3" y2="74.2"/>
		<line class="st11" x1="170.9" y1="67" x2="170.9" y2="74.2"/>
		<line class="st11" x1="168.4" y1="67" x2="168.4" y2="74.2"/>
		<polyline class="st10" points="166,74.2 166,67 302,67 302,104.1 147.4,104.1 147.4,67 160.5,67 160.5,74.2 183.1,74.2 183.1,67 
					"/>
		<polygon class="st16" points="8.3,140.7 10.8,140.7 5.8,146.3 0.8,140.7 3.4,140.7 3.4,135.4 8.3,135.4 		"/>
		<polygon class="st16" points="49.9,74.5 49.9,72 55.6,77 49.9,82 49.9,79.4 44.7,79.4 44.7,74.5 		"/>
		<polygon class="st16" points="50.4,96.4 50.4,98.9 44.7,93.9 50.4,88.9 50.4,91.5 55.6,91.5 55.6,96.4 		"/>
		<polygon class="st15" points="356.3,50.1 353.6,46 350.8,50.1 		"/>
		<path class="st17" d="M96.3,44v1.2h-0.9V45h-1.7v0.6c0,0.5-0.2,0.7-1.4,0.7l-0.4-0.9h0.6c0.1,0,0.3,0,0.3-0.2V45h-2.6v-0.6h2.6V44
			h-3v-0.7h3V43h-2.6v-0.7h2.6V42h-2.1v-1.5h2.1v-0.3h-3v-0.7h3V39l1,0.1c0,0,0.1,0,0.1,0.1s0,0.1-0.1,0.1c0,0,0,0,0,0.1v0.2h3v0.7
			h-3v0.3h2v1.5h-2v0.3h2.6v1h0.5V44H96.3z M92.7,41.1h-1.2v0.4h1.2V41.1z M94.8,41.1h-1.2v0.4h1.2L94.8,41.1z M95.4,43.1h-1.7v0.3
			h1.7L95.4,43.1z M95.4,44.1h-1.7v0.4h1.7L95.4,44.1z"/>
		<path class="st17" d="M105,43c-0.6-0.1-1.2-0.3-1.8-0.7c-0.2,0.1-0.4,0.3-0.6,0.4l1,0.2c0,0,0.1,0,0.1,0.1s0,0.1,0,0.1
			s-0.2,0.1-0.2,0.2v0.3h1.6c0,0.8-0.1,1.6-0.3,2.4c-0.2,0.4-0.7,0.5-1.4,0.5l-0.3-0.8h0.7c0.2,0,0.3,0,0.3-0.2
			c0.1-0.4,0.2-0.7,0.2-1.1h-0.8c-0.2,0.5-0.4,0.9-0.7,1.2c-0.3,0.4-0.7,0.7-1.1,0.9l-0.7-0.6c0.7-0.3,1.3-0.8,1.6-1.5h-1.1v-0.8
			h1.3c0-0.2,0-0.5,0-0.7c-0.2,0.1-0.5,0.2-0.7,0.3l-0.6-0.6c-0.1,0.3-0.3,0.6-0.4,0.9l-0.6-0.3c0.2-0.2,0.3-0.5,0.4-0.8h-0.5v3.1
			c0,0.9-0.2,1-1.4,1l-0.3-0.9H99c0.2,0,0.3,0,0.3-0.3v-1.5c-0.2,0.4-0.4,0.8-0.7,1.2l-0.8-0.4c0.6-0.7,1-1.4,1.3-2.2h-1v-0.8h1.5
			c-0.4-0.2-0.7-0.4-1.1-0.6l0.4-0.6c0.3,0.1,0.5,0.2,0.8,0.3c0.2-0.1,0.3-0.3,0.5-0.5h-1.9v-0.8h3l0.3,0.3
			c-0.5,0.6-0.8,0.8-1.3,1.3c0.1,0,0.2,0.1,0.3,0.2l-0.2,0.4h0.8l0.4,0.4c0,0.2-0.1,0.4-0.2,0.5c0.5,0,0.9-0.2,1.3-0.5
			c-0.3-0.3-0.5-0.6-0.6-1c-0.1,0.2-0.3,0.3-0.5,0.5l-0.7-0.5c0.6-0.5,1.1-1.1,1.3-1.8l0.9,0.2c0,0,0.1,0,0.1,0.1c0,0,0,0.1,0,0.1
			l-0.1,0.1c0,0.1-0.1,0.1-0.1,0.2h2.3v0.8h-0.5c-0.2,0.5-0.5,0.9-0.8,1.3c0.5,0.3,1.1,0.5,1.7,0.5L105,43z M102.8,40.5
			c0.1,0.3,0.2,0.6,0.4,0.8c0.2-0.2,0.4-0.5,0.5-0.8H102.8z"/>
		<path class="st17" d="M106.4,46.1v-0.8h3.1v-0.7h-2.3v-0.8h2.3v-0.5c-0.8,0.1-1.2,0.1-1.9,0.1c-0.2,0-0.2,0-0.3,0.1
			s-0.1,0.1-0.2,0.1s-0.2-0.2-0.2-0.3v-0.7h1.4c0.1-0.2,0.1-0.3,0.3-0.8h-1V41h4.6v0.8h-0.9c0.6,0.4,1.2,0.9,1.7,1.4l-0.8,0.6
			c-0.2-0.2-0.4-0.4-0.6-0.6c-0.5,0-0.9,0.1-1.3,0.1h0.1c0.1,0,0.1,0,0.1,0.1s-0.1,0.1-0.1,0.1v0.3h2.2v0.8h-2.2v0.7h3.1v0.8
			L106.4,46.1z M112.6,41.4v-0.8h-5.2v0.9h-0.9v-1.7h3V39h0.9c0.2,0,0.4,0,0.4,0.1c0,0,0,0.1-0.1,0.1c-0.1,0.1-0.1,0.1-0.1,0.1v0.4
			h3v1.6L112.6,41.4z M109.9,41.7l-0.5,0.8c0.7,0,1.1,0,1.5-0.1l-0.3-0.2l0.4-0.5H109.9z"/>
		<path class="st17" d="M11.6,92.2v-1.4h1.7v-6.2l1.6,0.1c0.1,0,0.3,0,0.3,0.2c0,0,0,0.1-0.1,0.1c-0.1,0.1-0.2,0.2-0.2,0.3v5.5h1.7
			v-8.2H12v-1.4h11v1.4h-4.7v3.1h3.9v1.6h-3.9v3.4h4.9v1.4H11.6z"/>
		<path class="st17" d="M27.1,86.1v6.5h-1.6V81.2h5.3v4.9H27.1z M29.3,82.5h-2.2v0.6h2.2L29.3,82.5z M29.3,84.2h-2.2V85h2.2
			L29.3,84.2z M35.2,92.6h-0.7l-1-1.8c0.4,0.1,0.9,0.2,1.3,0.2c0.3,0,0.4-0.2,0.4-0.4v-4.5h-3.7v-4.9h5.3v10.1
			C36.9,92.2,36.4,92.6,35.2,92.6L35.2,92.6z M35.2,82.4H33v0.6h2.2L35.2,82.4z M35.2,84.1H33v0.8h2.2L35.2,84.1z"/>
		<path class="st17" d="M213.3,43.8c-0.2,0-0.4-0.1-0.4-0.3l-0.5-1.1H210c0,0.3-0.2,0.4-0.5,0.4h-1.2c-0.3,0-0.5-0.2-0.5-0.5v-2.8
			h-0.1v3.6c0,0.3-0.2,0.5-0.5,0.5h-1.3c-0.3,0-0.5-0.2-0.5-0.5V38c0-0.3,0.2-0.5,0.5-0.5h1.3v-2.3h-1.7c-0.3,0-0.5-0.2-0.5-0.5
			v-1.1c0-0.3,0.2-0.5,0.5-0.5h3.9v-0.4c0-0.1,0.1-0.3,0.2-0.4c0.1-0.1,0.2-0.1,0.3-0.1l1.5,0.1c0.4,0,0.7,0.2,0.7,0.6
			c0,0,0,0,0,0.1c0,0,0,0.1,0,0.1h3.6c0.3,0,0.5,0.2,0.5,0.5v1.1c0,0.3-0.2,0.5-0.5,0.5H214v2.3h1.3c0.3,0,0.5,0.2,0.5,0.5v4.3
			c0,0.9-0.8,1.5-1.6,1.5c-0.1,0-0.1,0-0.2,0H213.3z"/>
		<path class="st18" d="M209.8,32.8l1.4,0.1c0.1,0,0.3,0,0.3,0.1s-0.1,0.1-0.1,0.2s-0.1,0.1-0.1,0.1v0.3h4.3v1.1h-10.2v-1.1h4.4
			V32.8 M213.4,35.2v2.4h-5.8v-2.4H213.4 M209,36.7h3.1V36H209V36.7 M215.2,38v4.3c0,0.5-0.5,1-1.2,1h-0.6l-0.5-1.2h0.6
			c0.4,0,0.4,0,0.4-0.4V39h-6.7v4.1h-1.3V38H215.2 M212.9,39.5v2.3h-3.4v0.4h-1.2v-2.8L212.9,39.5 M209.5,41h2.2v-0.7h-2.2V41
			 M209.8,31.8c-0.3,0-0.5,0.1-0.7,0.3c-0.2,0.2-0.3,0.4-0.3,0.6h-3.4c-0.6,0-1,0.4-1,1v1.1c0,0.6,0.4,1,1,1h1.2V37h-0.8
			c-0.6,0-1,0.4-1,1v5.1c0,0.6,0.4,1,1,1h1.3c0.5,0,0.9-0.3,1-0.8h1.3c0.3,0,0.6-0.2,0.8-0.4h1.8l0.4,0.8c0.2,0.4,0.5,0.6,0.9,0.6
			h0.7c1.1,0.1,2.1-0.6,2.2-1.7c0-0.1,0-0.2,0-0.3V38c0-0.6-0.4-1-1-1h-0.8v-1.3h1.2c0.6,0,1-0.4,1-1v-1.1c0-0.6-0.4-1-1-1h-3.1
			c-0.2-0.5-0.7-0.8-1.2-0.8l-1.4-0.1L209.8,31.8z"/>
		<path class="st17" d="M221.1,43.7c-0.3,0-0.5-0.2-0.5-0.5v-1.7c-0.1,0.1-0.2,0.1-0.3,0.1c-0.1,0-0.2,0-0.3-0.1l-1-0.6
			c-0.1-0.1-0.2-0.2-0.2-0.3c0-0.1,0-0.3,0.1-0.4c0.8-1,1.3-2.2,1.5-3.4h-0.7c-0.3,0-0.5-0.2-0.5-0.5V35c0-0.3,0.2-0.5,0.5-0.5h0.9
			v-1.7c0-0.1,0.1-0.3,0.2-0.4c0.1-0.1,0.2-0.1,0.3-0.1l1.2,0.1c0.6,0.1,0.7,0.4,0.7,0.6c0,0.2-0.1,0.4-0.2,0.5v1h0.5V34
			c0-0.3,0.2-0.5,0.5-0.5h1.8v-0.6c0-0.3,0.2-0.5,0.5-0.5h1.2c0.7,0,0.8,0.5,0.8,0.7c0,0.2-0.1,0.3-0.2,0.5h2.1
			c0.3,0,0.5,0.2,0.5,0.5v1.2c0,0.3-0.2,0.5-0.5,0.5h-0.8c0.5,0.5,1,1.1,1.4,1.8c0.1,0.1,0.1,0.3,0.1,0.4c0,0.1-0.1,0.2-0.2,0.3
			l-1.2,0.7c-0.1,0-0.2,0.1-0.3,0.1H229h-0.1c-0.2,0.5-0.4,0.9-0.7,1.3c0.7,0.7,1.5,1.2,2.5,1.5c0.2,0.1,0.3,0.2,0.3,0.3
			c0,0.2,0,0.3-0.1,0.5l-0.9,1.1c-0.1,0.1-0.2,0.2-0.4,0.2c-0.1,0-0.1,0-0.2,0c-1-0.4-1.9-1-2.6-1.8c-0.8,0.7-1.8,1.3-2.8,1.7
			c-0.1,0-0.1,0-0.2,0c-0.1,0-0.3-0.1-0.4-0.2l-0.6-0.6v0.3c0,0.3-0.2,0.5-0.5,0.5L221.1,43.7z M222.9,41.7c0.9-0.4,1.8-0.9,2.6-1.7
			c-0.2-0.3-0.4-0.6-0.6-1.1h-0.1c-0.1,0-0.1,0-0.2,0l-0.4-0.2l-0.7,0.8c-0.1,0.1-0.2,0.2-0.4,0.2l0,0c0,0-0.1,0-0.1,0V41.7z
			 M226.2,36.8c0.1,0.1,0.2,0.2,0.2,0.3c0.1,0.4,0.3,0.7,0.4,0.9c0.1-0.4,0.3-0.7,0.3-1.1c0-0.1,0.1-0.2,0.2-0.3l-0.4-0.4
			c-0.1-0.1-0.1-0.1-0.1-0.2c-0.1,0.2-0.2,0.3-0.4,0.4C226.3,36.5,226.3,36.7,226.2,36.8L226.2,36.8z M223.1,36.7
			c0.1,0.2,0.2,0.4,0.4,0.5c0.1-0.2,0.3-0.4,0.4-0.6c-0.1,0-0.1,0-0.2,0L223.1,36.7z M224.1,36.1c0.1-0.2,0.1-0.3,0.2-0.5h-0.2V36.1
			z M226.7,35.7C226.7,35.7,226.7,35.7,226.7,35.7L226.7,35.7L226.7,35.7z"/>
		<path class="st18" d="M226.2,32.8h1.2c0.2,0,0.3,0,0.3,0.2s0,0.1-0.1,0.1s-0.2,0.1-0.2,0.2v0.7h2.7V35h-6.2v-1.1h2.3L226.2,32.8
			 M221.1,32.8l1.2,0.1c0.1,0,0.3,0,0.3,0.1s0,0.1-0.1,0.1s-0.1,0.1-0.1,0.1V35h1.3v1.2h-1.3c0.3,0.8,0.8,1.5,1.5,2.1l-0.8,0.9
			c-0.2-0.2-0.4-0.5-0.6-0.7v4.8h-1.3v-3.5c-0.2,0.5-0.5,0.9-0.8,1.3l-1-0.6c0.9-1.2,1.5-2.7,1.7-4.2h-1.3V35h1.4L221.1,32.8
			 M228.2,35.2c0.8,0.7,1.5,1.6,2.1,2.5l-1.2,0.7c-0.1-0.2-0.3-0.5-0.4-0.7c-0.2,0.9-0.6,1.8-1.2,2.5c0.8,0.9,1.8,1.6,3,1.9
			l-0.9,1.1c-1.1-0.4-2-1.1-2.8-2c-0.9,0.8-1.9,1.5-3,2l-0.9-0.9c1.2-0.5,2.3-1.2,3.2-2.1c-0.4-0.7-0.7-1.3-1-2.1
			c-0.1,0.1-0.1,0.2-0.2,0.3l-1.1-0.5c0.6-0.8,1.1-1.7,1.4-2.6l1,0.4c0.1,0,0.2,0.1,0.2,0.2s-0.1,0.1-0.1,0.1s-0.1,0.1-0.2,0.1
			c-0.2,0.5-0.5,1.1-0.7,1.6l0.7-0.4c0.2,0.6,0.5,1.3,0.8,1.8c0.4-0.6,0.7-1.3,0.8-2.1l0.8,0.2c-0.4-0.5-0.8-0.9-1.2-1.3L228.2,35.2
			 M226.2,31.8c-0.3,0-0.5,0.1-0.7,0.3c-0.2,0.2-0.3,0.4-0.3,0.7v0.1h-1.3c-0.1,0-0.2,0-0.3,0c-0.1-0.6-0.6-1-1.1-1h-0.1l-1.2-0.1
			h-0.1c-0.3,0-0.5,0.1-0.7,0.3c-0.2,0.2-0.3,0.5-0.3,0.7V34h-0.4c-0.6,0-1,0.4-1,1v1.2c0,0.6,0.4,1,1,1l0,0
			c-0.2,0.9-0.7,1.8-1.3,2.6c-0.2,0.2-0.3,0.5-0.2,0.8c0,0.3,0.2,0.5,0.5,0.7l1.1,0.6c0.1,0.1,0.2,0.1,0.3,0.1v1.2c0,0.6,0.4,1,1,1
			h1.3c0.3,0,0.6-0.1,0.8-0.4c0.2,0.2,0.4,0.3,0.7,0.3c0.1,0,0.3,0,0.4-0.1c0.9-0.4,1.7-0.9,2.5-1.6c0.7,0.7,1.5,1.2,2.4,1.6
			c0.1,0.1,0.3,0.1,0.4,0.1c0.3,0,0.6-0.1,0.8-0.3l0.9-1.1c0.2-0.3,0.3-0.6,0.2-0.9c-0.1-0.3-0.3-0.6-0.6-0.7
			c-0.7-0.2-1.4-0.6-2-1.1c0.1-0.2,0.2-0.4,0.3-0.7c0.2,0,0.3,0,0.5-0.1l1.2-0.7c0.2-0.1,0.4-0.4,0.5-0.6c0.1-0.3,0-0.5-0.1-0.8
			c-0.2-0.3-0.5-0.7-0.8-1c0.4-0.1,0.7-0.5,0.7-1v-1.2c0-0.6-0.4-1-1-1h-1.4c0-0.6-0.6-1.1-1.2-1.1L226.2,31.8L226.2,31.8z
			 M223.3,40.1c0.1-0.1,0.3-0.1,0.4-0.3l0.5-0.5l0.1,0h0.1c0.1,0.2,0.2,0.4,0.3,0.5c-0.4,0.4-0.9,0.7-1.4,0.9L223.3,40.1L223.3,40.1
			z"/>
		<path class="st17" d="M235.8,43.6c-0.2,0-0.4-0.1-0.4-0.3l-0.5-1.1c-0.1-0.3,0-0.6,0.3-0.7c0.1,0,0.1,0,0.2,0h0.5v-0.1l-0.8,0.1
			c-0.1,0.1-0.3,0.2-0.5,0.2c-0.5,0-0.6-0.5-0.7-0.7l-0.2-1c0-0.1,0-0.3,0.1-0.4l0.1-0.1l-0.3-0.3c-0.1-0.1-0.2-0.3-0.2-0.4
			c0-0.2,0.1-0.3,0.3-0.4c0.2-0.1,0.5-0.3,0.9-0.5v-0.3c0-0.1,0.1-0.3,0.2-0.4h-0.4c-0.3,0-0.5-0.2-0.5-0.5v-1.1
			c0-0.2,0.1-0.4,0.4-0.5c0-0.1,0-0.1-0.1-0.2V34c0-0.3,0.2-0.5,0.5-0.5h0.9v-0.6c0-0.1,0.1-0.3,0.1-0.4c0.1-0.1,0.2-0.1,0.4-0.1
			h1.3c0.6,0,0.8,0.3,0.8,0.6c0,0.2-0.1,0.3-0.2,0.4h0.3l0.1-0.3c0-0.1,0.1-0.2,0.3-0.3c0.1,0,0.1,0,0.2,0c0.1,0,0.1,0,0.2,0
			l1.1,0.5c0,0,0.1,0,0.1,0c0-0.2,0.1-0.3,0.1-0.5c0-0.2,0.3-0.4,0.5-0.4h0.1l1.3,0.2c0.3,0,0.6,0.3,0.6,0.7c0,0.2-0.1,0.3-0.2,0.5
			l-0.1,0.1c-0.1,0.3-0.1,0.5-0.2,0.7h2.1c0.3,0,0.5,0.2,0.5,0.5v1.2c0,0.3-0.2,0.5-0.5,0.5h-0.2c-0.1,1.3-0.5,2.6-1.2,3.8
			c0.4,0.5,1,0.9,1.6,1.2c0.2,0.1,0.3,0.3,0.3,0.5c0,0.2,0,0.3-0.1,0.4l-0.9,1c-0.1,0.1-0.2,0.2-0.4,0.2c-0.1,0-0.2,0-0.2-0.1
			c-0.7-0.3-1.3-0.8-1.8-1.4c-0.7,0.5-1.4,1-2.2,1.3c-0.1,0-0.1,0-0.2,0c-0.1,0-0.3-0.1-0.4-0.2l-0.8-0.9
			C237.8,43.6,236.7,43.6,235.8,43.6L235.8,43.6z M238,41.6l0.1-0.1c0.4-0.1,0.9-0.3,1.3-0.5l-1.4,0.2L238,41.6z M239.3,39.1
			c0.1,0,0.3,0,0.4,0.1c0.1,0.1,0.2,0.2,0.2,0.3v1c0,0.1,0,0.2-0.1,0.3c0.2-0.1,0.4-0.3,0.6-0.5c-0.2-0.5-0.4-1-0.6-1.5l-0.2,0
			l-0.4-0.2c-0.2,0.2-0.3,0.4-0.5,0.5L239.3,39.1z M241.5,36.7c0.1,0.5,0.2,0.9,0.3,1.4c0.1-0.5,0.2-0.9,0.3-1.4H241.5z"/>
		<path class="st18" d="M236,32.8h1.3c0.3,0,0.3,0,0.3,0.1c0,0,0,0,0,0.1c-0.1,0.1-0.2,0.2-0.2,0.2V34h1v0.4
			c0.2-0.3,0.3-0.7,0.5-1.1l1.1,0.5c0.1,0,0.2,0.1,0.2,0.1c0,0,0,0.1-0.1,0.1c-0.2,0-0.2,0-0.2,0.1c-0.2,0.5-0.5,1-0.8,1.5h0.5v1
			h-1.3c-0.2,0.3-0.5,0.6-0.8,0.9h1.1l0.6,0.5c-0.5,0.6-1,1.1-1.6,1.6l0,0c0.6,0,0.7,0,1.8-0.1v1l-1.9,0.2v1.2
			c0,1.1-0.6,1.2-1.7,1.2l-0.6-1.1h0.7c0.1,0,0.3-0.1,0.3-0.2c0,0,0,0,0-0.1v-0.9c-0.2,0-1.4,0.1-1.5,0.1s-0.2,0.2-0.3,0.2
			s-0.1-0.1-0.2-0.3l-0.3-1c0.5,0,1.2,0,2.1-0.1v-0.7l0.5,0.1c0.1-0.2,0.3-0.4,0.3-0.6h-0.9c-0.5,0.4-1,0.7-1.5,1l-0.9-0.8
			c0.4-0.2,0.8-0.4,1.1-0.7v-0.6h0.8c0.3-0.3,0.7-0.6,0.9-0.9h-2.4v-1h1.8v-0.7h-1.4V34h1.4V32.8 M238,34.9h-0.7v0.7h0.2
			C237.7,35.4,237.9,35.2,238,34.9 M240.8,32.9l1.3,0.2c0.1,0,0.2,0,0.2,0.2c0,0,0,0.1,0,0.1c-0.1,0.1-0.2,0.1-0.2,0.2
			c-0.1,0.5-0.2,0.9-0.4,1.4h2.8v1.2h-0.6c-0.1,1.5-0.5,3-1.3,4.3c0.5,0.7,1.2,1.2,2,1.6l-0.9,1c-0.8-0.4-1.4-1-1.9-1.7
			c-0.7,0.7-1.6,1.2-2.5,1.6l-0.9-1c1-0.3,2-0.8,2.7-1.6c-0.4-0.8-0.7-1.6-0.9-2.4c-0.1,0.1-0.1,0.2-0.2,0.3l-1.1-0.6
			C240,36.3,240.7,34.7,240.8,32.9 M242.7,36.1h-1.5l-0.2,0.4c0.1,1,0.4,1.9,0.8,2.8C242.3,38.3,242.6,37.2,242.7,36.1 M236,31.9
			c-0.6,0-1,0.4-1,1V33h-0.4c-0.6,0-1,0.4-1,1v0.9c-0.2,0.2-0.3,0.5-0.3,0.7v1c0,0.4,0.3,0.8,0.7,1c-0.2,0.1-0.4,0.2-0.5,0.3
			c-0.3,0.2-0.5,0.5-0.5,0.8c0,0.3,0.1,0.7,0.3,0.9c0,0.2,0,0.3,0,0.5l0.3,1c0.1,0.5,0.4,0.9,0.9,1c0,0.1,0.1,0.2,0.1,0.3l0.5,1.1
			c0.2,0.3,0.5,0.6,0.9,0.6l0,0c0.8,0.1,1.7-0.2,2.3-0.8l0.3,0.3c0.2,0.2,0.5,0.3,0.8,0.3c0.1,0,0.3,0,0.4-0.1
			c0.7-0.3,1.4-0.7,2-1.1c0.4,0.5,0.9,0.9,1.5,1.2c0.1,0.1,0.3,0.1,0.5,0.1c0.3,0,0.6-0.1,0.8-0.3l0.9-1c0.2-0.2,0.3-0.5,0.2-0.8
			c-0.1-0.3-0.3-0.6-0.5-0.7c-0.4-0.2-0.9-0.5-1.2-0.8c0.5-1,0.9-2.1,1-3.2c0.4-0.1,0.7-0.5,0.7-1V35c0-0.6-0.4-1-1-1H243
			c0.2-0.2,0.3-0.5,0.3-0.7c0-0.6-0.5-1.1-1.1-1.1l-1.3-0.2h-0.1c-0.5,0-0.9,0.3-1,0.7l-0.6-0.3c-0.1,0-0.2-0.1-0.4-0.1
			c-0.1,0-0.3,0-0.4,0.1l0,0c-0.3-0.3-0.7-0.5-1.1-0.5L236,31.9L236,31.9z"/>
		<path class="st17" d="M257.7,43.7h-0.1c-1.3-0.3-2.5-0.8-3.5-1.7c-0.1-0.1-0.2-0.2-0.2-0.3c0-0.1,0-0.2,0.1-0.3h-0.7
			c0.1,0.1,0.1,0.2,0.1,0.4c0,0.3-0.3,0.6-0.6,0.6c0,0,0,0,0,0h-0.1l-0.1,0.1c-0.8,0.5-1.7,1-2.6,1.3c-0.1,0-0.1,0-0.2,0
			c-0.1,0-0.3-0.1-0.4-0.2l-1-1c-0.1-0.1-0.2-0.3-0.1-0.5c0-0.2,0.2-0.3,0.3-0.3c0.4-0.1,0.7-0.2,1.1-0.4l0,0
			c-0.3,0-0.5-0.2-0.5-0.5v-5c0-0.3,0.2-0.5,0.5-0.5h0.1v-2.3c0-0.3,0.2-0.5,0.5-0.5h6.8c0.3,0,0.5,0.2,0.5,0.5v2.4h0.2
			c0.3,0,0.5,0.2,0.5,0.5v5c0,0.3-0.2,0.5-0.5,0.5h-0.4c0.4,0.1,0.9,0.3,1.3,0.4c0.2,0,0.3,0.2,0.4,0.3c0.1,0.2,0,0.3-0.1,0.5
			l-0.9,1C258,43.6,257.9,43.7,257.7,43.7z"/>
		<path class="st18" d="M257.1,32.9v2.4h-6.8v-2.4H257.1 M251.7,34.4h3.9v-0.5h-3.9V34.4 M257.7,35.8v5h-2.4c0.9,0.7,2,1.1,3.2,1.3
			l-0.9,1c-1.2-0.3-2.4-0.8-3.3-1.6l0.7-0.8h-3.2l1,0.8c0,0,0.1,0.1,0.1,0.1c0,0.1-0.1,0.1-0.1,0.1c-0.2,0-0.3,0.1-0.5,0.2
			c-0.8,0.5-1.6,0.9-2.5,1.3l-1-1c1-0.3,1.9-0.7,2.8-1.4h-1.9v-5L257.7,35.8 M251.2,37.2h5.2v-0.5h-5.2L251.2,37.2 M251.2,38.5h5.2
			V38h-5.2V38.5 M251.2,39.9h5.2v-0.6h-5.2V39.9 M257.1,31.9h-6.8c-0.6,0-1,0.4-1,1c0,0,0,0,0,0v2c-0.4,0.2-0.6,0.5-0.6,0.9v5
			c0,0.1,0,0.2,0.1,0.3l-0.2,0.1c-0.5,0.2-0.8,0.7-0.7,1.2c0,0.2,0.1,0.3,0.2,0.4l1,1c0.2,0.2,0.4,0.3,0.7,0.3c0.1,0,0.2,0,0.4-0.1
			c0.9-0.3,1.8-0.8,2.7-1.3l0,0c0.3,0,0.7-0.2,0.9-0.4l0.1,0.1c1.1,0.9,2.4,1.5,3.7,1.8h0.2c0.3,0,0.6-0.1,0.8-0.4l0.9-1
			c0.2-0.3,0.3-0.7,0.2-1c-0.1-0.3-0.4-0.6-0.7-0.7h-0.1c0-0.1,0.1-0.2,0.1-0.3v-5c0-0.5-0.3-0.9-0.7-1v-1.9
			C258.1,32.4,257.6,31.9,257.1,31.9L257.1,31.9z"/>
		<path class="st17" d="M263,43.4c-0.3,0-0.5-0.2-0.5-0.5v-1.2c0-0.3,0.2-0.5,0.5-0.5h0.9c-0.2-0.1-0.3-0.3-0.3-0.5v-1.2
			c-0.2-0.2-0.3-0.5-0.3-0.8l-0.1-1c0-0.1,0-0.3,0.1-0.4c0.1-0.1,0.2-0.1,0.4-0.2h1.6c0,0,0-0.1,0.1-0.2h-0.7
			c-0.2,0-0.4-0.2-0.5-0.4h-1.3c-0.3,0-0.5-0.2-0.5-0.5v-2.4c0-0.3,0.2-0.5,0.5-0.5h3.8v-0.6c0-0.1,0.1-0.3,0.1-0.4
			c0.1-0.1,0.2-0.1,0.4-0.1h1.3c0.3,0,1,0,1,0.7c0,0.1,0,0.2-0.1,0.3h3.6c0.3,0,0.5,0.2,0.5,0.5v2.3c0,0.3-0.2,0.5-0.5,0.5h-1.3
			c0,0.2-0.1,0.3-0.3,0.4c0.4,0.3,0.8,0.7,1.4,1.2c0.1,0.1,0.2,0.2,0.2,0.4c0,0.1-0.1,0.3-0.2,0.4l-0.5,0.4c0,0.1,0,0.1,0,0.2v1.2
			c0,0.2-0.1,0.4-0.3,0.5h1.1c0.3,0,0.5,0.2,0.5,0.5v1.2c0,0.3-0.2,0.5-0.5,0.5L263,43.4z M268.2,37.2h0.3v-0.1L268.2,37.2
			L268.2,37.2z"/>
		<path class="st18" d="M267.3,32.8h1.3c0.3,0,0.6,0,0.6,0.2c0,0.1,0,0.1-0.1,0.1c-0.1,0.1-0.2,0.1-0.2,0.2v0.5h4.3v2.3h-1.3v-1.2
			h-7.5v1.3h-1.3v-2.4h4.3V32.8 M271.4,35.5v1.1h-1.3c0.9,0.6,1.7,1.3,2.5,2l-1.1,0.8c-0.3-0.3-0.6-0.6-0.9-0.9
			c-0.6,0.1-1.3,0.1-1.9,0.2h0.2c0.1,0,0.2,0.1,0.2,0.1s-0.1,0.2-0.2,0.2v0.5h3.1v1.2h-3.1v1h4.4v1.2H263v-1.1h4.4v-1h-3.3v-1.2h3.3
			v-0.7c-1.2,0.1-1.7,0.1-2.7,0.1c-0.3,0-0.3,0-0.4,0.1s-0.2,0.1-0.2,0.1s-0.2-0.3-0.2-0.5l-0.1-1h2c0.1-0.3,0.2-0.4,0.5-1.2h-1.5
			v-1.1H271.4 M269.6,36.6H268c-0.3,0.5-0.5,0.8-0.7,1.1c1,0,1.6-0.1,2.1-0.1c-0.2-0.1-0.2-0.2-0.4-0.3L269.6,36.6 M267.4,31.8
			c-0.3,0-0.5,0.1-0.7,0.3c-0.2,0.2-0.3,0.4-0.3,0.7v0.1h-3.3c-0.6,0-1,0.4-1,1v2.4c0,0.5,0.4,0.9,0.9,1c-0.1,0.2-0.1,0.4-0.1,0.6
			l0.1,1c0,0.3,0.1,0.7,0.3,0.9v1H263c-0.6,0-1,0.4-1,1v1.2c0,0.6,0.4,1,1,1h10.3c0.6,0,1-0.4,1-1v-1.2c0-0.6-0.4-1-1-1H273v-1.1
			l0.2-0.2c0.2-0.2,0.4-0.5,0.4-0.8c0-0.3-0.1-0.6-0.3-0.8c-0.3-0.3-0.6-0.5-0.8-0.7h0.7c0.6,0,1-0.4,1-1v-2.3c0-0.6-0.4-1-1-1h-3
			c-0.1-0.5-0.4-1-1.5-1L267.4,31.8L267.4,31.8z"/>
		<path d="M361.5,36.2v-5h5v5h-1.1V36h-2.7v0.2H361.5z M365.3,35L365.3,35z M364.4,35l-0.3-0.2l-0.3,0.2H364.4z M362.6,34.4
			c0.2-0.1,0.4-0.2,0.6-0.3c-0.1-0.1-0.3-0.2-0.4-0.2h-0.1V34.4z M364.9,33.9l0.5,0.4v-1.1C365.2,33.4,365,33.7,364.9,33.9
			L364.9,33.9z M362.6,33.5l0.2-0.3c-0.1-0.1-0.1-0.2-0.2-0.3V33.5z M363.6,33.1C363.6,33.1,363.6,33.1,363.6,33.1L363.6,33.1
			L363.6,33.1z M364.4,32.5c0-0.1,0-0.1,0.1-0.2h-0.2C364.4,32.3,364.4,32.4,364.4,32.5L364.4,32.5z"/>
		<path class="st18" d="M366.2,31.4v4.5h-0.6v-0.2h-3.2V36h-0.6v-4.6H366.2 M362.3,35.2h0.5l-0.5-0.5c0.4-0.1,0.8-0.3,1.2-0.7h0
			c-0.2-0.2-0.5-0.3-0.8-0.4l0.3-0.5c0.3,0.1,0.6,0.2,0.9,0.4c0.3-0.4,0.6-0.9,0.8-1.4l0.5,0.2c0.1,0,0.1,0.1,0.1,0.1s0,0-0.1,0.1
			s-0.1,0.1-0.2,0.1c-0.2,0.4-0.4,0.8-0.7,1.2c0.3,0.2,0.5,0.4,0.8,0.7l-0.5,0.5c-0.2-0.3-0.5-0.5-0.8-0.7c-0.3,0.3-0.7,0.6-1.1,0.8
			h2.6V32h-3.2L362.3,35.2 M364,32.1c0.2,0.3,0.3,0.5,0.4,0.8l-0.5,0.2c-0.1-0.3-0.2-0.5-0.4-0.8L364,32.1 M362.9,32.2
			c0.2,0.2,0.4,0.4,0.6,0.6l-0.4,0.3c-0.2-0.2-0.4-0.4-0.6-0.6L362.9,32.2 M366.7,30.9h-5.5v5.5h1.6v-0.2h2.2v0.2h1.6L366.7,30.9
			L366.7,30.9z"/>
		<path d="M370.2,36.2V36h-1.6v0.2h-1.1v-1.8h-0.6v-0.8h0.4v-0.5h0.2v-0.3h-0.5V32h0.6v-0.5h1.4v-0.4l0.9,0.1c0.3,0,0.4,0.2,0.4,0.3
			h1.3V32h0.6v0.8h-0.6v0.3h0.2v0.5h0.4v0.8h-0.6v1.7H370.2z"/>
		<path class="st18" d="M369,31.3l0.6,0c0,0,0.1,0,0.1,0.1s0,0,0,0.1s0,0,0,0v0.1h1.3v0.5h0.6v0.3H371v0.6h-1.4v0.2h1.6v0.4h-1.6
			v0.2h2v0.3H367v-0.3h2v-0.2h-1.6v-0.4h1.6v-0.2h-1.4v-0.4h1.4v-0.2h-2v-0.3h2V32h-1.4v-0.4h1.4V31.3 M369.6,32.2h0.8V32h-0.8V32.2
			 M369.6,32.8h0.8v-0.2h-0.8V32.8 M371,34.4V36h-0.6v-0.2h-2.1V36h-0.6v-1.6H371 M368.3,34.9h2.1v-0.2h-2.1V34.9 M368.3,35.5h2.1
			v-0.2h-2.1V35.5 M368.5,30.8v0.4h-1.4v0.5h-0.6v1.3h0.4v0.3h-0.4v1.3h0.6v1.8h1.6v-0.2h1.1v0.2h1.6v-1.8h0.6v-1.3h-0.4V33h0.4
			v-1.3h-0.6v-0.5h-1.3c-0.1-0.2-0.3-0.3-0.5-0.3l-0.6-0.1L368.5,30.8L368.5,30.8z"/>
		<path d="M360.1,43.3H359v-0.7h-0.3v-0.9h0.3v-0.6h0.3v-0.9h-0.6v-1h2v-0.4l1.1,0.1l0.1,0.3h1.9v1h-0.6v0.9h0.4v0.6h0.3v0.9h-0.3
			v0.8h-1.1v-0.2h-0.6v0.1c0,0.7-0.6,0.7-1.1,0.7h-0.2L360.1,43.3z"/>
		<path class="st18" d="M360.9,39.2l0.6,0.1c0,0,0.1,0,0.1,0s0,0-0.1,0.1s0,0,0,0v0.1h2V40h-2v0.2h1.3v1h-1.3v0.2h1.7V42h0.3v0.4
			h-0.3v0.8h-0.6v-0.2h-1.1v0.4c0,0.3-0.1,0.5-0.9,0.5l-0.3-0.6h0.4c0.1,0,0.2,0,0.2-0.1V43h-1.6v-0.4h1.6v-0.2h-2V42h2v-0.2h-1.6
			v-0.4h1.6v-0.2h-1.3v-1h1.3V40h-2v-0.5h2L360.9,39.2 M361.6,40.8h0.8v-0.3h-0.8V40.8 M360.2,40.8h0.8v-0.3h-0.8V40.8 M361.6,42
			h1.1v-0.2h-1.1V42 M361.6,42.7h1.1v-0.2h-1.1V42.7 M360.5,38.6V39h-2v1.5h0.6v0.4h-0.3v0.6h-0.3v1.4h0.3v0.7h1.2l0.3,0.6l0.1,0.3
			h0.3c0.4,0,1.3,0,1.4-0.8h0.1v0.2h1.6v-0.8h0.2v-1.4h-0.3v-0.6h-0.4v-0.4h0.7V39h-1.9c-0.1-0.1-0.2-0.2-0.4-0.3l-0.7-0.1
			L360.5,38.6L360.5,38.6z"/>
		<path d="M365.9,43.7c-0.1,0.4-0.5,0.5-1.1,0.5h-0.2l-0.4-1h0.2l-0.8-0.3l0.2-0.3c0.3-0.3,0.5-0.6,0.7-1h-0.6v-1h0.2l0,0l0.2-0.4
			h-0.2v-1h2.3l0.3,0.2c0-0.1,0.1-0.2,0.1-0.2l0.1-0.2l1,0.2l0,0.2h1.3v1h-0.4c-0.1,0.2-0.2,0.3-0.3,0.5c0.2,0.1,0.5,0.2,0.8,0.2
			h0.5l-0.6,0.7h0V42c0,0.5-0.1,1.1-0.2,1.6c-0.2,0.4-0.6,0.5-1.1,0.5h-0.2l-0.2-0.5c-0.2,0.2-0.4,0.4-0.7,0.5l-0.1,0.1L365.9,43.7z
			 M366,43.3L366,43.3c0.4-0.1,0.6-0.3,0.8-0.5h-0.5v-0.5l-0.3-0.1V43.3z M364.9,43.1L364.9,43.1L364.9,43.1L364.9,43.1z M368,43.1
			c0,0,0-0.1,0-0.3h0c0,0.1-0.1,0.2-0.1,0.3H368z M366.9,40.9L366.9,40.9c0,0,0.1,0,0.1-0.1l-0.1-0.2l-0.1,0.1L366.9,40.9z"/>
		<path class="st18" d="M367,39.2l0.6,0.1h0.1v0c0,0-0.1,0-0.1,0.1l-0.1,0.1h1.5V40h-0.4c-0.1,0.3-0.3,0.6-0.5,0.8
			c0.3,0.2,0.7,0.3,1.1,0.3l-0.4,0.5c-0.4,0-0.8-0.2-1.1-0.4c-0.1,0.1-0.3,0.2-0.4,0.3l0.7,0.1c0,0,0,0,0,0s0,0,0,0
			s-0.1,0.1-0.1,0.1s0,0.1,0,0.2h1c0,0.5-0.1,1-0.2,1.5c-0.1,0.3-0.4,0.3-0.9,0.3l-0.2-0.5h0.4c0.1,0,0.2,0,0.2-0.1
			c0.1-0.2,0.1-0.5,0.1-0.7h-0.5c-0.1,0.3-0.3,0.6-0.5,0.8c-0.2,0.2-0.4,0.4-0.7,0.6l-0.5-0.4c0.5-0.2,0.8-0.5,1-1h-0.7V42h0.8
			c0-0.1,0-0.3,0-0.4c-0.1,0.1-0.3,0.1-0.5,0.2l-0.4-0.4c-0.1,0.2-0.2,0.4-0.3,0.6l-0.4-0.2c0.1-0.2,0.2-0.3,0.2-0.5h-0.3v2
			c0,0.6-0.1,0.7-0.9,0.7l-0.2-0.5h0.5c0.1,0,0.2,0,0.2-0.2v-1c-0.1,0.3-0.3,0.5-0.5,0.7l-0.5-0.2c0.4-0.4,0.7-0.9,0.9-1.4h-0.7
			v-0.5h1c-0.2-0.1-0.5-0.3-0.7-0.4l0.2-0.4l0.5,0.2c0.1-0.1,0.2-0.2,0.3-0.3h-1.2v-0.5h1.9l0.2,0.2c-0.3,0.3-0.5,0.6-0.8,0.8
			c0.1,0,0.1,0.1,0.2,0.1l-0.1,0.2h0.5l0.3,0.3c0,0.1-0.1,0.2-0.1,0.3c0.3,0,0.6-0.1,0.9-0.3c-0.2-0.2-0.3-0.4-0.4-0.7
			c0,0.1-0.2,0.2-0.3,0.3l-0.5-0.3C366.6,40.1,366.9,39.7,367,39.2 M368.1,40.1h-0.6c0,0.2,0.1,0.4,0.3,0.5
			C367.9,40.5,368,40.3,368.1,40.1 M366.8,38.6l-0.1,0.3l-0.1-0.1H364v1.4h-0.1v1.5h0.4c-0.1,0.2-0.3,0.4-0.4,0.6l-0.5,0.5l0.6,0.3
			h0.1l0.1,0.4l0.2,0.6l0.1,0.3h0.4c0.4,0.1,0.9-0.1,1.2-0.3l0.3,0.2l0.3,0.2l0.3-0.2c0.2-0.1,0.3-0.2,0.5-0.3l0,0l0.1,0.3h0.3
			c0.4,0,1.1,0,1.4-0.6c0.2-0.6,0.3-1.1,0.3-1.7v-0.2l0.2-0.2l0.6-0.7l-0.9-0.1c-0.1,0-0.3,0-0.4-0.1l0.1-0.1h0.5v-1.5h-1.4
			c-0.1-0.1-0.2-0.2-0.3-0.2l-0.6-0.2L366.8,38.6L366.8,38.6z"/>
		<path d="M369.5,44v-1h0.5v-0.7c-0.1-0.1-0.1-0.2-0.1-0.4v-0.7h1l0,0h-0.5V41h-0.8v-1.6h1.9V39h0.8c0.1,0,0.5,0,0.5,0.3v0.1l0,0
			h1.8V41h-0.8v0.2h-0.1l0.5,0.5l0.2,0.2l-0.4,0.3V43h0.6v1H369.5z"/>
		<path class="st18" d="M371.7,39.2h0.6c0.1,0,0.3,0,0.3,0.1s0,0,0,0.1s-0.1,0.1-0.1,0.1v0.2h1.9v1h-0.6v-0.5h-3.4v0.6h-0.6v-1h1.9
			L371.7,39.2 M373.6,40.4v0.5H373c0.4,0.3,0.8,0.6,1.1,0.9l-0.5,0.4c-0.1-0.1-0.3-0.3-0.4-0.4l-0.8,0.1h0.1c0,0,0.1,0,0.1,0.1
			s-0.1,0.1-0.1,0.1v0.2h1.4v0.5h-1.4v0.4h2v0.5h-4.6v-0.5h2v-0.4h-1.5v-0.5h1.5v-0.3c-0.5,0-0.8,0-1.2,0.1c-0.1,0-0.1,0-0.2,0
			s-0.1,0.1-0.1,0.1s-0.1-0.1-0.1-0.2v-0.4h0.8l0.2-0.5h-0.7v-0.5L373.6,40.4 M372.7,40.9H372l-0.3,0.5c0.5,0,0.7,0,1,0l-0.2-0.1
			L372.7,40.9 M371.3,38.7v0.5h-1.9v2.1h0.3v0.2v0.4c0,0.2,0,0.3,0.1,0.4v0.4h-0.5v1.5h5.6v-1.5h-0.6v-0.4l0.1-0.1l0.5-0.4l-0.5-0.4
			l-0.3-0.2h0.7v-2H373c0-0.2-0.2-0.5-0.7-0.5L371.3,38.7L371.3,38.7z"/>
		<path class="st17" d="M381.4,17.6h-2.3c-0.9,0-1.1-0.3-1.3-0.5c-0.2,0.2-0.3,0.3-0.5,0.5c-0.1,0.1-0.1,0.1-0.1,0.1s0,0.1,0,0.1
			s-0.1,0-0.1-0.1l-0.3-0.5c0.2-0.1,0.5-0.2,0.7-0.3v-1.3H377V15h1.2v1.6c0,0.5,0.5,0.6,1.1,0.6c0.3,0,1.2,0,2.4-0.1L381.4,17.6z
			 M377.7,14.2c-0.2-0.3-0.4-0.5-0.6-0.7l0.4-0.3c0.3,0.2,0.5,0.4,0.7,0.7L377.7,14.2z M380.1,13.8V14h1.1v1.7h-1.1V16h1.4v0.5h-1.4
			v0.4h-0.6v-0.4h-1.2V16h1.2v-0.3h-1V14h1v-0.3h-1.3v-0.4h1.3V13h0.5c0.1,0,0.1,0,0.1,0.1c0,0,0,0,0,0.1c0,0-0.1,0-0.1,0.1v0.1h1.4
			v0.4L380.1,13.8z M379.5,14.4h-0.5v0.3h0.5V14.4z M379.5,15.1h-0.5v0.3h0.5V15.1z M380.6,14.4h-0.5v0.3h0.5V14.4z M380.6,15.1
			h-0.5v0.3h0.5V15.1z"/>
		<path class="st17" d="M382.8,15.9L382.8,15.9c0,0.4-0.1,0.8-0.2,1.2l-0.5,0c0.1-0.4,0.2-0.9,0.2-1.3l0.5,0.1
			C382.8,15.8,382.9,15.8,382.8,15.9C382.9,15.9,382.9,15.9,382.8,15.9z M386.8,15.9l-0.2-0.1v1.8H386v-0.1h-0.9v0.1h-0.6v-1.8l0,0
			l-0.2-0.3l-0.4,0.1c0-0.1,0-0.1,0-0.2h-0.3v2.1H383v-2.1h-0.3c-0.1,0-0.1,0-0.2,0c0,0-0.1,0-0.1,0.1c0,0,0,0-0.1-0.1l-0.1-0.5h0.5
			c0.1-0.1,0.2-0.3,0.3-0.4c-0.2-0.2-0.5-0.4-0.8-0.6l0.3-0.4l0.3,0.2c0.2-0.3,0.3-0.5,0.5-0.8l0.5,0.2c0.1,0,0.1,0.1,0.1,0.1
			s0,0.1-0.1,0.1c0,0-0.1,0-0.1,0c-0.1,0.2-0.3,0.4-0.5,0.7l0.2,0.1c0.2-0.2,0.3-0.4,0.4-0.7l0.4,0.2c0,0,0.1,0.1,0.1,0.1
			s0,0.1-0.1,0.1s-0.1,0-0.1,0.1c-0.2,0.4-0.5,0.7-0.8,1h0.4l-0.1-0.3l0.5-0.2c0.1,0.2,0.2,0.4,0.3,0.7c0.3-0.1,0.6-0.3,0.8-0.5
			c-0.1-0.1-0.2-0.3-0.3-0.4c-0.1,0.1-0.2,0.3-0.4,0.4l-0.4-0.3c0.4-0.4,0.7-0.9,0.8-1.4l0.6,0.1c0,0,0.1,0,0.1,0.1s0,0.1-0.1,0.1
			h-0.1l-0.1,0.2h0.9l0.3,0.2c-0.2,0.4-0.4,0.8-0.7,1.2c0.3,0.3,0.8,0.5,1.2,0.6L386.8,15.9z M383.9,17c-0.1-0.4-0.2-0.7-0.2-1.1
			l0.5-0.1c0,0.3,0.1,0.7,0.3,1L383.9,17z M385.6,15.2c-0.2,0.2-0.5,0.4-0.8,0.6h1.6C386.1,15.6,385.8,15.4,385.6,15.2L385.6,15.2z
			 M386,16.3h-0.9V17h0.9L386,16.3z M385.3,14c0.1,0.2,0.1,0.4,0.3,0.5c0.1-0.1,0.2-0.3,0.3-0.5H385.3z"/>
		<path class="st17" d="M388.5,14c0.1,1,0,1.9-0.2,2.9h0.4v-2.5h0.5v-0.3h0.5c0.1,0,0.1,0,0.1,0.1s0,0,0,0.1s0,0,0,0.1v0.1h0.6v1.8
			h-1.1v0.6c0.1,0,0.2,0,0.3-0.1c0-0.1-0.1-0.2-0.2-0.3l0.5-0.2c0.2,0.4,0.4,0.7,0.5,1.1l-0.5,0.2c0-0.1-0.1-0.2-0.1-0.4
			c-0.3,0.1-0.5,0.1-0.9,0.2l-0.2,0.1c0,0-0.1,0.1-0.1,0.1s-0.1-0.1-0.1-0.1l-0.1-0.5c-0.1,0.3-0.2,0.5-0.3,0.8l-0.6-0.2
			c0.4-0.8,0.6-1.8,0.5-2.7c0-0.4,0-0.9-0.1-1.3h1.7V13h0.6c0,0,0.2,0,0.2,0.1s0,0-0.1,0.1s-0.1,0-0.1,0.1v0.2h2V14H388.5z
			 M389.9,14.8h-0.6V15h0.6V14.8z M389.9,15.4h-0.6v0.3h0.6V15.4z M392,17.1c-0.2,0.1-0.4,0.2-0.6,0.2l-0.3-0.5v0.9h-0.6v-3.4h1.5
			l0.3,0.2c-0.2,0.5-0.4,0.9-0.5,1.1c0.3,0.2,0.5,0.6,0.6,1C392.3,16.8,392.2,17,392,17.1z M391.2,15.6c0.1-0.3,0.2-0.4,0.3-0.8
			h-0.4v1.9c0.1,0,0.2,0,0.3,0c0.2,0,0.3-0.1,0.4-0.3c0,0,0,0,0,0C391.8,16.1,391.4,15.8,391.2,15.6L391.2,15.6z"/>
		<path class="st17" d="M395.5,13.8v0.6c0.6,0.4,1.2,0.8,1.6,1.3l-0.5,0.5c-0.3-0.4-0.7-0.7-1.2-1v2.6h-0.7v-3.9h-1.8v-0.6h4.6v0.6
			H395.5z"/>
		<path class="st17" d="M428.8,16.3v-0.7h-3.3v-0.3h3.3v-0.7l1.5,0.9L428.8,16.3z"/>
		<path class="st17" d="M434.8,16.3v-0.2h-1.2v1.5h-0.6v-1.5h-1.2v0.2H431v-2.4h1.9V13l0.7,0.1c0,0,0.1,0,0.1,0.1s0,0.1-0.1,0.1
			s-0.1,0-0.1,0.1v0.6h1.9v2.4L434.8,16.3z M432.9,14.5h-1.2v1h1.2V14.5z M434.8,14.5h-1.2v1h1.2V14.5z"/>
		<path class="st17" d="M440.2,15.3v-0.6H437v0.7h-0.6v-1.2h2.7c0.3-0.3,0.5-0.6,0.7-1l0.5,0.2c0,0,0.1,0,0.1,0.1s0,0,0,0
			s-0.1,0.1-0.2,0.1c-0.1,0.2-0.3,0.4-0.4,0.6h1v1.1L440.2,15.3z M438.9,16.5v0.8c0,0.4-0.3,0.5-0.6,0.5h-0.3l-0.2-0.6h0.4
			c0.1,0,0.1-0.1,0.1-0.2v-0.6h-1.9v-0.5h1.9v-0.3l0.3,0.1c0.1-0.1,0.1-0.1,0.2-0.2h-1.4v-0.5h2.5l0.1,0.2c-0.3,0.2-0.7,0.6-1,0.8
			h1.8v0.5L438.9,16.5z M437.2,14.1c-0.1-0.3-0.3-0.5-0.5-0.7l0.5-0.3c0.2,0.2,0.4,0.4,0.5,0.7L437.2,14.1z M438.5,14
			c-0.1-0.3-0.3-0.5-0.5-0.8l0.5-0.3c0.2,0.2,0.4,0.5,0.5,0.8L438.5,14z"/>
		<path class="st17" d="M446.1,17.4c-0.3-0.3-0.6-0.6-0.9-1v1.2h-0.6v-1.2c-0.3,0.4-0.6,0.8-1,1.1l-0.5-0.4c0.6-0.2,1-0.7,1.3-1.2
			h-0.8v-1.7h1V14h-1.1v0.4h-0.6c0.1,0.4,0.4,0.7,0.7,1l-0.4,0.4c-0.1-0.1-0.2-0.3-0.3-0.5v2.4h-0.6v-1.9c-0.1,0.3-0.2,0.5-0.4,0.8
			l-0.5-0.3c0.4-0.6,0.7-1.2,0.8-1.9h-0.6v-0.6h0.7V13h0.6c0.1,0,0.1,0,0.1,0.1s0,0,0,0.1s-0.1,0.1-0.1,0.1v0.5h0.5v-0.3h1.2V13h0.6
			c0.1,0,0.1,0,0.1,0.1s0,0,0,0s-0.1,0.1-0.1,0.1v0.2h1.1V14h-1.2v0.2h1V16h-0.8c0.1,0.2,0.3,0.4,0.5,0.6c0.2,0.2,0.5,0.4,0.7,0.5
			L446.1,17.4z M444.6,14.6h-0.5v0.3h0.5V14.6z M444.6,15.3h-0.5v0.3h0.5V15.3z M445.7,14.6h-0.5v0.3h0.5V14.6z M445.7,15.3h-0.5
			v0.3h0.5V15.3z"/>
		<path class="st17" d="M157.5,53.3v-4h3v0.6h-2.3v1h2.1v0.6h-2.1v1.2h2.4v0.6L157.5,53.3z"/>
		<path class="st17" d="M163,53.3h-0.7l-1.4-4h0.8l0.9,2.7l0.1,0.5l0.1-0.5l0.9-2.7h0.8L163,53.3z"/>
		<path class="st17" d="M63.5,137.1c-0.8,0-1.6-0.3-2.2-0.9c-0.5-0.6-0.8-1.3-0.8-2.1h1.6c0,1.2,0.7,1.6,1.4,1.6
			c0.8,0,1.4-0.6,1.4-1.3c0-0.1,0-0.1,0-0.2c0-1-0.6-1.4-1.6-1.4h-0.7v-1.1h0.7c0.7,0,1.3-0.5,1.4-1.2c0,0,0-0.1,0-0.1
			c0-0.6-0.4-1.2-1.1-1.2c-0.1,0-0.1,0-0.2,0c-0.7,0-1.3,0.5-1.4,1.3c0,0.1,0,0.1,0,0.2h-1.4c0-0.6,0.1-1.1,0.4-1.6
			c0.6-0.8,1.5-1.3,2.5-1.3c1.4-0.1,2.6,0.9,2.7,2.2c0,0,0,0,0,0c0.1,0.7-0.3,1.5-1,1.8c0.8,0.4,1.3,1.2,1.3,2.1
			c0,1.6-1.3,2.9-2.9,2.8C63.6,137.1,63.6,137.1,63.5,137.1z"/>
		<path class="st17" d="M67.3,134.4V133h3v1.4L67.3,134.4z"/>
		<path class="st17" d="M73.5,137v-6.1h-2.4v-1.1h0.7c0.9,0,1.7-0.6,1.9-1.5H75v8.8H73.5z"/>
		<path class="st17" d="M102.3,137.1c-0.8,0-1.6-0.3-2.2-0.9c-0.5-0.6-0.8-1.3-0.8-2.1h1.6c0,1.2,0.7,1.6,1.4,1.6
			c0.8,0,1.4-0.6,1.4-1.3c0-0.1,0-0.1,0-0.2c0-1-0.6-1.4-1.6-1.4h-0.7v-1.1h0.7c0.7,0,1.3-0.5,1.4-1.2c0,0,0-0.1,0-0.1
			c0-0.6-0.5-1.2-1.1-1.2c-0.1,0-0.1,0-0.2,0c-0.7,0-1.3,0.5-1.4,1.3c0,0.1,0,0.2,0,0.2h-1.5c0-0.6,0.1-1.1,0.4-1.6
			c0.6-0.8,1.5-1.3,2.5-1.3c1.4-0.1,2.6,0.9,2.7,2.2c0,0,0,0,0,0c0.1,0.7-0.3,1.5-1,1.8c0.8,0.4,1.3,1.2,1.3,2.1
			c0,1.6-1.3,2.9-2.9,2.8C102.5,137.2,102.4,137.1,102.3,137.1z"/>
		<path class="st17" d="M106.1,134.4V133h3v1.4L106.1,134.4z"/>
		<path class="st17" d="M109.8,137c0.2-1.6,0.8-2.5,2.7-3.9c1.3-0.9,1.7-1.4,1.7-2.2c0-0.8-0.5-1.4-1.3-1.4c0,0-0.1,0-0.1,0
			c-1.2,0-1.2,1.3-1.3,1.9H110c0-0.8,0.1-3.2,2.8-3.2c1.5-0.1,2.9,1,3,2.6c0,0.1,0,0.2,0,0.2c0,1.4-1,2.2-2.1,3
			c-0.8,0.4-1.4,1.1-1.8,1.9h4.1v1.3H109.8z"/>
		<path class="st17" d="M160.9,137.1c-0.8,0-1.6-0.3-2.2-0.9c-0.5-0.6-0.8-1.3-0.8-2.1h1.6c0.1,1.2,0.7,1.6,1.4,1.6
			c0.8,0,1.4-0.6,1.4-1.3c0-0.1,0-0.1,0-0.2c0-1-0.6-1.4-1.6-1.4h-0.7v-1.1h0.7c0.7,0,1.3-0.5,1.4-1.2c0,0,0-0.1,0-0.1
			c0-0.6-0.5-1.2-1.1-1.2c-0.1,0-0.1,0-0.2,0c-0.7,0-1.3,0.5-1.4,1.3c0,0.1,0,0.1,0,0.2h-1.4c0-0.6,0.1-1.1,0.4-1.6
			c0.6-0.8,1.5-1.3,2.5-1.3c1.4-0.1,2.6,0.9,2.7,2.2c0,0,0,0,0,0c0.1,0.7-0.3,1.5-1,1.8c0.8,0.4,1.3,1.2,1.3,2.1
			c0,1.6-1.3,2.9-2.9,2.8C161.1,137.2,161,137.1,160.9,137.1z"/>
		<path class="st17" d="M164.7,134.4V133h3v1.4L164.7,134.4z"/>
		<path class="st17" d="M171.4,137.1c-0.8,0-1.6-0.3-2.2-0.9c-0.5-0.6-0.8-1.3-0.8-2.1h1.6c0,1.2,0.7,1.6,1.4,1.6
			c0.8,0,1.4-0.6,1.4-1.3c0-0.1,0-0.1,0-0.2c0-1-0.6-1.4-1.6-1.4h-0.7v-1.1h0.7c0.7,0,1.3-0.5,1.4-1.2c0,0,0-0.1,0-0.1
			c0-0.6-0.4-1.2-1.1-1.2c-0.1,0-0.1,0-0.2,0c-0.7,0-1.3,0.5-1.4,1.3c0,0.1,0,0.1,0,0.2h-1.4c0-0.6,0.1-1.1,0.4-1.6
			c0.6-0.8,1.5-1.3,2.5-1.3c1.4-0.1,2.6,0.9,2.7,2.2c0,0,0,0,0,0c0.1,0.7-0.3,1.5-1,1.8c0.8,0.4,1.3,1.2,1.3,2.1
			c0,1.6-1.3,2.9-2.9,2.8C171.5,137.2,171.4,137.1,171.4,137.1z"/>
		<path class="st17" d="M199.7,137.1c-0.8,0-1.6-0.3-2.2-0.9c-0.5-0.6-0.8-1.3-0.8-2.1h1.6c0.1,1.2,0.7,1.6,1.4,1.6
			c0.8,0,1.4-0.6,1.4-1.3c0-0.1,0-0.1,0-0.2c0-1-0.6-1.4-1.6-1.4h-0.7v-1.1h0.7c0.7,0.1,1.3-0.4,1.4-1.1c0,0,0-0.1,0-0.1
			c0-0.6-0.4-1.2-1.1-1.2c-0.1,0-0.1,0-0.2,0c-0.7,0-1.3,0.5-1.4,1.3c0,0.1,0,0.1,0,0.2h-1.5c0-0.6,0.1-1.1,0.4-1.6
			c0.6-0.8,1.5-1.3,2.5-1.3c1.4-0.1,2.6,0.9,2.7,2.2c0,0,0,0,0,0c0.1,0.7-0.3,1.5-1,1.8c0.8,0.4,1.3,1.2,1.3,2.1
			c0,1.6-1.3,2.9-2.9,2.8C199.9,137.1,199.8,137.1,199.7,137.1z"/>
		<path class="st17" d="M203.5,134.4V133h3v1.4L203.5,134.4z"/>
		<path class="st17" d="M212.2,135.1v1.9h-1.6v-1.9H207v-1.3l3.5-5.6h1.8v5.7h1.2v1.2L212.2,135.1z M210.5,130.1l-2.2,3.6L208,134
			l0.3-0.1h2.4v-3.6l0.1-0.8L210.5,130.1z"/>
		<path class="st17" d="M238.5,137.1c-0.8,0-1.6-0.3-2.2-0.9c-0.5-0.6-0.8-1.3-0.8-2.1h1.6c0,1.2,0.7,1.6,1.4,1.6
			c0.8,0,1.4-0.6,1.4-1.3c0-0.1,0-0.1,0-0.2c0-1-0.6-1.4-1.6-1.4h-0.7v-1.1h0.7c0.7,0,1.3-0.5,1.4-1.2c0,0,0-0.1,0-0.1
			c0-0.6-0.5-1.2-1.1-1.2c-0.1,0-0.1,0-0.2,0c-0.7,0-1.3,0.5-1.4,1.3c0,0.1,0,0.2,0,0.2h-1.4c0-0.6,0.1-1.1,0.4-1.6
			c0.6-0.8,1.5-1.3,2.5-1.3c1.4-0.1,2.6,0.9,2.7,2.3c0,0,0,0,0,0c0.1,0.7-0.3,1.5-1,1.8c0.8,0.4,1.3,1.2,1.3,2.1
			c0,1.6-1.3,2.9-2.9,2.8C238.7,137.2,238.6,137.1,238.5,137.1z"/>
		<path class="st17" d="M242.3,134.4V133h3v1.4L242.3,134.4z"/>
		<path class="st17" d="M249,137.1c-1.5,0.1-2.9-1-3-2.5c0,0,0,0,0,0h1.6c0.1,0.7,0.7,1.2,1.4,1.2c0.8,0,1.4-0.6,1.4-1.4
			c0-0.1,0-0.1,0-0.2c0.1-0.8-0.5-1.6-1.4-1.7c0,0-0.1,0-0.1,0c-0.5,0-1,0.3-1.1,0.8l-1.5-0.1l0.6-4.9h4.9v1.3H248l-0.2,1.7
			l-0.1,0.6c0.4-0.5,1-0.7,1.6-0.7c1.5,0,2.8,1.2,2.8,2.8c0,0,0,0.1,0,0.1c0.1,1.6-1.2,3-2.8,3.1C249.2,137.1,249.1,137.1,249,137.1
			z"/>
		<path class="st17" d="M277.3,137.1c-0.8,0-1.6-0.3-2.2-0.9c-0.5-0.6-0.8-1.3-0.8-2.1h1.6c0,1.2,0.7,1.6,1.4,1.6
			c0.8,0,1.4-0.6,1.4-1.3c0-0.1,0-0.1,0-0.2c0-1-0.6-1.4-1.6-1.4h-0.7v-1.1h0.7c0.7,0,1.3-0.5,1.4-1.2c0,0,0-0.1,0-0.1
			c0-0.6-0.5-1.2-1.1-1.2c-0.1,0-0.1,0-0.2,0c-0.7,0-1.3,0.5-1.4,1.3c0,0.1,0,0.1,0,0.2h-1.5c0-1.5,1.2-2.8,2.7-2.8
			c0.1,0,0.1,0,0.2,0c1.4-0.1,2.6,0.9,2.7,2.2c0,0,0,0,0,0c0.1,0.7-0.3,1.5-1,1.8c0.8,0.4,1.3,1.2,1.3,2.1c0,1.6-1.3,2.9-2.9,2.8
			C277.5,137.2,277.4,137.2,277.3,137.1z"/>
		<path class="st17" d="M281.1,134.4V133h3v1.4L281.1,134.4z"/>
		<path class="st17" d="M287.9,137.1c-2.4,0-3.1-2.3-3.1-4.1c0-0.9,0.1-4.9,3.2-4.9c0.7,0,1.4,0.3,1.9,0.7c0.4,0.4,0.7,1,0.8,1.6
			h-1.6c0-0.6-0.5-1-1.1-1c-1.3,0-1.5,1.5-1.6,2.7c0.4-0.6,1.1-1,1.8-0.9c1.5,0,2.7,1.3,2.7,2.8c0,0,0,0,0,0.1
			C290.9,135.7,289.6,137.1,287.9,137.1C287.9,137.1,287.9,137.1,287.9,137.1z M287.9,132.5c-0.8,0-1.5,0.8-1.4,1.6c0,0,0,0,0,0.1
			c-0.1,0.8,0.5,1.5,1.3,1.6c0,0,0.1,0,0.1,0c0.8,0,1.4-0.7,1.4-1.4c0-0.1,0-0.1,0-0.2C289.2,133.2,288.7,132.5,287.9,132.5z"/>
		<path class="st17" d="M335.9,137.1c-0.8,0-1.6-0.3-2.2-0.9c-0.5-0.6-0.8-1.3-0.8-2.1h1.6c0,1.2,0.7,1.6,1.4,1.6
			c0.8,0,1.4-0.6,1.4-1.3c0-0.1,0-0.1,0-0.2c0-1-0.6-1.4-1.6-1.4h-0.7v-1.1h0.7c0.7,0,1.3-0.5,1.4-1.2c0,0,0-0.1,0-0.1
			c0-0.6-0.5-1.2-1.1-1.2c-0.1,0-0.1,0-0.2,0c-0.7,0-1.3,0.6-1.4,1.3c0,0.1,0,0.1,0,0.2h-1.5c0-0.6,0.1-1.1,0.5-1.6
			c0.6-0.8,1.5-1.3,2.5-1.3c1.4-0.1,2.6,0.9,2.7,2.2c0,0,0,0,0,0c0.1,0.7-0.3,1.5-1,1.8c0.8,0.4,1.3,1.2,1.3,2.1
			c0,1.6-1.3,2.9-2.9,2.8C336.1,137.1,336,137.1,335.9,137.1z"/>
		<path class="st17" d="M339.7,134.4V133h3v1.4L339.7,134.4z"/>
		<path class="st17" d="M347.3,133c-0.5,1.3-0.8,2.6-0.9,3.9h-1.7c0.1-1.2,0.3-2.4,0.8-3.6c0.5-1.5,1.4-2.8,2.5-3.8h-0.5h-4.3v-1.4
			h6.4v1.4C348.6,130.5,347.8,131.7,347.3,133z"/>
		<path class="st17" d="M375.7,137.4h-5.2c-2.4,0-2.7-0.6-3.2-1.2c-0.1,0.2-0.2,0.2-0.4,0.4c-0.1,0.1-0.6,0.5-0.6,0.6
			s-0.1,0.3-0.1,0.3s-0.1-0.1-0.2-0.1l-0.7-1.2c0.5-0.2,1-0.5,1.5-0.9v-2.6h-1.1v-1.1h2.5v3.5c0,0.8,0.6,1.2,2.3,1.2
			c1.4,0,2.7,0,4.1-0.1c-0.8-0.3-1.5-0.7-2.1-1.2l0.5-0.6h-1.8l0.5,0.6c0,0,0.1,0.1,0.1,0.1c0,0.1,0,0.1-0.3,0.1
			c-0.6,0.4-1.2,0.7-1.8,1l-0.7-0.9c0.6-0.2,1.2-0.5,1.7-0.9h-1.9v-0.9h1.6v-0.6h-1.5V132h1.5v-0.6h-0.6c-0.6,0-1,0-1-0.5V129h1.9
			v-0.6h-1.9v-0.9h3v2.4h-1.9v0.4c0,0.3,0.1,0.4,0.3,0.4h0.7c0.3,0,0.5-0.4,0.5-0.6l0.8,0.4c0,0.2-0.1,0.5-0.2,0.7
			c-0.1,0.3-0.3,0.3-0.6,0.3h0.4c0.1,0,0.2,0.1,0.2,0.1s-0.1,0.1-0.2,0.2v0.3h1.2v-0.6c-0.1,0-0.2-0.1-0.3-0.1
			c-0.1-0.1-0.2-0.2-0.2-0.4v-1.8h1.9v-0.6h-1.9v-1h3.1v2.4h-2v0.4c0,0.2,0.1,0.3,0.3,0.3h0.7c0.4,0,0.6-0.5,0.6-0.7l0.9,0.4
			c-0.1,0.9-0.7,1-1.4,1H374c0.1,0,0.2,0,0.2,0.1s-0.2,0.1-0.3,0.1v0.3h1.6v0.9h-1.6v0.6h1.9v0.9h-2.5c0.6,0.4,1.2,0.7,1.9,0.9
			l-0.6,0.9c0.5,0,1,0,1.5-0.1L375.7,137.4z M367,130c-0.4-0.6-0.9-1.2-1.5-1.6l0.9-1c0.6,0.4,1.1,1,1.5,1.6L367,130z M372.6,132.9
			h-1.2v0.6h1.2V132.9z"/>
		<path class="st17" d="M386.8,137.6c-0.8-0.7-1.5-1.5-2.1-2.4c-0.6-1-0.9-2.1-1.1-3.2h-0.4c-0.1,2-0.6,3.9-1.6,5.6l-1.4-0.5
			c-0.5,0.4-1.1,0.6-1.7,0.5l-0.7-1.4c0.2,0,0.5,0.1,0.7,0.1c0.4,0,0.5-0.1,0.5-0.4v-2.1l-0.7,0.2c-0.1,0.1-0.1,0.1-0.2,0.1
			c-0.2,0.3-0.2,0.3-0.3,0.3s-0.2,0-0.2-0.4l-0.2-1.3c0.5-0.1,1-0.2,1.5-0.4v-2h-1.4V129h1.4v-1.8h1.3c0.1,0,0.4,0,0.4,0.2
			s0,0.1-0.2,0.2s-0.2,0.2-0.2,0.2v1.2h1.1v1.3h-1.1v1.7c0.6-0.2,0.9-0.2,1.1-0.3v1.2c-0.3,0.1-0.6,0.2-1.1,0.3v3.6
			c1.1-2,1.5-3.8,1.5-7.1c0-0.7,0-1.8,0-2.2h5.6v4.5H385c0.4,1.9,1.6,3.6,3.2,4.6L386.8,137.6z M386.1,128.7h-2.8v2.1h2.8V128.7z"/>
		<path class="st17" d="M391.8,137.1c-0.7,0-1.4-0.3-1.9-0.7c-0.5-0.4-0.7-1-0.8-1.6h1.6c0,0.6,0.5,1,1.1,1c1.3,0,1.5-1.6,1.6-2.7
			c-0.4,0.6-1.1,1-1.8,0.9c-1.5,0-2.7-1.3-2.7-2.8c0,0,0,0,0-0.1c-0.1-1.7,1.2-3.1,2.9-3.1c0,0,0,0,0,0c2.4,0,3.1,2.3,3.1,4.1
			C395,133.1,394.9,137.1,391.8,137.1z M392,129.5c-0.8,0-1.4,0.6-1.4,1.4c0,0.1,0,0.1,0,0.2c0,0.9,0.5,1.6,1.3,1.6
			c0.8,0,1.5-0.7,1.5-1.6c0,0,0,0,0-0.1c0.1-0.8-0.5-1.5-1.3-1.6C392.1,129.5,392,129.5,392,129.5L392,129.5z"/>
		<path class="st17" d="M656.6,145.9v-6.1h-2.4v-1.1h0.7c0.9,0,1.7-0.6,1.9-1.5h1.3v8.8L656.6,145.9z"/>
		<path class="st17" d="M660.8,143.4V142h3v1.4L660.8,143.4z"/>
		<path class="st17" d="M671.3,145.9l-0.7-1.9H667l-0.7,1.9h-1.8l3.4-8.8h1.8l3.3,8.8H671.3z M669,139.3l-0.2-0.8l-0.2,0.8l-1.2,3.4
			h2.7L669,139.3z"/>
		<path class="st17" d="M657.1,110.2v-6.1h-2.4V103h0.7c0.9,0,1.7-0.6,1.9-1.5h1.3v8.8L657.1,110.2z"/>
		<path class="st17" d="M661.3,107.7v-1.4h3v1.4H661.3z"/>
		<path class="st17" d="M669.7,110.2h-4.1v-8.8h3.8c1.8,0,2.8,0.8,2.8,2.2c0,0.5-0.2,1-0.5,1.3c-0.3,0.3-0.7,0.5-1.2,0.5
			c0.5,0,1.1,0.3,1.4,0.7c0.4,0.4,0.5,0.9,0.5,1.4C672.5,109.1,671.2,110.3,669.7,110.2C669.7,110.2,669.7,110.2,669.7,110.2z
			 M669.6,102.8h-2.4v2.2h2.1c0.7,0,1.3-0.4,1.3-1.1c0-0.6-0.4-1-0.9-1.1C669.6,102.8,669.6,102.8,669.6,102.8z M669.7,106.3h-2.5
			v2.6h2.3c0.7,0,1.3-0.5,1.4-1.2c0,0,0-0.1,0-0.1c0-0.6-0.5-1.2-1.1-1.2C669.8,106.3,669.7,106.3,669.7,106.3z"/>
		<path class="st17" d="M535.2,59c0,1.1-0.2,2.2-0.8,3.1c-0.6,1-1.6,1.8-2.7,2.2l-1.2-1c2.4-0.9,3.1-2,3.2-4.3h-4v-1.3h9.1V59H535.2
			z M531.4,56v-1.3h5.8V56H531.4z"/>
		<path class="st17" d="M550,58.8c-0.4,1.2-1.1,2.4-2,3.3c-0.9,1-2.1,1.7-3.3,2.2l-1.1-1c1.3-0.4,2.4-1.1,3.4-2.1
			c0.7-0.7,1.2-1.6,1.5-2.5h-6.2v-1.4h6.8c0.2,0,0.4-0.1,0.6-0.2l1,1C550.3,58.3,550.1,58.6,550,58.8z M543.4,56v-1.3h5.7V56H543.4z
			"/>
		<path class="st17" d="M561.8,63.5c-0.9-1.1-1.8-2.1-2.9-3c-1.1,1.3-2.5,2.4-4.1,3.1l-1.1-1.1c1.5-0.6,2.8-1.5,3.8-2.6
			c0.9-0.9,1.6-2.1,2-3.3H555v-1.4h5.2c0.2,0,0.5-0.1,0.6-0.3l0.9,1c-0.3,0.2-0.5,0.4-0.7,0.7c-0.4,0.9-0.8,1.8-1.4,2.7
			c1.2,0.9,2.2,1.9,3.2,3L561.8,63.5z"/>
		<path class="st17" d="M612.8,123.6c-0.3,0-0.5-0.2-0.5-0.5v-2.3H611c0,0.3-0.2,0.4-0.5,0.4h-1.2c-0.3,0-0.5-0.2-0.5-0.5v-4.5
			c0-0.3,0.2-0.5,0.5-0.5h2.9v-1.2c0-0.1,0.1-0.3,0.2-0.4c0.1-0.1,0.2-0.1,0.3-0.1l1.3,0.1c0.6,0.1,0.6,0.5,0.6,0.6
			c0,0.2-0.1,0.4-0.3,0.5v0.5h2.9c0.3,0,0.5,0.2,0.5,0.5v4.4c0,0.3-0.2,0.5-0.5,0.5h-1.1c-0.2,0-0.4-0.2-0.5-0.4h-1.3v2.3
			c0,0.3-0.2,0.5-0.5,0.5H612.8z M615.8,118.7v-0.9h-1.3v0.9H615.8z M612.3,118.7v-0.9H611v0.9H612.3z"/>
		<path class="st18" d="M612.8,114.6l1.3,0.1c0.1,0,0.2,0,0.2,0.1s-0.1,0.1-0.1,0.1s-0.1,0.1-0.1,0.2v1.2h3.5v4.4h-1.2v-0.4h-2.3
			v2.8h-1.2v-2.8h-2.3v0.4h-1.2v-4.5h3.4L612.8,114.6 M613.9,119.2h2.3v-1.9h-2.3V119.2 M610.5,119.2h2.3v-1.9h-2.3V119.2
			 M612.8,113.6c-0.3,0-0.5,0.1-0.7,0.3c-0.2,0.2-0.3,0.5-0.3,0.7v0.7h-2.4c-0.6,0-1,0.4-1,1v4.5c0,0.6,0.4,1,1,1h1.2
			c0.3,0,0.6-0.2,0.8-0.4h0.5v1.8c0,0.6,0.4,1,1,1h1.2c0.6,0,1-0.4,1-1v-1.8h0.5c0.2,0.3,0.5,0.4,0.8,0.4h1.2c0.6,0,1-0.4,1-1v-4.4
			c0-0.6-0.4-1-1-1h-2.3c0.1-0.1,0.1-0.3,0.1-0.5c0-0.6-0.4-1-1-1.1h-0.1L612.8,113.6L612.8,113.6z"/>
		<path class="st17" d="M622.1,123.8c-0.2,0-0.4-0.1-0.5-0.3l-0.4-1.1c-0.1-0.2-0.1-0.3,0-0.5c0.1-0.1,0.2-0.2,0.4-0.2h0.5v-0.4h-3
			c-0.3,0-0.5-0.2-0.5-0.5v-1c0-0.3,0.2-0.5,0.5-0.5h1.4c-0.1,0-0.1-0.1-0.2-0.1c-0.1,0-0.1,0-0.2,0h-1.1c-0.3,0-0.5-0.2-0.5-0.5
			v-2.2c0-0.3,0.2-0.5,0.5-0.5h0.8c-0.1-0.2-0.3-0.4-0.5-0.6c-0.1-0.1-0.1-0.3-0.1-0.4c0-0.1,0.1-0.3,0.2-0.3l0.9-0.6
			c0.1,0,0.2-0.1,0.3-0.1c0.1,0,0.3,0.1,0.4,0.2c0.1,0.2,0.3,0.3,0.4,0.5l0,0c0-0.1,0.1-0.3,0.2-0.3l0.9-0.5c0.1,0,0.2-0.1,0.3-0.1
			c0.1,0,0.3,0.1,0.4,0.2c0.4,0.5,0.7,1,1,1.5c0.2-0.3,0.4-0.6,0.6-1c0.1-0.2,0.3-0.3,0.5-0.3h0.2l1,0.3c0.3,0.1,0.5,0.3,0.5,0.6
			c0,0.2-0.1,0.3-0.2,0.4l0,0c-0.1,0.1-0.2,0.1-0.3,0.2l-0.2,0.3h0.9c0.3,0,0.5,0.2,0.5,0.5v2.1c0,0.3-0.2,0.5-0.5,0.5h-1.1
			c-0.2,0-0.3-0.1-0.4-0.3l-0.5,0.4h1.9c0.3,0,0.5,0.2,0.5,0.5v1c0,0.3-0.2,0.5-0.5,0.5h-2.9v1c0,0.4-0.2,1.4-1.7,1.4L622.1,123.8z
			 M622.4,116.2l-0.2-0.2c0,0.1,0,0.2,0,0.2H622.4z"/>
		<path class="st18" d="M623,114.4c0.4,0.4,0.7,0.9,1,1.5l-1,0.5c-0.2-0.5-0.6-1-0.9-1.4L623,114.4 M620.8,114.7
			c0.4,0.4,0.7,0.8,0.9,1.3l-1,0.6c-0.2-0.5-0.5-0.9-0.9-1.3L620.8,114.7 M625.4,114.8l1,0.3c0.1,0,0.2,0.1,0.2,0.2c0,0,0,0,0,0.1
			c0,0-0.3,0.1-0.3,0.1c-0.2,0.4-0.5,0.8-0.8,1.2h1.9v2.1h-1.1v-1.2h-5.9v1.3h-1.1v-2.2h5C624.7,116.1,625.2,115.5,625.4,114.8
			 M625.5,118l0.3,0.4c-0.6,0.5-1.2,1-1.8,1.4h3.4v1H624v1.5c0,0.7-0.6,0.9-1.2,0.9h-0.6l-0.4-1.1l0.8,0.1c0.2,0,0.2-0.2,0.2-0.3
			v-1.1h-3.5v-1h3.5v-0.6l0.5,0.1c0.1-0.1,0.3-0.3,0.4-0.4h-2.7V118H625.5 M623.1,113.4c-0.2,0-0.4,0-0.5,0.1l-0.9,0.5l0,0
			c-0.3-0.4-0.9-0.5-1.3-0.2l-0.9,0.6c-0.2,0.1-0.4,0.4-0.5,0.7c0,0.2,0,0.4,0.1,0.6c-0.5,0.1-0.8,0.5-0.8,1v2.2
			c0,0.2,0.1,0.4,0.2,0.6c-0.1,0.2-0.2,0.4-0.2,0.6v1c0,0.6,0.4,1,1,1h1.5c-0.1,0.2-0.1,0.5,0,0.7l0.4,1.1c0.2,0.4,0.5,0.6,0.9,0.6
			h0.6c1.6,0,2.2-1,2.2-1.9V122h2.4c0.6,0,1-0.4,1-1v-1c0-0.2,0-0.4-0.2-0.5c0.1-0.2,0.2-0.4,0.2-0.6v-2.1c0-0.5-0.4-0.9-0.8-1
			c0-0.1,0.1-0.3,0.1-0.4c0-0.5-0.4-1-0.8-1.1l-1-0.3c-0.1,0-0.2,0-0.3,0c-0.4,0-0.8,0.2-0.9,0.6l-0.1,0.2c-0.2-0.3-0.4-0.6-0.6-0.8
			C623.6,113.6,623.4,113.5,623.1,113.4L623.1,113.4z"/>
		<path class="st17" d="M605.4,135.7c-0.2,0-0.4-0.1-0.5-0.3l-0.5-0.9c-0.1-0.1-0.1-0.3,0-0.4h-0.1c-0.5,0-0.6-0.4-0.6-0.6l-0.2-0.9
			c0-0.1,0-0.3,0.1-0.4l0,0l-0.2-0.2c-0.1-0.1-0.2-0.3-0.2-0.4c0-0.2,0.1-0.3,0.3-0.4c0.2-0.1,0.4-0.2,0.7-0.4v-0.2
			c0-0.1,0-0.2,0.1-0.2h-0.2c-0.3,0-0.5-0.2-0.5-0.5v-0.9c0-0.2,0.1-0.4,0.3-0.4c0,0,0-0.1,0-0.1v-0.8c0-0.3,0.2-0.5,0.5-0.5h0.6
			v-0.4c0-0.1,0.1-0.3,0.2-0.4c0.1-0.1,0.2-0.1,0.3-0.1h1.1c0.6,0,0.7,0.4,0.7,0.6c0,0.1,0,0.2-0.1,0.3h0.1l0.1-0.2
			c0-0.1,0.1-0.2,0.3-0.3c0.1,0,0.1,0,0.2,0c0.1,0,0.1,0,0.2,0l0.9,0.4c0-0.1,0-0.2,0-0.3c0-0.2,0.3-0.4,0.5-0.4h0.1l1.1,0.1
			c0.3,0,0.6,0.3,0.6,0.6c0,0.2-0.1,0.3-0.2,0.4h0c0,0.2-0.1,0.3-0.1,0.5h1.7c0.3,0,0.5,0.2,0.5,0.5v1c0,0.3-0.2,0.5-0.5,0.5h-0.1
			c-0.1,1.1-0.4,2.1-0.9,3.1c0.4,0.4,0.8,0.7,1.3,0.9c0.1,0.1,0.2,0.2,0.3,0.4c0,0.1,0,0.3-0.1,0.4l-0.8,0.9
			c-0.1,0.1-0.2,0.2-0.4,0.2c-0.1,0-0.2,0-0.2-0.1c-0.5-0.3-1-0.7-1.4-1.1c-0.6,0.4-1.2,0.8-1.8,1.1c-0.1,0-0.1,0-0.2,0
			c-0.1,0-0.3-0.1-0.4-0.2l-0.6-0.7C606.9,135.6,606,135.6,605.4,135.7L605.4,135.7z M607.3,133.8l0.6-0.2l-0.6,0.1V133.8z
			 M608.8,132.1c0,0,0,0.1,0,0.1s0,0.8,0,0.8l0.3-0.2C609,132.6,608.9,132.4,608.8,132.1z M608.3,131.7c0.1,0,0.3,0,0.3,0.1
			c0.1,0.1,0.1,0.1,0.2,0.2l-0.1-0.4h-0.1l-0.3-0.1l-0.2,0.2L608.3,131.7z M610.2,129.9c0,0.3,0.1,0.5,0.2,0.8
			c0.1-0.3,0.1-0.5,0.1-0.8H610.2z"/>
		<path class="st18" d="M605.5,126.6h1.1c0.2,0,0.3,0,0.3,0.1s0,0,0,0.1s-0.2,0.2-0.2,0.2v0.5h0.8v0.3c0.2-0.3,0.3-0.6,0.4-0.9
			l0.9,0.4c0.1,0,0.2,0.1,0.2,0.1c0,0,0,0.1,0,0.1c-0.1,0-0.2,0-0.2,0.1c-0.2,0.4-0.4,0.8-0.7,1.2h0.5v0.9h-1.1
			c-0.2,0.3-0.4,0.5-0.7,0.7h0.9l0.5,0.4c-0.4,0.5-0.8,0.9-1.3,1.4l0,0l1.5-0.1v0.8l-1.5,0.2v1c0,0.9-0.5,1-1.4,1l-0.5-0.9h0.6
			c0.1,0,0.2-0.1,0.2-0.2c0,0,0,0,0-0.1v-0.8c-0.2,0-1.2,0.1-1.2,0.1s-0.2,0.2-0.2,0.2s-0.1-0.1-0.1-0.2l-0.2-0.9c0.5,0,1,0,1.8,0
			v-0.6l0.4,0.1c0.1-0.2,0.2-0.3,0.3-0.5h-0.7c-0.4,0.3-0.8,0.6-1.3,0.8l-0.8-0.6c0.3-0.2,0.6-0.4,0.9-0.6v-0.5h0.6
			c0.3-0.2,0.5-0.5,0.8-0.7h-2v-0.9h1.5v-0.6h-1.2v-0.8h1.2L605.5,126.6 M607.3,128.3h-0.6v0.6h0.2
			C607,128.7,607.1,128.5,607.3,128.3 M609.6,126.6l1.1,0.1c0.1,0,0.2,0,0.2,0.1c0,0,0,0.1,0,0.1c-0.1,0.1-0.1,0.1-0.2,0.2
			c-0.1,0.5-0.2,0.8-0.3,1.2h2.3v1h-0.5c0,1.3-0.4,2.6-1.1,3.7c0.4,0.6,1,1,1.7,1.3l-0.7,0.9c-0.6-0.3-1.2-0.8-1.6-1.4
			c-0.6,0.6-1.3,1-2.1,1.3l-0.7-0.8c0.9-0.2,1.6-0.7,2.3-1.3c-0.3-0.6-0.6-1.3-0.7-2c0,0-0.1,0.2-0.2,0.3l-0.9-0.5
			c1-1.1,1.5-2.5,1.7-4 M611.1,129.4h-1.2l-0.2,0.4c0.1,0.8,0.3,1.6,0.7,2.3C610.8,131.3,611.1,130.4,611.1,129.4 M605.5,125.7
			c-0.3,0-0.5,0.1-0.7,0.3c-0.2,0.2-0.3,0.4-0.3,0.7h-0.2c-0.6,0-1,0.4-1,1v0.7c-0.2,0.2-0.3,0.4-0.3,0.7v0.9c0,0.3,0.1,0.6,0.4,0.8
			l-0.2,0.1c-0.3,0.2-0.5,0.5-0.5,0.8c0,0.3,0.1,0.6,0.3,0.8c0,0.1,0,0.3,0,0.4l0.2,0.9c0.1,0.4,0.3,0.8,0.7,0.9
			c0,0.1,0,0.1,0.1,0.2l0.5,0.9c0.2,0.3,0.5,0.6,0.9,0.6l0,0c0.7,0.1,1.4-0.1,1.9-0.6l0.1,0.1c0.2,0.2,0.5,0.3,0.8,0.3
			c0.1,0,0.3,0,0.4-0.1c0.5-0.2,1.1-0.5,1.5-0.9c0.4,0.4,0.8,0.7,1.2,0.9c0.1,0.1,0.3,0.1,0.5,0.1c0.3,0,0.6-0.1,0.8-0.3l0.8-0.9
			c0.2-0.2,0.3-0.5,0.2-0.9c-0.1-0.3-0.3-0.6-0.5-0.7c-0.3-0.1-0.6-0.3-0.9-0.6c0.4-0.8,0.7-1.7,0.8-2.5c0.4-0.2,0.6-0.5,0.6-0.9v-1
			c0-0.6-0.4-1-1-1h-0.9c0.1-0.1,0.1-0.3,0.1-0.4c0-0.6-0.4-1-1-1.1l-1.1-0.1h-0.1c-0.4,0-0.7,0.2-0.9,0.6l-0.4-0.2
			c-0.1,0-0.2-0.1-0.4-0.1c-0.1,0-0.2,0-0.3,0c-0.2-0.3-0.6-0.4-1-0.4L605.5,125.7L605.5,125.7z"/>
		<path class="st17" d="M621.7,135.7L621.7,135.7c-1.2-0.2-2.2-0.7-3.1-1.4c-0.1-0.1-0.2-0.2-0.2-0.4c0-0.1,0-0.1,0-0.2H618
			c0,0.1,0,0.1,0,0.2c0,0.3-0.3,0.6-0.6,0.6c0,0,0,0,0,0h-0.1c-0.7,0.5-1.4,0.8-2.2,1.1c-0.1,0-0.1,0-0.2,0c-0.1,0-0.3-0.1-0.4-0.1
			l-0.8-0.8c-0.1-0.1-0.2-0.3-0.1-0.5c0-0.2,0.2-0.3,0.3-0.4c0.2-0.1,0.4-0.1,0.7-0.2c-0.2-0.1-0.3-0.2-0.3-0.4V129
			c0-0.3,0.2-0.5,0.5-0.5v-1.9c0-0.3,0.2-0.5,0.5-0.5h5.7c0.3,0,0.5,0.2,0.5,0.5v1.9h0.1c0.3,0,0.5,0.2,0.5,0.5v4.1
			c0,0.2-0.1,0.4-0.3,0.5c0.2,0.1,0.4,0.1,0.6,0.2c0.2,0,0.3,0.2,0.4,0.3c0.1,0.2,0,0.3-0.1,0.5l-0.7,0.8
			C621.9,135.6,621.8,135.6,621.7,135.7z"/>
		<path class="st18" d="M621.1,126.7v2h-5.7v-2H621.1 M616.7,127.9h3.3v-0.4h-3.3V127.9 M621.7,129.1v4.1h-2
			c0.8,0.6,1.7,0.9,2.6,1.1l-0.7,0.8c-1-0.2-2-0.7-2.8-1.3l0.6-0.7h-2.7l0.8,0.6c0,0,0.1,0.1,0.1,0.1c0,0-0.1,0.1-0.1,0.1
			c-0.1,0-0.3,0-0.4,0.1c-0.6,0.4-1.3,0.7-2.1,1l-0.8-0.8c0.8-0.2,1.6-0.6,2.3-1.1H615V129L621.7,129.1 M616.2,130.2h4.3v-0.4h-4.3
			V130.2 M616.2,131.3h4.3v-0.4h-4.3V131.3 M616.2,132.4h4.3V132h-4.3V132.4 M621.1,125.7h-5.7c-0.6,0-1,0.4-1,1v1.5
			c-0.3,0.2-0.5,0.5-0.5,0.9v4.1c0,0.1,0,0.1,0,0.2l0,0c-0.5,0.2-0.8,0.7-0.7,1.2c0,0.2,0.1,0.3,0.2,0.4l0.8,0.8
			c0.2,0.2,0.4,0.3,0.7,0.3c0.1,0,0.2,0,0.4-0.1c0.8-0.3,1.5-0.7,2.2-1.1c0.3,0,0.5-0.1,0.7-0.3c0.9,0.7,2,1.2,3.2,1.5
			c0.1,0,0.1,0,0.2,0c0.3,0,0.6-0.1,0.8-0.4l0.7-0.9c0.4-0.4,0.3-1.1-0.1-1.4c-0.1-0.1-0.2-0.2-0.3-0.2c0-0.1,0-0.1,0-0.2v-4.1
			c0-0.4-0.2-0.7-0.6-0.9v-1.5C622.2,126.1,621.7,125.7,621.1,125.7L621.1,125.7z"/>
		<path class="st17" d="M624,135.4c-0.3,0-0.5-0.2-0.5-0.5v-1c0-0.3,0.2-0.5,0.5-0.5h0.5c-0.1-0.1-0.1-0.2-0.1-0.3v-1
			c-0.2-0.2-0.2-0.4-0.2-0.7v-0.8c0-0.1,0-0.3,0.1-0.4c0.1-0.1,0.2-0.2,0.4-0.1h0.7c-0.1-0.1-0.2-0.2-0.3-0.3h-1
			c-0.3,0-0.5-0.2-0.5-0.5v-2c0-0.3,0.2-0.5,0.5-0.5h3v-0.4c0-0.1,0.1-0.3,0.2-0.4c0.1-0.1,0.2-0.1,0.3-0.1h1c0.3,0,1,0,1,0.7
			c0,0.1,0,0.1,0,0.2h2.9c0.3,0,0.5,0.2,0.5,0.5v1.9c0,0.3-0.2,0.5-0.5,0.5h-1c0,0.1-0.1,0.2-0.2,0.3c0.3,0.2,0.7,0.5,1.1,0.9
			c0.1,0.1,0.2,0.2,0.2,0.4c0,0.2-0.1,0.3-0.2,0.4L632,132c0,0,0,0.1,0,0.1v1c0,0.1,0,0.2-0.1,0.3h0.7c0.3,0,0.5,0.2,0.5,0.5v1
			c0,0.3-0.2,0.5-0.5,0.5L624,135.4z"/>
		<path class="st18" d="M627.7,126.5h1c0.3,0,0.5,0,0.5,0.2c0,0,0,0.1-0.1,0.1c-0.1,0.1-0.2,0.1-0.2,0.2v0.4h3.5v1.9h-1.1v-1h-6.2
			v1.1h-1.1v-2h3.5V126.5 M631,128.8v0.9h-1c0.7,0.5,1.4,1.1,2.1,1.7l-0.9,0.7c-0.2-0.3-0.5-0.5-0.8-0.7c-0.5,0.1-1.1,0.1-1.5,0.1
			h0.2c0.1,0,0.1,0.1,0.1,0.1s-0.1,0.1-0.2,0.2v0.4h2.6v1h-2.6v0.8h3.7v1h-8.5v-1h3.7v-0.8H625v-1h2.7v-0.6c-1,0.1-1.4,0.1-2.2,0.1
			c-0.2,0-0.3,0-0.3,0.1s-0.1,0.1-0.2,0.1s-0.2-0.2-0.2-0.4v-0.8h1.6c0.1-0.3,0.2-0.3,0.4-1h-1.2v-0.9L631,128.8 M629.5,129.7h-1.3
			l-0.6,0.9c0.8,0,1.3,0,1.8-0.1l-0.4-0.3L629.5,129.7 M627.6,125.5c-0.3,0-0.5,0.1-0.7,0.3c-0.2,0.2-0.3,0.4-0.3,0.6h-2.5
			c-0.6,0-1,0.4-1,1v2c0,0.4,0.3,0.8,0.7,0.9c0,0.1,0,0.3,0,0.4v0.8c0,0.3,0.1,0.6,0.2,0.8v0.7c-0.6,0-1,0.4-1,1v1c0,0.6,0.4,1,1,1
			h8.5c0.6,0,1-0.4,1-1v-1c0-0.6-0.4-1-1-1h-0.1v-0.7l0.1-0.1c0.4-0.3,0.5-1,0.2-1.4c0-0.1-0.1-0.1-0.1-0.2l-0.3-0.3h0.1
			c0.6,0,1-0.4,1-1v-1.9c0-0.6-0.4-1-1-1h-2.4c-0.1-0.4-0.4-0.8-1.4-0.9L627.6,125.5L627.6,125.5z"/>
		<path class="st17" d="M656.6,60.8v-6.1h-2.4v-1.1h0.7c0.9,0,1.7-0.6,1.9-1.5h1.3v8.8L656.6,60.8z"/>
		<path class="st17" d="M660.8,58.3v-1.4h3v1.4H660.8z"/>
		<path class="st17" d="M669,61.1c-2.9,0-4.2-2.2-4.2-4.6s1.2-4.8,4.3-4.8c1.8-0.2,3.5,1.2,3.7,3h-1.7c-0.1-1-1-1.7-2-1.6
			c-1.4,0-2.6,1.1-2.6,3.3s1.1,3.2,2.5,3.2c0.6,0,1.2-0.2,1.6-0.7c0.3-0.3,0.5-0.7,0.6-1.2h1.7C672.6,59.8,670.9,61.2,669,61.1z"/>
		<path class="st17" d="M597.5,28.6v-6.1h-2.4v-1.1h0.7c0.9,0,1.7-0.6,1.9-1.5h1.3v8.8H597.5z"/>
		<path class="st17" d="M601.8,26.1v-1.4h3v1.4H601.8z"/>
		<path class="st17" d="M610,28.6h-3.9v-8.8h3.9c2.4,0,3.7,1.9,3.7,4.2S612.5,28.6,610,28.6z M610,21.2h-2.3v6h2.3
			c1.7,0,2-2.1,2-3.2C612,22,610.9,21.2,610,21.2z"/>
		<path class="st17" d="M524.3,21.6v-6.4l-1.6,6.4h-1.5l-1.6-6.4v6.4h-1.2v-7.3h2.1l1.3,5l0.2,1.2l0.2-1.2l1.3-5h2.1v7.3H524.3z"/>
		<path class="st17" d="M530.4,21.6c-0.1-0.2-0.2-0.5-0.2-0.8c-0.3,0.6-1,1-1.7,0.9c-1.5,0-1.9-0.9-1.9-1.6c0-1.2,1.1-1.6,2.3-1.8
			c0.6-0.1,1.2-0.2,1.2-0.7s-0.5-0.6-0.9-0.6c-0.4,0-0.7,0.1-1,0.3c-0.1,0.1-0.2,0.3-0.2,0.5h-1.2c0.1-1.1,1.1-2,2.2-1.9
			c0,0,0.1,0,0.1,0c1.2,0,2.3,0.5,2.3,1.9v3c0,0.2,0.1,0.5,0.3,0.6L530.4,21.6z M529.2,19.2c-0.5,0.1-1.2,0.3-1.2,0.9
			c0,0.4,0.4,0.7,0.8,0.7c0.5,0,1.3-0.3,1.3-1.1v-0.6l0.1-0.4C530,19,529.6,19.2,529.2,19.2z"/>
		<path class="st17" d="M535.8,21.6l-1.5-2.4l-0.6,0.6v1.7h-1.3v-7.3h1.3v3.8l-0.1,0.5l0.3-0.4l1.7-2h1.6l-1.9,2.1l2.2,3.3
			L535.8,21.6z"/>
		<path class="st17" d="M539.1,19.3c0,0.3,0.3,1.4,1.3,1.4c0.4,0,0.8-0.2,1-0.6h1.3c-0.3,1.1-1.3,1.8-2.4,1.7c-1.4,0-2.5-1-2.6-2.4
			c0-0.1,0-0.3,0-0.4c-0.2-1.4,0.8-2.6,2.2-2.8c0.1,0,0.2,0,0.3,0c0.8,0,1.6,0.3,2,1c0.4,0.7,0.6,1.4,0.5,2.2L539.1,19.3z
			 M540.3,17.1c-1,0-1.2,0.9-1.2,1.3h2.3C541.3,17.6,540.9,17.1,540.3,17.1z"/>
		<path class="st17" d="M521.4,33.6c-0.2-0.1-0.2-0.3-0.2-0.8v-0.9c0-0.5-0.2-1.2-0.9-1.2h-1.9v2.9H517v-7.3h3.4
			c1.1-0.1,2.1,0.6,2.2,1.7c0,0.1,0,0.2,0,0.3c0,0.5-0.1,0.9-0.4,1.3c-0.3,0.3-0.7,0.5-1.1,0.6c0.7,0.1,1.4,0.3,1.4,1.7v0.7
			c0,0.7,0.3,0.9,0.5,1.1L521.4,33.6z M520.3,27.4h-1.9v2.2h1.6c0.6,0.1,1.1-0.3,1.2-0.9c0-0.1,0-0.1,0-0.2c0.1-0.5-0.3-1-0.8-1
			C520.4,27.4,520.3,27.4,520.3,27.4z"/>
		<path class="st17" d="M526.3,33.7c-1.4,0.1-2.7-0.9-2.8-2.4c0-0.1,0-0.3,0-0.4c-0.1-1.5,1.1-2.8,2.6-2.9c0.1,0,0.1,0,0.2,0
			c1.5-0.1,2.7,1.1,2.8,2.6c0,0.1,0,0.2,0,0.3c0.1,1.5-1,2.7-2.5,2.8C526.5,33.7,526.4,33.7,526.3,33.7z M526.3,29.1
			c-0.9,0-1.5,0.8-1.5,1.6c0,0,0,0.1,0,0.1c0,1,0.6,1.8,1.5,1.8c1.2,0,1.4-1.1,1.4-1.8C527.8,29.6,527,29.1,526.3,29.1L526.3,29.1z"
			/>
		<path class="st17" d="M532.5,33.7c-1.4,0.1-2.7-0.9-2.8-2.4c0-0.1,0-0.3,0-0.4c-0.1-1.5,1.1-2.8,2.6-2.9c0.1,0,0.1,0,0.2,0
			c1.5-0.1,2.7,1.1,2.8,2.6c0,0.1,0,0.2,0,0.3c0.1,1.5-1,2.7-2.5,2.8C532.8,33.7,532.7,33.7,532.5,33.7z M532.5,29.1
			c-0.9,0-1.5,0.8-1.5,1.6c0,0,0,0.1,0,0.1c0,1,0.6,1.8,1.5,1.8c1.2,0,1.4-1.1,1.4-1.8C534,29.6,533.3,29.1,532.5,29.1L532.5,29.1z"
			/>
		<path class="st17" d="M542.6,33.6v-3.3c0-0.6-0.2-1.1-0.8-1.1c-0.6,0-1,0.5-1,1.1v3.3h-1.3v-3.3c0-0.4-0.1-1.1-0.9-1.1
			c-0.6,0-1,0.4-1,1v3.3h-1.3v-5.3h1.3v0.3V29c0.5-0.8,1.5-1.1,2.3-0.7c0.3,0.2,0.5,0.4,0.7,0.7c0.4-0.6,1-0.9,1.7-0.9
			c1.2,0,1.6,0.9,1.6,2.1v3.4L542.6,33.6z"/>
		<path class="st17" d="M335.2,87.8c-0.7,1.8-1.8,3.4-3.4,4.6l-1.1-0.8c1.2-0.8,2.2-1.9,2.9-3.1c-0.4-0.4-0.8-0.7-1.3-1
			c-0.2,0.3-0.3,0.5-0.5,0.8l-1.2-0.6c1-1.5,1.7-3.1,2-4.9l1.5,0.3c0.1,0,0.1,0.1,0.1,0.1c0,0.1-0.1,0.1-0.1,0.1
			c-0.2,0.1-0.2,0.1-0.2,0.2c-0.1,0.4-0.1,0.5-0.3,0.9h2.5C335.9,85.6,335.6,86.7,335.2,87.8z M333.1,85.6c-0.1,0.3-0.2,0.5-0.4,0.9
			c0.5,0.2,0.9,0.5,1.3,0.9c0.2-0.6,0.4-1.1,0.5-1.7L333.1,85.6z M340.3,90c-0.6-0.3-1.2-0.7-1.8-1.1v3.5h-1.3v-4.6
			c-0.5-0.5-1-1-1.4-1.5l0.8-0.9c0.2,0.2,0.4,0.5,0.6,0.7v-3.4l1.4,0.1c0.1,0,0.1,0,0.1,0.1c0,0.1,0,0.1-0.1,0.1
			c-0.1,0.1-0.2,0.2-0.2,0.2v4.1c0.8,0.6,1.6,1.2,2.5,1.6L340.3,90z"/>
		<path class="st17" d="M342.4,87.6v-1.1h1.3c-0.2-0.5-0.4-1-0.7-1.5l0.8-0.3h-1.1v-1h1.9v-1.1l1.5,0.1c0.1,0,0.2,0,0.2,0.1
			s0,0.1-0.1,0.1s-0.2,0.1-0.2,0.2v0.6h1.6v1h-1.2l0.9,0.5c0.1,0,0.1,0.1,0.1,0.2s0,0.1-0.1,0.1s-0.2,0.1-0.2,0.2
			c-0.1,0.3-0.2,0.6-0.4,0.8h1v1.1L342.4,87.6z M346.1,92.4v-0.3h-2v0.4h-1.2v-4.3h4.4v4.2H346.1z M344.1,84.7
			c0.3,0.5,0.5,1,0.7,1.6l-0.6,0.3h1.4c0.3-0.6,0.6-1.2,0.7-1.8H344.1z M346.1,89.4h-2v1.5h2V89.4z M350.2,91.5l-0.8-1.2v2.2h-1.2
			V83h3.8l0.4,0.6l-1.4,3c0.9,0.6,1.4,1.6,1.5,2.7c0,1.2-0.9,2.2-2.1,2.2C350.3,91.5,350.3,91.5,350.2,91.5z M349.8,86.7
			c0.2-0.5,0.6-1.6,0.9-2.6h-1.3v6c0.2,0,0.5,0,0.6,0c0.6,0.1,1.1-0.4,1.2-1c0,0,0,0,0,0C351,88.2,350.5,87.3,349.8,86.7z"/>
		<path class="st17" d="M359.5,87.3c0,1-0.2,2.1-0.7,3c-0.6,1-1.5,1.7-2.6,2.2l-1.1-1c2.3-0.8,3-1.9,3.1-4.2h-3.9v-1.1h8.7v1.2
			H359.5z M355.9,84.4v-1.3h5.6v1.3L355.9,84.4z"/>
		<path class="st17" d="M373.3,87.1c-0.4,1.2-1.1,2.3-1.9,3.2c-0.9,0.9-2,1.7-3.2,2.1l-1.1-1c1.2-0.4,2.4-1.1,3.2-2
			c0.7-0.7,1.2-1.6,1.5-2.5h-6v-1.3h6.6c0.2,0,0.4-0.1,0.6-0.2l0.9,1C373.6,86.7,373.4,86.9,373.3,87.1z M366.9,84.4v-1.3h5.5v1.3
			H366.9z"/>
		<path class="st17" d="M384,91.7c-0.8-1.1-1.8-2-2.8-2.9c-1.1,1.3-2.5,2.3-4,3l-1-1.1c1.4-0.6,2.7-1.4,3.7-2.5c0.9-0.9,1.6-2,2-3.2
			h-4.4v-1.4h5c0.2,0,0.4-0.1,0.6-0.3l0.9,1c-0.3,0.2-0.5,0.4-0.6,0.7c-0.4,0.9-0.8,1.8-1.3,2.6c1.1,0.9,2.1,1.8,3.1,2.9L384,91.7z"
			/>
		<polyline class="st10" points="399.4,112.6 399.4,104.1 392.9,104.1 		"/>
		<line class="st19" x1="392.9" y1="67" x2="397.8" y2="67"/>
		<rect x="67.9" y="75.8" class="st20" width="43.8" height="10.1"/>
		<rect x="67.9" y="86.2" class="st20" width="43.8" height="10.1"/>
		<path class="st21" d="M342.4,31.1c0.9,0,1.6-0.7,1.6-1.5s-0.7-1.6-1.5-1.6s-1.6,0.7-1.6,1.5c0,0,0,0,0,0
			C340.8,30.4,341.5,31.1,342.4,31.1C342.4,31.1,342.4,31.1,342.4,31.1z"/>
		<path class="st21" d="M346.5,37.4l-1.1-4c-0.3-1.1-1-1.8-1.8-1.8h-2.4c-0.8,0-1.5,0.7-1.8,1.8l-1.1,4c-0.1,0.3,0.1,0.7,0.5,0.8
			c0.3,0.1,0.7-0.1,0.8-0.5l0,0l1.1-4h0.3l-2,7h1.9v5.2c0,0.4,0.2,0.8,0.6,0.8c0.4,0,0.8-0.2,0.8-0.6c0-0.1,0-0.1,0-0.2v-5.2h0.4
			v5.2c0,0.4,0.3,0.7,0.7,0.7s0.7-0.3,0.7-0.7v-5.2h1.7l-2-7h0.3l1.1,4c0.1,0.3,0.4,0.5,0.8,0.5C346.4,38.1,346.6,37.8,346.5,37.4
			C346.6,37.4,346.6,37.4,346.5,37.4z"/>
		<path class="st21" d="M328.4,31.1c0.9,0,1.6-0.7,1.6-1.5s-0.7-1.6-1.5-1.6c-0.9,0-1.6,0.7-1.6,1.5c0,0,0,0,0,0
			C326.9,30.4,327.5,31.1,328.4,31.1C328.4,31.1,328.4,31.1,328.4,31.1z"/>
		<path class="st21" d="M330.3,31.6h-4.1c-0.8,0.1-1.5,0.7-1.6,1.6v5.2c0,0.4,0.2,0.7,0.6,0.8s0.7-0.2,0.8-0.6c0-0.1,0-0.1,0-0.2
			v-4.3h0.3v11.6c0,0.5,0.4,0.9,0.9,0.9c0.5,0,0.9-0.4,0.9-0.9c0,0,0,0,0,0v-6.7h0.3v6.7c0,0.5,0.4,0.9,0.9,0.9
			c0.5,0,0.9-0.4,0.9-0.9c0,0,0,0,0,0V34.1h0.3v4.3c0,0.4,0.3,0.7,0.7,0.7c0.4,0,0.7-0.3,0.7-0.7c0,0,0,0,0,0v-5.2
			C331.8,32.3,331.1,31.7,330.3,31.6z"/>
		<path class="st21" d="M669.8,17.4c0,0.9,0.7,1.5,1.5,1.5c0.9,0,1.5-0.7,1.5-1.5s-0.7-1.6-1.5-1.6l0,0
			C670.5,15.8,669.8,16.5,669.8,17.4C669.8,17.4,669.8,17.4,669.8,17.4z"/>
		<path class="st21" d="M663.5,21.5l4-1.1c1.1-0.3,1.8-1,1.8-1.8v-2.4c0-0.8-0.7-1.5-1.8-1.8l-4-1.1c-0.3-0.1-0.7,0.1-0.8,0.5
			c-0.1,0.3,0.1,0.7,0.4,0.8c0,0,0,0,0,0l4,1.1v0.3l-7-2v1.9H655c-0.4,0-0.7,0.3-0.7,0.7c0,0.4,0.3,0.7,0.7,0.7h5.2v0.4H655
			c-0.4,0-0.8,0.2-0.8,0.6c0,0.4,0.2,0.8,0.6,0.8c0.1,0,0.1,0,0.2,0h5.2v1.7l7-2v0.3l-4,1.1c-0.3,0.1-0.5,0.4-0.5,0.8
			C662.8,21.4,663.2,21.6,663.5,21.5L663.5,21.5L663.5,21.5z"/>
		<path class="st21" d="M670.2,31.7c0,0.9,0.7,1.6,1.5,1.6c0.9,0,1.5-0.7,1.5-1.5s-0.7-1.6-1.5-1.6l0,0
			C670.9,30.2,670.2,30.9,670.2,31.7z"/>
		<path class="st21" d="M669.8,33.6v-4.1c-0.1-0.8-0.7-1.5-1.6-1.6H663c-0.4,0-0.7,0.3-0.7,0.7s0.3,0.7,0.7,0.7h4.3v0.3h-11.6
			c-0.5,0.1-0.9,0.5-0.8,1c0,0.4,0.4,0.8,0.8,0.8h6.7v0.3h-6.7c-0.5,0.1-0.9,0.5-0.8,1c0,0.4,0.4,0.8,0.8,0.8h11.6v0.3H663
			c-0.4,0-0.7,0.3-0.7,0.7s0.3,0.7,0.7,0.7h5.2C669,35.1,669.7,34.5,669.8,33.6z"/>
		<path class="st21" d="M167.6,28.6c0.9,0,1.5-0.7,1.5-1.6c0-0.9-0.7-1.5-1.6-1.5c-0.9,0-1.5,0.7-1.5,1.6c0,0,0,0,0,0
			C166.1,27.9,166.8,28.6,167.6,28.6z"/>
		<path class="st21" d="M171.8,34.8l-1.1-4c-0.3-1.1-1-1.8-1.8-1.8h-2.4c-0.8,0-1.5,0.7-1.8,1.8l-1.1,4c-0.1,0.3,0.1,0.7,0.5,0.8
			c0.3,0.1,0.7-0.1,0.8-0.4c0,0,0,0,0,0l1.1-4h0.3l-2,7h1.9v5.2c0,0.4,0.3,0.7,0.7,0.7s0.7-0.3,0.7-0.7v-5.2h0.4v5.2
			c0,0.4,0.2,0.8,0.6,0.8s0.8-0.2,0.8-0.6c0-0.1,0-0.1,0-0.2v-5.2h1.7l-2-7h0.3l1.1,4c0.1,0.3,0.5,0.5,0.8,0.4
			C171.6,35.4,171.8,35.1,171.8,34.8L171.8,34.8z"/>
		<path class="st21" d="M153.7,28.6c0.9,0,1.5-0.7,1.5-1.6c0-0.9-0.7-1.5-1.6-1.5c-0.9,0-1.5,0.7-1.5,1.6c0,0,0,0,0,0
			C152.1,27.9,152.8,28.6,153.7,28.6C153.7,28.6,153.7,28.6,153.7,28.6z"/>
		<path class="st21" d="M155.6,29h-4.1c-0.8,0.1-1.5,0.7-1.6,1.6v5.2c0,0.4,0.3,0.7,0.7,0.7c0.4,0,0.7-0.3,0.7-0.7v-4.2h0.3v11.6
			c0,0.5,0.4,0.9,0.9,0.9c0.5,0,0.9-0.4,0.9-0.9c0,0,0,0,0,0v-6.7h0.3v6.7c0,0.5,0.4,0.9,0.9,0.9c0.5,0,0.9-0.4,0.9-0.9c0,0,0,0,0,0
			V31.5h0.3v4.3c0,0.4,0.3,0.7,0.7,0.7c0.4,0,0.7-0.3,0.7-0.7v-5.2C157.1,29.8,156.4,29.1,155.6,29z"/>
		<rect x="155.7" y="46.9" class="st19" width="10.4" height="8.8"/>
		<polyline class="st19" points="349.9,19.5 349.9,11.2 510.5,11.2 		"/>
		<polyline class="st10" points="475.3,46.8 492.6,46.8 492.6,73.1 600,73.1 		"/>
		<rect x="510.2" y="11.2" class="st10" width="40.3" height="26.3"/>
		<rect x="550.5" y="11.2" class="st10" width="40.3" height="26.3"/>
		<rect x="600" y="46.8" class="st10" width="36.6" height="26.3"/>
		<rect x="644.8" y="89.6" class="st10" width="36.6" height="68.5"/>
		<rect x="644.8" y="11.2" class="st10" width="36.6" height="61.8"/>
		<rect x="600" y="174.9" class="st10" width="81.7" height="35.5"/>
		<rect x="590.8" y="11.2" class="st10" width="27.4" height="26.3"/>
		<rect x="618.2" y="11.2" class="st10" width="18.2" height="26.3"/>
		<line class="st11" x1="492.6" y1="46.8" x2="600" y2="46.8"/>
		<line class="st10" x1="492.6" y1="11.2" x2="492.6" y2="38.5"/>
		<line class="st10" x1="501.3" y1="19.7" x2="501.3" y2="37.5"/>
		<line class="st15" x1="492.6" y1="19.9" x2="510.2" y2="19.9"/>
		<line class="st15" x1="492.6" y1="24.3" x2="510.2" y2="24.3"/>
		<line class="st15" x1="492.6" y1="28.7" x2="510.2" y2="28.7"/>
		<line class="st15" x1="492.6" y1="33.1" x2="510.2" y2="33.1"/>
		<line class="st15" x1="492.6" y1="37.5" x2="510.2" y2="37.5"/>
		<line class="st10" x1="644.8" y1="81.3" x2="662.4" y2="81.3"/>
		<polyline class="st11" points="644.8,89.6 644.8,81.3 644.8,73.1 		"/>
		<line class="st11" x1="649.2" y1="89.6" x2="649.2" y2="73.1"/>
		<line class="st11" x1="653.6" y1="89.6" x2="653.6" y2="73.1"/>
		<line class="st11" x1="658" y1="89.6" x2="658" y2="73.1"/>
		<line class="st11" x1="662.4" y1="89.6" x2="662.4" y2="73.1"/>
		<line class="st10" x1="671.6" y1="89.6" x2="671.6" y2="73.1"/>
		<line class="st10" x1="644.8" y1="166.3" x2="662.4" y2="166.3"/>
		<polyline class="st11" points="644.8,174.6 644.8,166.3 644.8,158.1 		"/>
		<line class="st11" x1="649.2" y1="174.6" x2="649.2" y2="158.1"/>
		<line class="st11" x1="653.6" y1="174.6" x2="653.6" y2="158.1"/>
		<line class="st11" x1="658" y1="174.6" x2="658" y2="158.1"/>
		<line class="st11" x1="662.4" y1="174.6" x2="662.4" y2="158.1"/>
		<line class="st10" x1="671.6" y1="174.6" x2="671.6" y2="158.1"/>
		<line class="st10" x1="644.8" y1="37.5" x2="681.4" y2="37.5"/>
		<line class="st10" x1="644.8" y1="24.4" x2="681.4" y2="24.4"/>
		<line class="st10" x1="681.4" y1="123.9" x2="644.8" y2="123.9"/>
		<line class="st10" x1="636.6" y1="73.1" x2="636.6" y2="89.6"/>
		<line class="st10" x1="636.4" y1="11.2" x2="644.8" y2="11.2"/>
		<rect x="600" y="89.6" class="st10" width="36.6" height="68.5"/>
		<line class="st10" x1="612.6" y1="158.1" x2="612.6" y2="174.9"/>
		<path class="st17" d="M626.3,16.2c-0.1,0-0.1,0-0.2,0.1s-0.1,0.4-0.3,0.7c0,0,0.1,0.1,0.1,0.1c0,0,0,0.1,0,0.1
			c-0.1,0.1-0.1,0.1-0.1,0.1v3.5h-0.7v-2.8c-0.1,0.1-0.1,0.2-0.2,0.3l-0.6-0.4c0.6-0.6,1-1.4,1.2-2.2l0.6,0.2c0.1,0,0.1,0.1,0.1,0.1
			S626.3,16.2,626.3,16.2z M629.5,20.7c-0.4-0.3-0.8-0.6-1.1-1v1.3h-0.7v-1.4c-0.3,0.5-0.7,0.9-1.1,1.2l-0.5-0.4
			c0.5-0.3,0.9-0.8,1.3-1.3h-1.2v-0.6h1.5v-0.5h-1.1V16h2.9v1.9h-1.1v0.5h1.5V19h-1.2c0.4,0.5,0.8,0.9,1.4,1.2L629.5,20.7z
			 M628.8,16.5h-1.5v0.7h1.5V16.5z"/>
		<path class="st17" d="M629.8,26.9h-1.3c-0.6,0.1-1.3-0.1-1.7-0.5c-0.2,0.2-0.4,0.5-0.6,0.6l-0.5-0.3V27h-0.7v-2.7
			c0,0.1-0.1,0.1-0.2,0.2l-0.6-0.4c0.5-0.7,0.9-1.5,1.1-2.4l0.7,0.2c0,0,0.1,0,0.1,0.1s0,0.1,0,0.1s-0.1,0.1-0.2,0.1
			s-0.1,0.4-0.3,0.7c0.2,0.1,0.2,0.1,0.2,0.1s0,0-0.1,0.1s-0.1,0.1-0.1,0.1v3.2c0.3-0.2,0.5-0.4,0.7-0.7c-0.2-0.3-0.4-0.7-0.5-1.1
			l0.5-0.1c0.1,0.2,0.1,0.5,0.2,0.7c0.1-0.4,0.2-0.7,0.2-1.1h-0.3c-0.1,0.2-0.1,0.2-0.2,0.3l-0.5-0.3c0.3-0.4,0.5-0.9,0.7-1.4h-0.4
			v-0.6h1.1l0.2,0.1c-0.2,0.4-0.3,0.7-0.5,1.2h0.5v-0.1h0.8v-0.3h-0.9v-0.5h0.9v-0.2h-0.7v-0.5h0.7v-0.3h0.5c0.3,0,0.3,0,0.3,0.1
			s0,0.1-0.1,0.1s-0.1,0.1-0.1,0.1h0.9v0.7h0.2v0.5h-0.2V24h-0.9v0.3h0.8v0.5h-0.8V25h1.1v0.5h-1.1v0.6h-0.6v-0.6h-0.8v-0.4
			c-0.1,0.3-0.1,0.5-0.2,0.8c0.3,0.3,0.7,0.5,1.2,0.5c0.6,0,1.3-0.1,1.9-0.1L629.8,26.9z M628.1,24.8h-0.6v-0.5h0.6V24h-0.7
			c0,0.3-0.1,0.7-0.1,1h0.8V24.8z M629,22.6h-0.3v0.3h0.3V22.6z M629,23.3h-0.3v0.3h0.3V23.3z"/>
		<path class="st17" d="M624.7,32.8v-0.6h2.2v-0.5h-1.6v-0.6h1.6v-0.4l-1.3,0.1c-0.1,0-0.2,0-0.2,0s-0.1,0.1-0.1,0.1
			s-0.1-0.1-0.1-0.3v-0.5h1c0.1-0.1,0.1-0.2,0.3-0.6h-0.7v-0.6h3.3v0.6h-0.6c0.4,0.3,0.9,0.6,1.3,1l-0.6,0.4
			c-0.1-0.2-0.3-0.3-0.5-0.4l-0.9,0.1h0.1c0,0,0.1,0,0.1,0.1c0,0.1-0.1,0.1-0.1,0.1v0.3h1.6v0.6h-1.6v0.5h2.2v0.6L624.7,32.8z
			 M629.1,29.5v-0.6h-3.7v0.6h-0.6v-1.2h2.1v-0.5h0.6c0.2,0,0.3,0,0.3,0.1c0,0,0,0,0,0.1c-0.1,0-0.1,0.1-0.1,0.1v0.3h2.1v1.2
			L629.1,29.5z M627.2,29.7l-0.4,0.6c0.5,0,0.8,0,1.1-0.1l-0.2-0.1l0.3-0.4H627.2z"/>
		<path class="st17" d="M562.4,22.9H559c-1.6,0-1.8-0.4-2.1-0.8l-0.3,0.3c-0.1,0.1-0.4,0.4-0.4,0.4s-0.1,0.2-0.1,0.2
			s-0.1-0.1-0.1-0.1l-0.5-0.8c0.4-0.2,0.7-0.3,1-0.6v-1.7h-0.8V19h1.7v2.3c0,0.5,0.4,0.8,1.5,0.8c0.9,0,1.8,0,2.7-0.1
			c-0.5-0.2-1-0.5-1.4-0.8l0.4-0.4h-1.2l0.3,0.4c0,0,0,0.1,0.1,0.1c0,0.1,0,0.1-0.2,0.1c-0.4,0.3-0.8,0.5-1.2,0.6l-0.4-0.6
			c0.4-0.1,0.8-0.3,1.1-0.6h-1.3v-0.6h1.1v-0.4h-1v-0.6h1v-0.4h-0.4c-0.4,0-0.7,0-0.7-0.3v-1.3h1.3v-0.4h-1.3v-0.6h2v1.6h-1.3v0.3
			c0,0.2,0,0.2,0.2,0.2h0.4c0.2,0,0.3-0.2,0.3-0.4l0.5,0.3c0,0.2-0.1,0.3-0.1,0.4c-0.1,0.2-0.2,0.2-0.4,0.2h0.3c0.1,0,0.2,0,0.2,0.1
			s-0.1,0.1-0.2,0.1v0.2h0.8v-0.4c-0.1,0-0.1,0-0.2-0.1c-0.1-0.1-0.1-0.2-0.1-0.3v-1.2h1.3v-0.4H560v-0.6h2.1v1.6h-1.3v0.3
			c0,0.2,0.1,0.2,0.2,0.2h0.4c0.3,0,0.4-0.3,0.4-0.5l0.6,0.3c-0.1,0.6-0.5,0.7-0.9,0.7h-0.4c0,0,0.1,0,0.1,0.1s-0.1,0.1-0.2,0.1v0.2
			h1.1v0.6h-1.1v0.4h1.3v0.6h-1.6c0.4,0.3,0.8,0.5,1.3,0.6l-0.4,0.6c0.3,0,0.7,0,1-0.1L562.4,22.9z M556.6,17.9
			c-0.3-0.4-0.6-0.7-1-1l0.6-0.7c0.4,0.3,0.7,0.6,1,1.1L556.6,17.9z M560.4,19.8h-0.8v0.4h0.8V19.8z"/>
		<path class="st17" d="M569.8,23c-0.6-0.4-1-1-1.4-1.6c-0.4-0.7-0.6-1.4-0.7-2.1h-0.3c-0.1,1.3-0.4,2.6-1,3.7l-0.9-0.4
			c-0.3,0.3-0.7,0.4-1.1,0.3l-0.5-0.9c0.1,0,0.3,0,0.5,0c0.3,0,0.3,0,0.3-0.3v-1.4l-0.5,0.1c-0.1,0-0.1,0-0.1,0.1s-0.1,0.2-0.2,0.2
			s-0.1,0-0.1-0.3l-0.1-0.9c0.3-0.1,0.7-0.1,1-0.3v-1.3h-1v-0.9h1v-1.2h0.9c0.1,0,0.3,0,0.3,0.1s0,0.1-0.1,0.1s-0.1,0.1-0.1,0.2v0.7
			h0.7v0.9h-0.7v1.1l0.7-0.2v0.8c-0.2,0.1-0.4,0.1-0.7,0.2v2.4c0.8-1.4,1.1-3.1,1-4.7c0-0.5,0-1.2,0-1.5h3.7v3h-1.7
			c0.3,1.3,1.1,2.4,2.1,3.1L569.8,23z M569.3,17.1h-1.9v1.4h1.9V17.1z"/>
		<path class="st17" d="M556.8,25.7h0.8c0.2,0,0.2,0,0.2,0.1c0,0,0,0,0,0c0,0-0.1,0.1-0.1,0.2v0.4h0.7v0.3c0.1-0.2,0.2-0.5,0.3-0.7
			l0.8,0.3c0,0,0.1,0,0.1,0.1c0,0,0,0,0,0.1c-0.1,0-0.1,0-0.2,0.1c-0.2,0.3-0.3,0.7-0.5,1h0.4v0.7h-0.9c-0.2,0.2-0.3,0.4-0.5,0.6
			h0.7l0.4,0.3c-0.3,0.4-0.6,0.7-1,1.1l0,0l1.2-0.1v0.6l-1.2,0.1v0.8c0,0.7-0.4,0.8-1.1,0.8l-0.4-0.7h0.5c0.1,0,0.2-0.1,0.2-0.2
			c0,0,0,0,0,0V31l-1,0.1c0,0-0.1,0.1-0.2,0.1s-0.1-0.1-0.1-0.2l-0.2-0.7c0.4,0,0.8,0,1.4,0v-0.4l0.3,0c0.1-0.1,0.2-0.3,0.2-0.4H557
			c-0.3,0.2-0.7,0.5-1,0.7l-0.6-0.5c0.3-0.1,0.5-0.3,0.8-0.5v-0.4h0.5c0.2-0.2,0.4-0.4,0.6-0.6h-1.6v-0.7h1.2v-0.5h-1v-0.6h1V25.7z
			 M557.7,27.6h0.1c0.1-0.1,0.2-0.3,0.3-0.5h-0.5V27.6z M558.7,29c0.7-0.9,1.2-2,1.3-3.2l0.9,0.1c0,0,0.1,0,0.1,0.1s0,0,0,0.1
			s-0.1,0.1-0.1,0.2c-0.1,0.3-0.2,0.6-0.3,0.9h1.9v0.8H562c0,1-0.3,2-0.9,2.9c0.4,0.5,0.8,0.8,1.3,1.1l-0.6,0.7
			c-0.5-0.3-0.9-0.6-1.3-1.1c-0.5,0.4-1,0.8-1.6,1.1l-0.6-0.7c0.7-0.2,1.3-0.6,1.8-1.1c-0.3-0.5-0.5-1-0.6-1.6
			c0,0.1-0.1,0.1-0.2,0.2L558.7,29z M560.3,27.9l-0.1,0.3c0.1,0.6,0.3,1.3,0.5,1.9c0.3-0.7,0.5-1.4,0.5-2.2L560.3,27.9z"/>
		<path class="st17" d="M563.6,32.4v-0.8h2.9V31h-2.2v-0.8h2.2v-0.5c-0.8,0.1-1.1,0.1-1.8,0.1c-0.2,0-0.2,0-0.3,0.1
			s-0.1,0.1-0.2,0.1s-0.1-0.2-0.1-0.3V29h1.3c0.1-0.2,0.1-0.3,0.3-0.8h-1v-0.8h4.4v0.8h-0.8c0.6,0.4,1.1,0.9,1.7,1.3l-0.8,0.5
			c-0.3-0.3-0.5-0.5-0.6-0.6c-0.4,0-0.9,0.1-1.2,0.1h0.1c0.1,0,0.1,0,0.1,0.1s-0.1,0.1-0.1,0.1v0.3h2.1V31h-2.1v0.6h3v0.8
			L563.6,32.4z M569.5,27.9v-0.8h-5V28h-0.9v-1.6h2.8v-0.7h0.8c0.2,0,0.4,0,0.4,0.1c0,0,0,0.1,0,0.1c-0.1,0.1-0.1,0.1-0.1,0.1v0.3
			h2.8v1.5L569.5,27.9z M567,28.2l-0.5,0.8c0.7,0,1,0,1.4-0.1l-0.3-0.2l0.4-0.5H567z"/>
		<path class="st17" d="M576,29.2v-6.1h-2.4V22h0.7c0.9,0,1.7-0.6,1.9-1.5h1.3v8.8L576,29.2z"/>
		<path class="st17" d="M585.1,28.7c-0.6,0.5-1.4,0.8-2.2,0.8c-1.4,0.2-2.6-0.8-2.8-2.1c0-0.2,0-0.3,0-0.5v-0.9h1.6v0.9
			c-0.1,0.6,0.4,1.2,1,1.2c0.1,0,0.2,0,0.2,0c0.8,0,1.2-0.3,1.2-1.5v-6.1h1.6v6.2C585.9,27.4,585.6,28.2,585.1,28.7z"/>
		<path class="st17" d="M609.8,57.8h-3.4c-1.6,0-1.8-0.4-2.1-0.8l-0.3,0.3c-0.1,0.1-0.4,0.4-0.4,0.4s-0.1,0.2-0.1,0.2
			s-0.1-0.1-0.1-0.1l-0.5-0.8c0.3-0.2,0.7-0.4,1-0.6v-1.7h-0.8v-0.7h1.7v2.3c0,0.5,0.4,0.8,1.5,0.8c0.9,0,1.8,0,2.7-0.1
			c-0.5-0.2-1-0.5-1.4-0.8l0.4-0.4h-1.2l0.3,0.4c0,0,0,0.1,0,0.1s0,0-0.2,0c-0.4,0.3-0.8,0.5-1.2,0.7l-0.5-0.6
			c0.4-0.1,0.8-0.3,1.1-0.6h-1.3v-0.6h1.1v-0.4h-1v-0.6h1v-0.3h-0.4c-0.4,0-0.7,0-0.7-0.3v-1.3h1.3v-0.4h-1.3v-0.6h2v1.6h-1.3V53
			c0,0.2,0,0.2,0.2,0.2h0.4c0.2,0,0.3-0.2,0.3-0.4l0.5,0.2c0,0.2-0.1,0.3-0.1,0.4c-0.1,0.2-0.2,0.2-0.4,0.2h0.3c0.1,0,0.1,0,0.1,0.1
			s-0.1,0.1-0.2,0.1v0.2h0.8v-0.4c-0.1,0-0.1,0-0.2-0.1c-0.1-0.1-0.1-0.2-0.1-0.3v-1.2h1.3v-0.4h-1.3v-0.6h2.1v1.6h-1.4v0.3
			c0,0.2,0.1,0.2,0.2,0.2h0.4c0.3,0,0.4-0.3,0.4-0.5l0.6,0.3c-0.1,0.6-0.5,0.7-0.9,0.7h-0.4c0,0,0.2,0,0.2,0.1s-0.1,0.1-0.2,0.1v0.2
			h1.1v0.6h-1.1v0.4h1.3v0.6h-1.6c0.4,0.3,0.8,0.5,1.3,0.6l-0.4,0.6c0.5,0,0.7,0,1-0.1L609.8,57.8z M604,52.8c-0.3-0.4-0.6-0.8-1-1
			l0.6-0.7c0.4,0.3,0.7,0.6,1,1.1L604,52.8z M607.8,54.7H607v0.4h0.8L607.8,54.7z"/>
		<path class="st17" d="M617.2,57.9c-0.6-0.4-1-1-1.4-1.6c-0.4-0.7-0.6-1.4-0.7-2.1h-0.3c-0.1,1.3-0.4,2.6-1,3.7l-0.9-0.4
			c-0.3,0.3-0.7,0.4-1.2,0.3l-0.4-0.9c0.1,0,0.3,0,0.5,0c0.3,0,0.3,0,0.3-0.3v-1.4c-0.2,0-0.4,0.1-0.5,0.2s-0.1,0-0.1,0.1
			s-0.1,0.2-0.2,0.2s-0.1,0-0.1-0.3l-0.1-0.9c0.3-0.1,0.7-0.1,1-0.3v-1.3h-1v-0.9h0.9V51h0.9c0.1,0,0.3,0,0.3,0.1s0,0.1-0.1,0.2
			s-0.1,0.1-0.1,0.2v0.7h0.7V53h-0.7v1.1l0.7-0.2v0.8c-0.2,0.1-0.4,0.1-0.7,0.2v2.4c0.8-1.4,1.1-3.1,1-4.7c0-0.5,0-1.2,0-1.5h3.7v3
			H616c0.3,1.3,1,2.4,2.1,3.1L617.2,57.9z M616.7,52h-1.9v1.4h1.9V52z"/>
		<path class="st17" d="M604.2,60.7h0.8c0.2,0,0.2,0,0.2,0.1l0,0c0,0-0.1,0.1-0.1,0.2v0.4h0.7v0.3c0.1-0.2,0.2-0.5,0.3-0.7l0.8,0.3
			c0.1,0,0.1,0,0.1,0.1c0,0,0,0,0,0.1c-0.1,0-0.1,0-0.2,0.1c-0.2,0.4-0.3,0.6-0.5,1h0.4v0.7h-0.9c-0.2,0.2-0.3,0.4-0.5,0.6h0.7
			l0.4,0.3c-0.3,0.4-0.6,0.7-1,1.1l0,0l1.2-0.1v0.6l-1.2,0.1v0.8c0,0.7-0.4,0.8-1.1,0.8l-0.4-0.7h0.5c0.1,0,0.2-0.1,0.2-0.2
			c0,0,0,0,0,0V66c-0.1,0-0.9,0.1-1,0.1s-0.1,0.1-0.2,0.1s-0.1-0.1-0.1-0.2l-0.2-0.7c0.4,0,0.8,0,1.4,0v-0.5h0.3
			c0.1-0.1,0.2-0.3,0.2-0.4h-0.6c-0.3,0.2-0.7,0.5-1,0.7l-0.6-0.5c0.3-0.1,0.5-0.3,0.8-0.5v-0.4h0.5c0.2-0.2,0.4-0.4,0.6-0.6h-1.6
			v-0.7h1.2V62h-1v-0.6h1L604.2,60.7z M605.1,62.5h0.1c0.1-0.1,0.2-0.3,0.3-0.5h-0.5V62.5z M606.1,63.9c0.8-0.9,1.2-2,1.3-3.2
			l0.9,0.1c0,0,0.1,0,0.1,0.1c0,0,0,0,0,0.1c-0.1,0.1-0.1,0.1-0.1,0.2c-0.1,0.4-0.2,0.7-0.3,0.9h1.9v0.8h-0.4c0,1-0.3,2-0.9,2.9
			c0.4,0.5,0.8,0.8,1.3,1.1l-0.6,0.7c-0.5-0.3-0.9-0.6-1.3-1.1c-0.5,0.4-1.1,0.8-1.7,1l-0.6-0.7c0.7-0.2,1.3-0.6,1.8-1.1
			c-0.3-0.5-0.5-1-0.6-1.6l-0.2,0.2L606.1,63.9z M607.7,62.9c-0.1,0.2-0.1,0.2-0.1,0.3c0.1,0.6,0.3,1.3,0.5,1.9
			c0.3-0.7,0.5-1.4,0.5-2.2L607.7,62.9z"/>
		<path class="st17" d="M611,67.3v-0.8h3v-0.6h-2.2v-0.8h2.2v-0.5c-0.8,0.1-1.1,0.1-1.8,0.1c-0.2,0-0.2,0-0.3,0.1s-0.1,0.1-0.2,0.1
			s-0.1-0.2-0.2-0.3v-0.7h1.3c0.1-0.2,0.1-0.3,0.3-0.8h-1v-0.8h4.4v0.8h-0.8c0.6,0.4,1.1,0.9,1.7,1.3l-0.7,0.6
			c-0.2-0.2-0.4-0.4-0.6-0.6l-1.2,0.1h0.1c0.1,0,0.1,0,0.1,0.1s-0.1,0.1-0.1,0.1v0.3h2v0.8h-2v0.6h2.9v0.8L611,67.3z M617,62.9v-0.8
			h-5v0.8h-0.9v-1.6h2.8v-0.7h0.8c0.2,0,0.4,0,0.4,0.1c0,0,0,0.1,0,0.1c-0.1,0.1-0.1,0.1-0.1,0.1v0.3h2.8v1.6L617,62.9z M614.4,63.2
			c-0.2,0.3-0.3,0.5-0.5,0.8c0.7,0,1,0,1.4-0.1l-0.3-0.2l0.4-0.5L614.4,63.2z"/>
		<path class="st17" d="M620.9,64.2c0.2-1.6,0.8-2.5,2.7-4c1.3-0.9,1.7-1.4,1.7-2.2c0-0.8-0.5-1.4-1.3-1.4c0,0,0,0-0.1,0
			c-1.2,0-1.3,1.3-1.3,1.9h-1.5c0-0.8,0.1-3.2,2.8-3.2c1.5-0.1,2.9,1,3,2.6c0,0.1,0,0.1,0,0.2c0,1.4-1,2.2-2.1,3
			c-0.8,0.4-1.4,1.1-1.8,1.9h4v1.3L620.9,64.2z"/>
		<path class="st17" d="M632.5,63.7c-0.6,0.5-1.4,0.8-2.2,0.8c-1.4,0.2-2.6-0.8-2.8-2.1c0-0.2,0-0.3,0-0.5v-0.9h1.6v0.9
			c-0.1,0.6,0.4,1.2,1,1.2c0.1,0,0.2,0,0.2,0c0.8,0,1.2-0.3,1.2-1.5v-6.1h1.6v6.2C633.3,62.4,633,63.1,632.5,63.7z"/>
		<g>
			<path class="st17" d="M427,53.7v-0.5h-8.4v0.5H417V42h11.6v11.7H427z M427,43.4h-8.4v8.4h1.4l-1.2-1.3c0.8-0.2,1.8-0.6,3-1.7
				c-0.1,0-0.1-0.1-0.1-0.1c-1.3-0.7-1.4-0.8-2-1l0.9-1.2c0.8,0.2,1.3,0.5,2.4,1.1c0.8-1,1.4-2.1,2-3.6l1.4,0.5
				c0.2,0.1,0.4,0.2,0.4,0.3c0,0.1-0.1,0.1-0.1,0.2c-0.3,0.1-0.3,0.2-0.4,0.3c-0.5,1.1-1,2-1.9,3.1c1.1,0.8,1.7,1.4,2,1.7l-1.2,1.2
				c-0.4-0.4-0.8-0.9-2-1.7c-1.1,1-2,1.6-2.9,2.1h6.8V43.4z M420.4,46.4c-0.4-0.6-0.8-1-1.5-1.6l1.1-0.9c0.3,0.3,0.9,0.8,1.5,1.7
				L420.4,46.4z M422.5,46.3c-0.2-0.7-0.5-1.3-1-2l1.3-0.6c0.6,0.9,0.8,1.6,1,2.2L422.5,46.3z"/>
			<path class="st17" d="M430.8,49.2v-0.9h5.2v-0.4h-4.2v-0.9h4.2v-0.5h-3.7v-0.9h3.7v-0.6h-5.1V44h5.1v-0.5h-3.6v-0.9h3.6v-0.9
				l1.5,0.1c0.1,0,0.4,0,0.4,0.2c0,0.1-0.1,0.1-0.1,0.1c-0.1,0-0.1,0.1-0.1,0.2v0.4h3.5V44h1.6v0.9h-1.6v1.5h-3.5v0.5h4.1v0.9h-4.1
				v0.4h5.1v0.9H430.8z M439.6,53.7v-0.4H434v0.4h-1.6v-3.9h8.7v3.9H439.6z M439.6,50.7H434v0.5h5.5V50.7z M439.6,51.9H434v0.6h5.5
				V51.9z M439.7,43.5h-2.1V44h2.1V43.5z M439.7,44.9h-2.1v0.6h2.1V44.9z"/>
			<path class="st17" d="M444.8,53.5v-1.4h5.2V51h-3.8v-1.4h3.8v-0.9c-1.4,0.1-2,0.1-3.1,0.2c-0.3,0-0.4,0-0.5,0.1
				c-0.1,0.1-0.2,0.2-0.3,0.2c-0.2,0-0.2-0.3-0.3-0.6l-0.1-1.1c0.7,0,0.9,0,2.3,0c0.2-0.4,0.2-0.4,0.6-1.3H447v-1.3h7.7v1.3h-1.5
				c0.8,0.6,1.6,1.2,2.9,2.3l-1.3,1c-0.5-0.5-0.8-0.8-1.1-1c-0.8,0.1-1.5,0.1-2.2,0.2l0.2,0c0.1,0,0.2,0.1,0.2,0.2
				c0,0.1-0.2,0.2-0.2,0.2v0.6h3.7V51h-3.7v1.1h5.2v1.4H444.8z M455.2,45.7v-1.4h-8.7v1.5h-1.5v-2.8h5v-1.2l1.5,0
				c0.4,0,0.7,0,0.7,0.2c0,0.1-0.1,0.1-0.1,0.2c-0.1,0.1-0.2,0.2-0.2,0.2v0.6h5v2.7H455.2z M450.6,46.2c-0.3,0.5-0.6,0.9-0.8,1.3
				c1.2,0,1.8-0.1,2.5-0.1c-0.2-0.2-0.3-0.2-0.5-0.4l0.7-0.8H450.6z"/>
		</g>
		<text transform="matrix(1 0 0 1 77.73 83.2665)" class="st17 st22 st23">入場受付</text>
		<text transform="matrix(1 0 0 1 77.73 93.5601)" class="st17 st22 st23">退場受付</text>
		<line class="st10" x1="67.9" y1="86" x2="59.1" y2="86"/>
	</g>
</g>
</svg>
