<svg xmlns="http://www.w3.org/2000/svg" xmlns:xlink="http://www.w3.org/1999/xlink" viewBox="0 0 350.94 169.07"><defs><style>.cls-1,.cls-10,.cls-11,.cls-2,.cls-3,.cls-6,.cls-7{fill:none;}.cls-2{stroke:#de7a7a;}.cls-2,.cls-3{stroke-width:0.72px;}.cls-3{stroke:#231815;}.cls-4{fill-opacity:0.26;fill:url(#新規パターン_2);}.cls-5{fill:url(#_10_lpi_10_2);}.cls-10,.cls-11,.cls-6,.cls-7{stroke:#369;}.cls-7,.cls-8{stroke-width:0.5px;}.cls-8{fill:#fff;stroke:#3e3a39;stroke-linecap:round;stroke-linejoin:round;}.cls-9{fill:#3e3a39;}.cls-10,.cls-11{stroke-miterlimit:10;}.cls-11{stroke-dasharray:2;}</style><pattern id="新規パターン_2" data-name="新規パターン 2" width="72" height="72" patternUnits="userSpaceOnUse" viewBox="0 0 72 72"><rect class="cls-1" width="72" height="72"/><line class="cls-3" x1="67.25" y1="157.74" x2="157.74" y2="67.25"/><line class="cls-3" x1="49.27" y1="139.77" x2="139.77" y2="49.27"/><line class="cls-3" x1="31.3" y1="121.79" x2="121.79" y2="31.3"/><line class="cls-3" x1="58.26" y1="148.75" x2="148.75" y2="58.26"/><line class="cls-3" x1="40.28" y1="130.78" x2="130.78" y2="40.28"/><line class="cls-3" x1="22.31" y1="112.81" x2="112.81" y2="22.31"/><line class="cls-3" x1="62.75" y1="153.25" x2="153.25" y2="62.75"/><line class="cls-3" x1="44.78" y1="135.27" x2="135.27" y2="44.78"/><line class="cls-3" x1="26.8" y1="117.3" x2="117.3" y2="26.8"/><line class="cls-3" x1="71.74" y1="162.24" x2="162.24" y2="71.74"/><line class="cls-3" x1="53.77" y1="144.26" x2="144.26" y2="53.77"/><line class="cls-3" x1="35.79" y1="126.29" x2="126.29" y2="35.79"/><line class="cls-3" x1="17.82" y1="108.31" x2="108.31" y2="17.82"/><line class="cls-3" x1="-4.75" y1="157.74" x2="85.74" y2="67.25"/><line class="cls-3" x1="-22.73" y1="139.77" x2="67.77" y2="49.27"/><line class="cls-3" x1="-40.7" y1="121.79" x2="49.79" y2="31.3"/><line class="cls-3" x1="-13.74" y1="148.75" x2="76.75" y2="58.26"/><line class="cls-3" x1="-31.72" y1="130.78" x2="58.78" y2="40.28"/><line class="cls-3" x1="-49.69" y1="112.81" x2="40.81" y2="22.31"/><line class="cls-3" x1="-9.25" y1="153.25" x2="81.25" y2="62.75"/><line class="cls-3" x1="-27.22" y1="135.27" x2="63.27" y2="44.78"/><line class="cls-3" x1="-45.2" y1="117.3" x2="45.3" y2="26.8"/><line class="cls-3" x1="-0.26" y1="162.24" x2="90.24" y2="71.74"/><line class="cls-3" x1="-18.23" y1="144.26" x2="72.26" y2="53.77"/><line class="cls-3" x1="-36.21" y1="126.29" x2="54.29" y2="35.79"/><line class="cls-3" x1="-54.18" y1="108.31" x2="36.31" y2="17.82"/><line class="cls-3" x1="-76.75" y1="157.74" x2="13.74" y2="67.25"/><line class="cls-3" x1="-85.74" y1="148.75" x2="4.75" y2="58.26"/><line class="cls-3" x1="-81.25" y1="153.25" x2="9.25" y2="62.75"/><line class="cls-3" x1="-72.26" y1="162.24" x2="18.24" y2="71.74"/><line class="cls-3" x1="-90.23" y1="144.26" x2="0.26" y2="53.77"/><line class="cls-3" x1="67.25" y1="85.74" x2="157.74" y2="-4.75"/><line class="cls-3" x1="49.27" y1="67.77" x2="139.77" y2="-22.73"/><line class="cls-3" x1="31.3" y1="49.79" x2="121.79" y2="-40.7"/><line class="cls-3" x1="58.26" y1="76.75" x2="148.75" y2="-13.74"/><line class="cls-3" x1="40.28" y1="58.78" x2="130.78" y2="-31.72"/><line class="cls-3" x1="22.31" y1="40.81" x2="112.81" y2="-49.69"/><line class="cls-3" x1="62.75" y1="81.25" x2="153.25" y2="-9.25"/><line class="cls-3" x1="44.78" y1="63.27" x2="135.27" y2="-27.22"/><line class="cls-3" x1="26.8" y1="45.3" x2="117.3" y2="-45.2"/><line class="cls-3" x1="71.74" y1="90.24" x2="162.24" y2="-0.26"/><line class="cls-3" x1="53.77" y1="72.26" x2="144.26" y2="-18.23"/><line class="cls-3" x1="35.79" y1="54.29" x2="126.29" y2="-36.21"/><line class="cls-3" x1="17.82" y1="36.31" x2="108.31" y2="-54.18"/><line class="cls-3" x1="31.19" y1="121.69" x2="121.69" y2="31.19"/><line class="cls-3" x1="13.22" y1="103.72" x2="103.72" y2="13.22"/><line class="cls-3" x1="-4.75" y1="85.74" x2="85.74" y2="-4.75"/><line class="cls-3" x1="-22.73" y1="67.77" x2="67.77" y2="-22.73"/><line class="cls-3" x1="-40.7" y1="49.79" x2="49.79" y2="-40.7"/><line class="cls-3" x1="22.21" y1="112.7" x2="112.7" y2="22.21"/><line class="cls-3" x1="4.23" y1="94.73" x2="94.73" y2="4.23"/><line class="cls-3" x1="-13.74" y1="76.75" x2="76.75" y2="-13.74"/><line class="cls-3" x1="-31.72" y1="58.78" x2="58.78" y2="-31.72"/><line class="cls-3" x1="-49.69" y1="40.81" x2="40.81" y2="-49.69"/><line class="cls-3" x1="26.7" y1="117.2" x2="117.2" y2="26.7"/><line class="cls-3" x1="8.73" y1="99.22" x2="99.22" y2="8.73"/><line class="cls-3" x1="-9.25" y1="81.25" x2="81.25" y2="-9.25"/><line class="cls-3" x1="-27.22" y1="63.27" x2="63.27" y2="-27.22"/><line class="cls-3" x1="-45.2" y1="45.3" x2="45.3" y2="-45.2"/><line class="cls-3" x1="17.71" y1="108.21" x2="108.21" y2="17.71"/><line class="cls-3" x1="-0.26" y1="90.24" x2="90.24" y2="-0.26"/><line class="cls-3" x1="-18.23" y1="72.26" x2="72.26" y2="-18.23"/><line class="cls-3" x1="-36.21" y1="54.29" x2="54.29" y2="-36.21"/><line class="cls-3" x1="-54.18" y1="36.31" x2="36.31" y2="-54.18"/><line class="cls-3" x1="-40.81" y1="121.69" x2="49.69" y2="31.19"/><line class="cls-3" x1="-58.78" y1="103.72" x2="31.72" y2="13.22"/><line class="cls-3" x1="-76.75" y1="85.74" x2="13.74" y2="-4.75"/><line class="cls-3" x1="-49.79" y1="112.7" x2="40.7" y2="22.21"/><line class="cls-3" x1="-67.77" y1="94.73" x2="22.73" y2="4.23"/><line class="cls-3" x1="-85.74" y1="76.75" x2="4.75" y2="-13.74"/><line class="cls-3" x1="-45.3" y1="117.2" x2="45.2" y2="26.7"/><line class="cls-3" x1="-63.27" y1="99.22" x2="27.22" y2="8.73"/><line class="cls-3" x1="-81.25" y1="81.25" x2="9.25" y2="-9.25"/><line class="cls-3" x1="-54.29" y1="108.21" x2="36.21" y2="17.71"/><line class="cls-3" x1="-72.26" y1="90.24" x2="18.24" y2="-0.26"/><line class="cls-3" x1="-90.23" y1="72.26" x2="0.26" y2="-18.23"/><line class="cls-3" x1="67.25" y1="13.74" x2="157.74" y2="-76.75"/><line class="cls-3" x1="58.26" y1="4.75" x2="148.75" y2="-85.74"/><line class="cls-3" x1="62.75" y1="9.25" x2="153.25" y2="-81.25"/><line class="cls-3" x1="71.74" y1="18.24" x2="162.24" y2="-72.26"/><line class="cls-3" x1="53.77" y1="0.26" x2="144.26" y2="-90.23"/><line class="cls-3" x1="31.19" y1="49.69" x2="121.69" y2="-40.81"/><line class="cls-3" x1="13.22" y1="31.72" x2="103.72" y2="-58.78"/><line class="cls-3" x1="-4.75" y1="13.74" x2="85.74" y2="-76.75"/><line class="cls-3" x1="22.21" y1="40.7" x2="112.7" y2="-49.79"/><line class="cls-3" x1="4.23" y1="22.73" x2="94.73" y2="-67.77"/><line class="cls-3" x1="-13.74" y1="4.75" x2="76.75" y2="-85.74"/><line class="cls-3" x1="26.7" y1="45.2" x2="117.2" y2="-45.3"/><line class="cls-3" x1="8.73" y1="27.22" x2="99.22" y2="-63.27"/><line class="cls-3" x1="-9.25" y1="9.25" x2="81.25" y2="-81.25"/><line class="cls-3" x1="17.71" y1="36.21" x2="108.21" y2="-54.29"/><line class="cls-3" x1="-0.26" y1="18.24" x2="90.24" y2="-72.26"/><line class="cls-3" x1="-18.23" y1="0.26" x2="72.26" y2="-90.23"/><line class="cls-3" x1="-40.81" y1="49.69" x2="49.69" y2="-40.81"/><line class="cls-3" x1="-58.78" y1="31.72" x2="31.72" y2="-58.78"/><line class="cls-3" x1="-76.75" y1="13.74" x2="13.74" y2="-76.75"/><line class="cls-3" x1="-49.79" y1="40.7" x2="40.7" y2="-49.79"/><line class="cls-3" x1="-67.77" y1="22.73" x2="22.73" y2="-67.77"/><line class="cls-3" x1="-85.74" y1="4.75" x2="4.75" y2="-85.74"/><line class="cls-3" x1="-45.3" y1="45.2" x2="45.2" y2="-45.3"/><line class="cls-3" x1="-63.27" y1="27.22" x2="27.22" y2="-63.27"/><line class="cls-3" x1="-81.25" y1="9.25" x2="9.25" y2="-81.25"/><line class="cls-3" x1="-54.29" y1="36.21" x2="36.21" y2="-54.29"/><line class="cls-3" x1="-72.26" y1="18.24" x2="18.24" y2="-72.26"/><line class="cls-3" x1="-90.23" y1="0.26" x2="0.26" y2="-90.23"/></pattern><pattern id="_10_lpi_10_2" data-name="10 lpi 10 % 2" width="72" height="72" patternUnits="userSpaceOnUse" viewBox="0 0 72 72"><rect class="cls-1" width="72" height="72"/><line class="cls-2" x1="67.25" y1="157.74" x2="157.74" y2="67.25"/><line class="cls-2" x1="49.27" y1="139.77" x2="139.77" y2="49.27"/><line class="cls-2" x1="31.3" y1="121.79" x2="121.79" y2="31.3"/><line class="cls-2" x1="58.26" y1="148.75" x2="148.75" y2="58.26"/><line class="cls-2" x1="40.28" y1="130.78" x2="130.78" y2="40.28"/><line class="cls-2" x1="22.31" y1="112.81" x2="112.81" y2="22.31"/><line class="cls-2" x1="62.75" y1="153.25" x2="153.25" y2="62.75"/><line class="cls-2" x1="44.78" y1="135.27" x2="135.27" y2="44.78"/><line class="cls-2" x1="26.8" y1="117.3" x2="117.3" y2="26.8"/><line class="cls-2" x1="71.74" y1="162.24" x2="162.24" y2="71.74"/><line class="cls-2" x1="53.77" y1="144.26" x2="144.26" y2="53.77"/><line class="cls-2" x1="35.79" y1="126.29" x2="126.29" y2="35.79"/><line class="cls-2" x1="17.82" y1="108.31" x2="108.31" y2="17.82"/><line class="cls-2" x1="-4.75" y1="157.74" x2="85.74" y2="67.25"/><line class="cls-2" x1="-22.73" y1="139.77" x2="67.77" y2="49.27"/><line class="cls-2" x1="-40.7" y1="121.79" x2="49.79" y2="31.3"/><line class="cls-2" x1="-13.74" y1="148.75" x2="76.75" y2="58.26"/><line class="cls-2" x1="-31.72" y1="130.78" x2="58.78" y2="40.28"/><line class="cls-2" x1="-49.69" y1="112.81" x2="40.81" y2="22.31"/><line class="cls-2" x1="-9.25" y1="153.25" x2="81.25" y2="62.75"/><line class="cls-2" x1="-27.22" y1="135.27" x2="63.27" y2="44.78"/><line class="cls-2" x1="-45.2" y1="117.3" x2="45.3" y2="26.8"/><line class="cls-2" x1="-0.26" y1="162.24" x2="90.24" y2="71.74"/><line class="cls-2" x1="-18.23" y1="144.26" x2="72.26" y2="53.77"/><line class="cls-2" x1="-36.21" y1="126.29" x2="54.29" y2="35.79"/><line class="cls-2" x1="-54.18" y1="108.31" x2="36.31" y2="17.82"/><line class="cls-2" x1="-76.75" y1="157.74" x2="13.74" y2="67.25"/><line class="cls-2" x1="-85.74" y1="148.75" x2="4.75" y2="58.26"/><line class="cls-2" x1="-81.25" y1="153.25" x2="9.25" y2="62.75"/><line class="cls-2" x1="-72.26" y1="162.24" x2="18.24" y2="71.74"/><line class="cls-2" x1="-90.23" y1="144.26" x2="0.26" y2="53.77"/><line class="cls-2" x1="67.25" y1="85.74" x2="157.74" y2="-4.75"/><line class="cls-2" x1="49.27" y1="67.77" x2="139.77" y2="-22.73"/><line class="cls-2" x1="31.3" y1="49.79" x2="121.79" y2="-40.7"/><line class="cls-2" x1="58.26" y1="76.75" x2="148.75" y2="-13.74"/><line class="cls-2" x1="40.28" y1="58.78" x2="130.78" y2="-31.72"/><line class="cls-2" x1="22.31" y1="40.81" x2="112.81" y2="-49.69"/><line class="cls-2" x1="62.75" y1="81.25" x2="153.25" y2="-9.25"/><line class="cls-2" x1="44.78" y1="63.27" x2="135.27" y2="-27.22"/><line class="cls-2" x1="26.8" y1="45.3" x2="117.3" y2="-45.2"/><line class="cls-2" x1="71.74" y1="90.24" x2="162.24" y2="-0.26"/><line class="cls-2" x1="53.77" y1="72.26" x2="144.26" y2="-18.23"/><line class="cls-2" x1="35.79" y1="54.29" x2="126.29" y2="-36.21"/><line class="cls-2" x1="17.82" y1="36.31" x2="108.31" y2="-54.18"/><line class="cls-2" x1="31.19" y1="121.69" x2="121.69" y2="31.19"/><line class="cls-2" x1="13.22" y1="103.72" x2="103.72" y2="13.22"/><line class="cls-2" x1="-4.75" y1="85.74" x2="85.74" y2="-4.75"/><line class="cls-2" x1="-22.73" y1="67.77" x2="67.77" y2="-22.73"/><line class="cls-2" x1="-40.7" y1="49.79" x2="49.79" y2="-40.7"/><line class="cls-2" x1="22.21" y1="112.7" x2="112.7" y2="22.21"/><line class="cls-2" x1="4.23" y1="94.73" x2="94.73" y2="4.23"/><line class="cls-2" x1="-13.74" y1="76.75" x2="76.75" y2="-13.74"/><line class="cls-2" x1="-31.72" y1="58.78" x2="58.78" y2="-31.72"/><line class="cls-2" x1="-49.69" y1="40.81" x2="40.81" y2="-49.69"/><line class="cls-2" x1="26.7" y1="117.2" x2="117.2" y2="26.7"/><line class="cls-2" x1="8.73" y1="99.22" x2="99.22" y2="8.73"/><line class="cls-2" x1="-9.25" y1="81.25" x2="81.25" y2="-9.25"/><line class="cls-2" x1="-27.22" y1="63.27" x2="63.27" y2="-27.22"/><line class="cls-2" x1="-45.2" y1="45.3" x2="45.3" y2="-45.2"/><line class="cls-2" x1="17.71" y1="108.21" x2="108.21" y2="17.71"/><line class="cls-2" x1="-0.26" y1="90.24" x2="90.24" y2="-0.26"/><line class="cls-2" x1="-18.23" y1="72.26" x2="72.26" y2="-18.23"/><line class="cls-2" x1="-36.21" y1="54.29" x2="54.29" y2="-36.21"/><line class="cls-2" x1="-54.18" y1="36.31" x2="36.31" y2="-54.18"/><line class="cls-2" x1="-40.81" y1="121.69" x2="49.69" y2="31.19"/><line class="cls-2" x1="-58.78" y1="103.72" x2="31.72" y2="13.22"/><line class="cls-2" x1="-76.75" y1="85.74" x2="13.74" y2="-4.75"/><line class="cls-2" x1="-49.79" y1="112.7" x2="40.7" y2="22.21"/><line class="cls-2" x1="-67.77" y1="94.73" x2="22.73" y2="4.23"/><line class="cls-2" x1="-85.74" y1="76.75" x2="4.75" y2="-13.74"/><line class="cls-2" x1="-45.3" y1="117.2" x2="45.2" y2="26.7"/><line class="cls-2" x1="-63.27" y1="99.22" x2="27.22" y2="8.73"/><line class="cls-2" x1="-81.25" y1="81.25" x2="9.25" y2="-9.25"/><line class="cls-2" x1="-54.29" y1="108.21" x2="36.21" y2="17.71"/><line class="cls-2" x1="-72.26" y1="90.24" x2="18.24" y2="-0.26"/><line class="cls-2" x1="-90.23" y1="72.26" x2="0.26" y2="-18.23"/><line class="cls-2" x1="67.25" y1="13.74" x2="157.74" y2="-76.75"/><line class="cls-2" x1="58.26" y1="4.75" x2="148.75" y2="-85.74"/><line class="cls-2" x1="62.75" y1="9.25" x2="153.25" y2="-81.25"/><line class="cls-2" x1="71.74" y1="18.24" x2="162.24" y2="-72.26"/><line class="cls-2" x1="53.77" y1="0.26" x2="144.26" y2="-90.23"/><line class="cls-2" x1="31.19" y1="49.69" x2="121.69" y2="-40.81"/><line class="cls-2" x1="13.22" y1="31.72" x2="103.72" y2="-58.78"/><line class="cls-2" x1="-4.75" y1="13.74" x2="85.74" y2="-76.75"/><line class="cls-2" x1="22.21" y1="40.7" x2="112.7" y2="-49.79"/><line class="cls-2" x1="4.23" y1="22.73" x2="94.73" y2="-67.77"/><line class="cls-2" x1="-13.74" y1="4.75" x2="76.75" y2="-85.74"/><line class="cls-2" x1="26.7" y1="45.2" x2="117.2" y2="-45.3"/><line class="cls-2" x1="8.73" y1="27.22" x2="99.22" y2="-63.27"/><line class="cls-2" x1="-9.25" y1="9.25" x2="81.25" y2="-81.25"/><line class="cls-2" x1="17.71" y1="36.21" x2="108.21" y2="-54.29"/><line class="cls-2" x1="-0.26" y1="18.24" x2="90.24" y2="-72.26"/><line class="cls-2" x1="-18.23" y1="0.26" x2="72.26" y2="-90.23"/><line class="cls-2" x1="-40.81" y1="49.69" x2="49.69" y2="-40.81"/><line class="cls-2" x1="-58.78" y1="31.72" x2="31.72" y2="-58.78"/><line class="cls-2" x1="-76.75" y1="13.74" x2="13.74" y2="-76.75"/><line class="cls-2" x1="-49.79" y1="40.7" x2="40.7" y2="-49.79"/><line class="cls-2" x1="-67.77" y1="22.73" x2="22.73" y2="-67.77"/><line class="cls-2" x1="-85.74" y1="4.75" x2="4.75" y2="-85.74"/><line class="cls-2" x1="-45.3" y1="45.2" x2="45.2" y2="-45.3"/><line class="cls-2" x1="-63.27" y1="27.22" x2="27.22" y2="-63.27"/><line class="cls-2" x1="-81.25" y1="9.25" x2="9.25" y2="-81.25"/><line class="cls-2" x1="-54.29" y1="36.21" x2="36.21" y2="-54.29"/><line class="cls-2" x1="-72.26" y1="18.24" x2="18.24" y2="-72.26"/><line class="cls-2" x1="-90.23" y1="0.26" x2="0.26" y2="-90.23"/></pattern></defs><g id="レイヤー_2" data-name="レイヤー 2"><g id="_3F" data-name="3F"><rect class="cls-4" x="98.53" y="85.94" width="154.7" height="37.06"/><rect class="cls-5" x="213.83" y="38.44" width="39.24" height="37.39"/><rect class="cls-5" x="193.88" y="38.44" width="19.95" height="37.39"/><rect class="cls-5" x="155.59" y="38.44" width="18.74" height="37.4"/><rect class="cls-5" x="126.06" y="38.44" width="29.53" height="37.39"/><rect class="cls-5" x="38.15" y="61.32" width="29.89" height="24.62"/><rect class="cls-5" x="38.15" y="37.94" width="29.89" height="23.37"/><rect class="cls-5" x="327.76" y="38.44" width="21.08" height="36.98"/><rect class="cls-5" x="300.97" y="38.44" width="26.78" height="37.39"/><rect class="cls-6" x="0.5" y="131.51" width="38.8" height="37.07"/><rect class="cls-6" x="39.3" y="131.51" width="38.8" height="37.07"/><rect class="cls-6" x="97.87" y="131.51" width="38.8" height="37.07"/><rect class="cls-6" x="214.27" y="131.51" width="38.8" height="37.07"/><rect class="cls-6" x="272.84" y="131.51" width="38.8" height="37.07"/><rect class="cls-6" x="98.53" y="85.94" width="154.54" height="37.06"/><rect class="cls-6" x="311.64" y="131.51" width="38.8" height="37.07"/><rect class="cls-6" x="136.67" y="131.51" width="38.8" height="37.07"/><rect class="cls-6" x="175.47" y="131.51" width="38.8" height="37.07"/><line class="cls-7" x1="97.87" y1="138.67" x2="78.1" y2="138.67"/><polyline class="cls-6" points="78.1 138.67 87.99 138.67 87.99 152.56"/><line class="cls-7" x1="78.1" y1="140.98" x2="97.87" y2="140.98"/><line class="cls-7" x1="78.1" y1="143.3" x2="97.87" y2="143.3"/><line class="cls-7" x1="78.1" y1="145.61" x2="97.87" y2="145.61"/><line class="cls-7" x1="78.1" y1="147.93" x2="97.87" y2="147.93"/><line class="cls-7" x1="97.87" y1="59.26" x2="78.1" y2="59.26"/><polyline class="cls-6" points="97.79 59.26 87.9 59.26 87.9 45.38"/><line class="cls-7" x1="78.1" y1="56.95" x2="97.87" y2="56.95"/><line class="cls-7" x1="78.1" y1="54.63" x2="97.87" y2="54.63"/><line class="cls-7" x1="78.1" y1="52.32" x2="97.87" y2="52.32"/><line class="cls-7" x1="78.1" y1="50" x2="97.87" y2="50"/><line class="cls-7" x1="78.1" y1="47.69" x2="97.87" y2="47.69"/><line class="cls-7" x1="78.1" y1="45.38" x2="97.87" y2="45.38"/><line class="cls-7" x1="272.84" y1="138.67" x2="253.07" y2="138.67"/><polyline class="cls-6" points="253.07 138.67 262.96 138.67 262.96 152.56"/><line class="cls-7" x1="253.07" y1="140.98" x2="272.84" y2="140.98"/><line class="cls-7" x1="253.07" y1="143.3" x2="272.84" y2="143.3"/><line class="cls-7" x1="253.07" y1="145.61" x2="272.84" y2="145.61"/><line class="cls-7" x1="253.07" y1="147.93" x2="272.84" y2="147.93"/><line class="cls-7" x1="272.84" y1="59.26" x2="253.07" y2="59.26"/><polyline class="cls-6" points="272.85 59.26 262.96 59.26 262.96 45.38"/><line class="cls-7" x1="253.07" y1="56.95" x2="272.84" y2="56.95"/><line class="cls-7" x1="253.07" y1="54.63" x2="272.84" y2="54.63"/><line class="cls-7" x1="253.07" y1="52.32" x2="272.84" y2="52.32"/><line class="cls-7" x1="253.07" y1="50" x2="272.84" y2="50"/><line class="cls-7" x1="253.07" y1="47.69" x2="272.84" y2="47.69"/><line class="cls-7" x1="253.07" y1="45.38" x2="272.84" y2="45.38"/><polyline class="cls-6" points="47.45 85.94 79.98 85.94 79.98 90.59"/><polyline class="cls-6" points="78 75.71 78 0.5 38.15 0.5 38.15 85.94 47.44 85.94"/><line class="cls-6" x1="97.9" y1="38.51" x2="97.9" y2="75.71"/><line class="cls-6" x1="111.98" y1="38.51" x2="111.98" y2="66.1"/><line class="cls-6" x1="102.29" y1="65.9" x2="121.66" y2="65.9"/><polyline class="cls-6" points="78.1 38.44 253.07 38.44 253.07 75.84 193.88 75.84 193.88 38.44"/><polyline class="cls-6" points="126.06 38.44 126.06 75.84 174.33 75.84 174.33 38.44"/><line class="cls-6" x1="272.81" y1="38.51" x2="272.81" y2="75.71"/><line class="cls-6" x1="286.89" y1="38.51" x2="286.89" y2="74.69"/><line class="cls-6" x1="327.76" y1="38.51" x2="327.76" y2="75.83"/><polyline class="cls-6" points="38.15 37.94 68.04 37.94 68.04 85.94"/><line class="cls-6" x1="68.04" y1="37.94" x2="78" y2="37.94"/><line class="cls-6" x1="38.15" y1="61.32" x2="68.04" y2="61.32"/><line class="cls-6" x1="213.83" y1="38.44" x2="213.83" y2="75.84"/><line class="cls-6" x1="295.26" y1="74.69" x2="278.52" y2="74.69"/><polyline class="cls-6" points="350.44 131.51 350.44 123.11 272.84 123.11 272.84 123.11 272.84 85.94 348.84 85.94 348.84 75.84"/><polyline class="cls-6" points="79.98 90.59 79.98 123.11 79.98 123.11 0.5 123.11 0.5 131.51"/><line class="cls-6" x1="155.59" y1="75.83" x2="155.59" y2="38.44"/><line class="cls-6" x1="174.33" y1="66.21" x2="193.88" y2="66.21"/><polyline class="cls-6" points="253.07 38.44 300.97 38.44 300.97 75.84 348.84 75.84 348.84 38.44 300.97 38.44"/><line class="cls-6" x1="78.1" y1="160.58" x2="97.87" y2="160.58"/><line class="cls-6" x1="253.07" y1="160.58" x2="272.85" y2="160.58"/><path class="cls-8" d="M118.85,46.14a1.55,1.55,0,1,0-1.54-1.55A1.55,1.55,0,0,0,118.85,46.14Z"/><path class="cls-8" d="M123,52.38l-1.14-4c-.31-1.06-1-1.76-1.81-1.76h-2.42c-.79,0-1.49.7-1.8,1.76l-1.14,4a.64.64,0,1,0,1.23.32l1.13-4h.34l-2,7h1.87v5.2a.72.72,0,1,0,1.43,0v-5.2h.4v5.2a.72.72,0,0,0,1.44,0v-5.2h1.72l-2-7h.33l1.14,4a.63.63,0,0,0,.76.46A.66.66,0,0,0,123,52.38Z"/><path class="cls-8" d="M104.87,46.14a1.55,1.55,0,1,0-1.55-1.55A1.56,1.56,0,0,0,104.87,46.14Z"/><path class="cls-8" d="M106.77,46.57h-4.06a1.75,1.75,0,0,0-1.57,1.57v5.2a.68.68,0,0,0,1.36,0V49.06h.31V60.67a.9.9,0,0,0,1.79,0V53.93h.29v6.74a.89.89,0,1,0,1.78,0V49.06H107v4.28a.68.68,0,0,0,1.36,0v-5.2A1.75,1.75,0,0,0,106.77,46.57Z"/><path class="cls-8" d="M293.66,50.42a1.55,1.55,0,1,0-1.55-1.55A1.56,1.56,0,0,0,293.66,50.42Z"/><path class="cls-8" d="M297.81,56.66l-1.14-4c-.31-1.06-1-1.76-1.8-1.76h-2.42c-.79,0-1.49.7-1.81,1.76l-1.14,4a.66.66,0,0,0,.47.78.63.63,0,0,0,.76-.46l1.14-4h.33l-2,7h1.86v5.2a.72.72,0,0,0,1.44,0V60h.4v5.2a.72.72,0,1,0,1.43,0V60h1.73l-2-7h.34l1.13,4a.64.64,0,1,0,1.23-.32Z"/><path class="cls-8" d="M279.68,50.42a1.55,1.55,0,1,0-1.55-1.55A1.55,1.55,0,0,0,279.68,50.42Z"/><path class="cls-8" d="M281.58,50.85h-4.06A1.75,1.75,0,0,0,276,52.42v5.2a.68.68,0,0,0,1.36,0V53.34h.31V65a.89.89,0,0,0,1.78,0V58.21h.29V65a.89.89,0,0,0,1.78,0V53.34h.32v4.28a.68.68,0,0,0,1.36,0v-5.2A1.75,1.75,0,0,0,281.58,50.85Z"/><path class="cls-9" d="M108.58,72.23V68.29h3v.61h-2.26v1h2.08v.57h-2.08v1.16h2.34v.62Z"/><path class="cls-9" d="M114.1,72.23h-.73L112,68.29h.78l.87,2.73.12.54.12-.54.87-2.73h.78Z"/><rect class="cls-10" x="106.8" y="65.9" width="10.35" height="8.75"/><path class="cls-9" d="M12,154.25c.22-1.56.76-2.49,2.73-3.94,1.29-.94,1.67-1.42,1.67-2.19a1.37,1.37,0,0,0-1.37-1.45c-1.21,0-1.24,1.26-1.26,1.91H12.27c0-.78.12-3.24,2.83-3.24a2.78,2.78,0,0,1,3,2.78c0,1.41-1,2.2-2.13,3A4.41,4.41,0,0,0,14.08,153h4.06v1.26Z"/><path class="cls-9" d="M18.8,151.73v-1.41h3v1.41Z"/><path class="cls-9" d="M25,154.25v-6.09H22.64V147h.69a2,2,0,0,0,1.91-1.52h1.3v8.75Z"/><path class="cls-9" d="M50.83,154.25c.22-1.56.76-2.49,2.74-3.94,1.28-.94,1.66-1.42,1.66-2.19a1.37,1.37,0,0,0-1.36-1.45c-1.21,0-1.25,1.26-1.26,1.91H51.08c0-.78.12-3.24,2.83-3.24a2.79,2.79,0,0,1,3,2.78c0,1.41-1,2.2-2.14,3A4.44,4.44,0,0,0,52.9,153H57v1.26Z"/><path class="cls-9" d="M57.61,151.73v-1.41h3v1.41Z"/><path class="cls-9" d="M61.28,154.25c.22-1.56.76-2.49,2.74-3.94,1.28-.94,1.67-1.42,1.67-2.19a1.38,1.38,0,0,0-1.37-1.45c-1.21,0-1.25,1.26-1.26,1.91H61.54c0-.78.12-3.24,2.83-3.24a2.78,2.78,0,0,1,3,2.78c0,1.41-1,2.2-2.14,3A4.44,4.44,0,0,0,63.35,153H67.4v1.26Z"/><path class="cls-9" d="M109.43,154.25c.21-1.56.75-2.49,2.73-3.94,1.28-.94,1.67-1.42,1.67-2.19a1.38,1.38,0,0,0-1.37-1.45c-1.21,0-1.25,1.26-1.26,1.91h-1.52c0-.78.12-3.24,2.83-3.24a2.78,2.78,0,0,1,3,2.78c0,1.41-1,2.2-2.13,3a4.41,4.41,0,0,0-1.85,1.88h4.05v1.26Z"/><path class="cls-9" d="M116.21,151.73v-1.41h3v1.41Z"/><path class="cls-9" d="M122.89,154.42a3.15,3.15,0,0,1-2.22-.86,3,3,0,0,1-.77-2.12h1.6c0,1.24.67,1.65,1.39,1.65a1.39,1.39,0,0,0,1.44-1.49c0-1-.63-1.38-1.56-1.38h-.67v-1.07h.67a1.27,1.27,0,0,0,1.37-1.27,1.16,1.16,0,0,0-1.26-1.21,1.32,1.32,0,0,0-1.36,1.5h-1.45a2.83,2.83,0,0,1,.44-1.57,2.89,2.89,0,0,1,2.47-1.26,2.5,2.5,0,0,1,2.73,2.29,1.89,1.89,0,0,1-1,1.81,2.4,2.4,0,0,1,1.3,2.15A2.87,2.87,0,0,1,122.89,154.42Z"/><path class="cls-9" d="M148.24,154.25c.22-1.56.75-2.49,2.73-3.94,1.29-.94,1.67-1.42,1.67-2.19a1.38,1.38,0,0,0-1.37-1.45c-1.21,0-1.24,1.26-1.26,1.91h-1.52c0-.78.12-3.24,2.83-3.24a2.78,2.78,0,0,1,3,2.78c0,1.41-1,2.2-2.13,3A4.41,4.41,0,0,0,150.3,153h4.06v1.26Z"/><path class="cls-9" d="M155,151.73v-1.41h3v1.41Z"/><path class="cls-9" d="M163.78,152.38v1.87h-1.59v-1.87h-3.64v-1.26L162,145.5h1.78v5.72H165v1.16Zm-1.77-5-2.18,3.55-.34.41.34-.08h2.36v-3.61l.06-.79Z"/><path class="cls-9" d="M187.05,154.25c.22-1.56.76-2.49,2.74-3.94,1.28-.94,1.66-1.42,1.66-2.19a1.37,1.37,0,0,0-1.36-1.45c-1.22,0-1.25,1.26-1.26,1.91H187.3c0-.78.12-3.24,2.83-3.24a2.79,2.79,0,0,1,3,2.78c0,1.41-1,2.2-2.14,3a4.54,4.54,0,0,0-1.85,1.88h4.06v1.26Z"/><path class="cls-9" d="M193.83,151.73v-1.41h3v1.41Z"/><path class="cls-9" d="M200.53,154.42a2.77,2.77,0,0,1-3-2.54h1.57a1.32,1.32,0,0,0,1.37,1.17,1.44,1.44,0,0,0,1.41-1.62,1.52,1.52,0,0,0-1.51-1.66,1.11,1.11,0,0,0-1.12.78l-1.48-.14.62-4.91h4.85v1.29h-3.77l-.21,1.73-.13.62a1.91,1.91,0,0,1,1.63-.7,2.78,2.78,0,0,1,2.78,2.88A2.94,2.94,0,0,1,200.53,154.42Z"/><path class="cls-9" d="M225.87,154.25c.21-1.56.75-2.49,2.73-3.94,1.28-.94,1.67-1.42,1.67-2.19a1.38,1.38,0,0,0-1.37-1.45c-1.21,0-1.25,1.26-1.26,1.91h-1.52c0-.78.12-3.24,2.83-3.24a2.78,2.78,0,0,1,3,2.78c0,1.41-1,2.2-2.13,3a4.41,4.41,0,0,0-1.85,1.88h4v1.26Z"/><path class="cls-9" d="M232.65,151.73v-1.41h3v1.41Z"/><path class="cls-9" d="M239.45,154.42c-2.41,0-3.07-2.34-3.07-4.14,0-.92.08-4.94,3.21-4.94a2.65,2.65,0,0,1,1.87.73,2.55,2.55,0,0,1,.78,1.63h-1.58a1.08,1.08,0,0,0-1.1-1c-1.29,0-1.48,1.54-1.62,2.71a2,2,0,0,1,1.78-.93,2.7,2.7,0,0,1,2.65,2.83A3,3,0,0,1,239.45,154.42Zm0-4.65a1.51,1.51,0,0,0-1.44,1.65,1.42,1.42,0,0,0,1.38,1.57,1.4,1.4,0,0,0,1.35-1.58C240.74,150.47,240.24,149.77,239.45,149.77Z"/><path class="cls-9" d="M284.45,154.25c.22-1.56.76-2.49,2.74-3.94,1.28-.94,1.67-1.42,1.67-2.19a1.38,1.38,0,0,0-1.37-1.45c-1.21,0-1.25,1.26-1.26,1.91h-1.52c0-.78.12-3.24,2.83-3.24a2.78,2.78,0,0,1,3,2.78c0,1.41-1,2.2-2.14,3a4.44,4.44,0,0,0-1.84,1.88h4.05v1.26Z"/><path class="cls-9" d="M291.23,151.73v-1.41h3v1.41Z"/><path class="cls-9" d="M298.83,150.32a12.78,12.78,0,0,0-.9,3.93h-1.67a11.05,11.05,0,0,1,.83-3.6,8.65,8.65,0,0,1,2.5-3.79l-.53.06h-4.3V145.5h6.41v1.42A8.84,8.84,0,0,0,298.83,150.32Z"/><path class="cls-9" d="M323.27,154.25c.21-1.56.75-2.49,2.73-3.94,1.29-.94,1.67-1.42,1.67-2.19a1.38,1.38,0,0,0-1.37-1.45c-1.21,0-1.24,1.26-1.26,1.91h-1.52c0-.78.12-3.24,2.83-3.24a2.78,2.78,0,0,1,3,2.78c0,1.41-1,2.2-2.13,3a4.41,4.41,0,0,0-1.85,1.88h4.06v1.26Z"/><path class="cls-9" d="M330.05,151.73v-1.41h3v1.41Z"/><path class="cls-9" d="M336.78,154.42a2.73,2.73,0,0,1-3-2.7,2.53,2.53,0,0,1,1.39-2.24,1.86,1.86,0,0,1-1.14-1.8c0-1.21,1-2.34,2.8-2.34a2.48,2.48,0,0,1,2.78,2.34,1.83,1.83,0,0,1-1.14,1.8,2.5,2.5,0,0,1,1.4,2.24A2.73,2.73,0,0,1,336.78,154.42Zm0-4.2a1.45,1.45,0,1,0,1.43,1.45A1.38,1.38,0,0,0,336.78,150.22Zm0-3.52a1.14,1.14,0,0,0-1.21,1.18,1.21,1.21,0,0,0,2.41,0A1.14,1.14,0,0,0,336.78,146.7Z"/><path d="M183.59,49.77a3.76,3.76,0,0,1-.65-.74V51.7h-.87V49.46a9.52,9.52,0,0,1-.82,1.15l-.81-.45a5.18,5.18,0,0,0,1.45-2.33h-1.15V47h1.33v-.81a8.25,8.25,0,0,1-.93.15l-.41-.77a6.21,6.21,0,0,0,2.68-.7l.61.68a.12.12,0,0,1,0,.09s-.05,0-.07,0h-.14a.16.16,0,0,0-.09,0c-.36.14-.68.23-.81.27v1h1.14v.84H183a3.31,3.31,0,0,0,1.11,1.25Zm3,1.5v-.44H185.2v.63h-.91v-5.7h3.21v5.51Zm0-4.67H185.2V50h1.39Z"/><path d="M180.69,59.59v-.78h2.94v-.63h-2.17v-.8h2.17v-.49c-.77.06-1.12.07-1.79.09-.18,0-.2,0-.27.07s-.11.09-.15.09-.14-.18-.14-.32l0-.65h1.31c.09-.2.12-.26.33-.77h-1v-.75h4.38v.75h-.85a17.9,17.9,0,0,1,1.66,1.33l-.74.56a6.72,6.72,0,0,0-.62-.59c-.43,0-.87.08-1.23.11h.12c.07,0,.1,0,.1.1s-.1.11-.14.13v.32h2.09v.8h-2.09v.63h2.95v.78Zm5.9-4.48v-.8h-5v.85h-.86v-1.6h2.84v-.71l.83,0c.21,0,.37,0,.37.13s0,.07,0,.1-.11.09-.11.12v.34h2.83v1.55Zm-2.59.3-.47.76c.66,0,1,0,1.42-.08l-.29-.2.41-.48Z"/><line class="cls-11" x1="193.88" y1="75.84" x2="180.69" y2="75.84"/><path class="cls-9" d="M50.68,17.2H46.76c-1.8,0-2.09-.43-2.44-.93l-.32.32-.49.44s-.07.24-.11.24-.11-.08-.13-.11l-.56-.94a6.71,6.71,0,0,0,1.15-.65v-2H43v-.84h1.91v2.67c0,.63.49.92,1.72.92,1,0,2.07,0,3.11-.07a6.85,6.85,0,0,1-1.64-.92l.41-.45H47.15l.37.43a.24.24,0,0,1,.06.11c0,.06,0,.06-.23.06a6,6,0,0,1-1.4.74l-.51-.65a3,3,0,0,0,1.26-.69H45.25v-.69h1.26v-.47H45.36v-.68h1.15v-.43h-.43c-.5,0-.81,0-.81-.39V10.79h1.44v-.42H45.27V9.66h2.26v1.82H46.09v.29c0,.19.06.27.23.27h.5c.21,0,.35-.26.39-.46l.56.28a1.23,1.23,0,0,1-.16.5c-.11.2-.2.24-.46.25l.3,0c.11,0,.17,0,.17.08s-.11.1-.18.14v.21h.89v-.48a.88.88,0,0,1-.21-.09.36.36,0,0,1-.13-.29V10.84h1.46v-.43H48V9.66h2.39v1.85H48.83v.3c0,.18.08.24.27.24h.5c.3,0,.45-.39.49-.53l.67.34c-.11.7-.56.79-1,.79h-.41s.16,0,.16.1-.14.1-.2.11v.21h1.22v.68H49.27v.47h1.45v.69H48.86a4.57,4.57,0,0,0,1.46.7l-.43.66c.61,0,.78,0,1.16-.08ZM44,11.53a3.91,3.91,0,0,0-1.12-1.19l.72-.75a4.33,4.33,0,0,1,1.14,1.2Zm4.29,2.22h-.89v.47h.89Z"/><path class="cls-9" d="M59.08,17.34a6.2,6.2,0,0,1-1.57-1.84,6.6,6.6,0,0,1-.84-2.41h-.31a10.13,10.13,0,0,1-1.2,4.25l-1-.41a1.73,1.73,0,0,1-1.31.4l-.51-1a3.74,3.74,0,0,0,.52,0c.31,0,.37,0,.37-.29V14.39l-.55.17c-.09,0-.1,0-.14.11s-.14.21-.21.21-.12,0-.15-.29l-.12-1a9.25,9.25,0,0,0,1.17-.28V11.81H52.11v-1H53.2V9.46l1,0c.1,0,.33,0,.33.12s0,.09-.13.17-.16.13-.16.18v.85h.83v1h-.83v1.26l.81-.21v.88l-.81.26v2.71a9.53,9.53,0,0,0,1.14-5.38c0-.55,0-1.37,0-1.65h4.26v3.41H57.67a5.73,5.73,0,0,0,2.43,3.53Zm-.54-6.76H56.41v1.61h2.13Z"/><path class="cls-9" d="M44.28,20.46l1,0c.2,0,.23,0,.23.09s0,0,0,.05-.13.15-.13.19v.48h.75v.32a8.26,8.26,0,0,0,.36-.82l.86.34c.06,0,.14.06.14.11a.09.09,0,0,1,0,.08c-.12,0-.14,0-.18.11-.22.43-.37.71-.62,1.12H47v.8H46a7.09,7.09,0,0,1-.6.67h.84l.42.39a12,12,0,0,1-1.2,1.23v0l1.38-.11,0,.72-1.41.15v.91c0,.85-.42.9-1.3.91l-.41-.84.54,0a.2.2,0,0,0,.22-.22v-.69c-.14,0-1.06.08-1.11.1s-.15.15-.19.15-.09-.07-.13-.22l-.19-.79c.41,0,.89,0,1.62-.05v-.53l.38.06a1.88,1.88,0,0,0,.25-.46h-.64c-.41.3-.72.5-1.15.76L42.65,25a8,8,0,0,0,.86-.52V24h.58c.31-.26.43-.38.73-.67H43v-.8h1.32V22H43.19v-.73h1.09Zm1,2.11h.16c.11-.16.22-.3.36-.53h-.52Zm1.09,1.62A6.51,6.51,0,0,0,48,20.52l1,.12c.06,0,.16,0,.16.12a.11.11,0,0,1,0,.08c-.12.09-.13.1-.15.17-.11.47-.2.76-.3,1.07h2.14V23h-.48a6.57,6.57,0,0,1-1,3.29,4,4,0,0,0,1.51,1.22l-.68.79A4.38,4.38,0,0,1,48.63,27a6.66,6.66,0,0,1-1.9,1.21l-.66-.77a4.62,4.62,0,0,0,2.06-1.21,7.61,7.61,0,0,1-.68-1.83s-.11.17-.17.24ZM48.27,23c-.1.19-.12.25-.16.33a6.81,6.81,0,0,0,.62,2.12A5.49,5.49,0,0,0,49.35,23Z"/><path class="cls-9" d="M52.07,28.08v-.89h3.36v-.73H52.94v-.9h2.49V25c-.89.07-1.28.08-2,.11-.21,0-.23,0-.31.07s-.13.11-.17.11-.16-.21-.17-.38l0-.74h1.49c.11-.22.14-.29.39-.87H53.46v-.86h5v.86h-1a19.6,19.6,0,0,1,1.9,1.52l-.85.63a7.74,7.74,0,0,0-.71-.66c-.49.05-1,.09-1.41.11l.14,0c.08,0,.12.05.12.11s-.11.13-.16.15v.37H58.9v.9H56.52v.73h3.36v.89ZM58.8,23v-.92H53.12v1h-1V21.2h3.24v-.81l1,0c.25,0,.43,0,.43.15s0,.08-.07.11-.12.1-.12.14v.39h3.23V23Zm-2.95.34-.54.86a15.06,15.06,0,0,0,1.62-.09l-.34-.22.47-.55Z"/><path class="cls-9" d="M69.48,20.16a16.06,16.06,0,0,0-1.14,5H66.22a14.2,14.2,0,0,1,1-4.56,11,11,0,0,1,3.18-4.8l-.68.08H64.32V14.05h8.12v1.81A11.15,11.15,0,0,0,69.48,20.16Z"/></g></g></svg>