<svg xmlns="http://www.w3.org/2000/svg" xmlns:xlink="http://www.w3.org/1999/xlink" viewBox="0 0 350.91 148.1"><defs><style>.cls-1,.cls-10,.cls-2,.cls-3,.cls-6,.cls-7{fill:none;}.cls-2{stroke:#de7a7a;}.cls-2,.cls-3{stroke-width:0.72px;}.cls-3{stroke:#231815;}.cls-4{fill:url(#_10_lpi_10_2);}.cls-5{fill-opacity:0.26;fill:url(#新規パターン_2);}.cls-10,.cls-6,.cls-7{stroke:#369;}.cls-7,.cls-8{stroke-width:0.5px;}.cls-8{fill:#fff;stroke:#3e3a39;stroke-linecap:round;stroke-linejoin:round;}.cls-9{font-size:5.4px;font-family:MidashiGoPr6N-MB31-90ms-RKSJ-H, A-OTF Midashi Go MB31 Pr6N;}.cls-11,.cls-9{fill:#3e3a39;}.cls-10{stroke-miterlimit:10;}</style><pattern id="_10_lpi_10_2" data-name="10 lpi 10 % 2" width="72" height="72" patternUnits="userSpaceOnUse" viewBox="0 0 72 72"><rect class="cls-1" width="72" height="72"/><line class="cls-2" x1="67.25" y1="157.74" x2="157.74" y2="67.25"/><line class="cls-2" x1="49.27" y1="139.77" x2="139.77" y2="49.27"/><line class="cls-2" x1="31.3" y1="121.79" x2="121.79" y2="31.3"/><line class="cls-2" x1="58.26" y1="148.75" x2="148.75" y2="58.26"/><line class="cls-2" x1="40.28" y1="130.78" x2="130.78" y2="40.28"/><line class="cls-2" x1="22.31" y1="112.81" x2="112.81" y2="22.31"/><line class="cls-2" x1="62.75" y1="153.25" x2="153.25" y2="62.75"/><line class="cls-2" x1="44.78" y1="135.27" x2="135.27" y2="44.78"/><line class="cls-2" x1="26.8" y1="117.3" x2="117.3" y2="26.8"/><line class="cls-2" x1="71.74" y1="162.24" x2="162.24" y2="71.74"/><line class="cls-2" x1="53.77" y1="144.26" x2="144.26" y2="53.77"/><line class="cls-2" x1="35.79" y1="126.29" x2="126.29" y2="35.79"/><line class="cls-2" x1="17.82" y1="108.31" x2="108.31" y2="17.82"/><line class="cls-2" x1="-4.75" y1="157.74" x2="85.74" y2="67.25"/><line class="cls-2" x1="-22.73" y1="139.77" x2="67.77" y2="49.27"/><line class="cls-2" x1="-40.7" y1="121.79" x2="49.79" y2="31.3"/><line class="cls-2" x1="-13.74" y1="148.75" x2="76.75" y2="58.26"/><line class="cls-2" x1="-31.72" y1="130.78" x2="58.78" y2="40.28"/><line class="cls-2" x1="-49.69" y1="112.81" x2="40.81" y2="22.31"/><line class="cls-2" x1="-9.25" y1="153.25" x2="81.25" y2="62.75"/><line class="cls-2" x1="-27.22" y1="135.27" x2="63.27" y2="44.78"/><line class="cls-2" x1="-45.2" y1="117.3" x2="45.3" y2="26.8"/><line class="cls-2" x1="-0.26" y1="162.24" x2="90.24" y2="71.74"/><line class="cls-2" x1="-18.23" y1="144.26" x2="72.26" y2="53.77"/><line class="cls-2" x1="-36.21" y1="126.29" x2="54.29" y2="35.79"/><line class="cls-2" x1="-54.18" y1="108.31" x2="36.31" y2="17.82"/><line class="cls-2" x1="-76.75" y1="157.74" x2="13.74" y2="67.25"/><line class="cls-2" x1="-85.74" y1="148.75" x2="4.75" y2="58.26"/><line class="cls-2" x1="-81.25" y1="153.25" x2="9.25" y2="62.75"/><line class="cls-2" x1="-72.26" y1="162.24" x2="18.24" y2="71.74"/><line class="cls-2" x1="-90.23" y1="144.26" x2="0.26" y2="53.77"/><line class="cls-2" x1="67.25" y1="85.74" x2="157.74" y2="-4.75"/><line class="cls-2" x1="49.27" y1="67.77" x2="139.77" y2="-22.73"/><line class="cls-2" x1="31.3" y1="49.79" x2="121.79" y2="-40.7"/><line class="cls-2" x1="58.26" y1="76.75" x2="148.75" y2="-13.74"/><line class="cls-2" x1="40.28" y1="58.78" x2="130.78" y2="-31.72"/><line class="cls-2" x1="22.31" y1="40.81" x2="112.81" y2="-49.69"/><line class="cls-2" x1="62.75" y1="81.25" x2="153.25" y2="-9.25"/><line class="cls-2" x1="44.78" y1="63.27" x2="135.27" y2="-27.22"/><line class="cls-2" x1="26.8" y1="45.3" x2="117.3" y2="-45.2"/><line class="cls-2" x1="71.74" y1="90.24" x2="162.24" y2="-0.26"/><line class="cls-2" x1="53.77" y1="72.26" x2="144.26" y2="-18.23"/><line class="cls-2" x1="35.79" y1="54.29" x2="126.29" y2="-36.21"/><line class="cls-2" x1="17.82" y1="36.31" x2="108.31" y2="-54.18"/><line class="cls-2" x1="31.19" y1="121.69" x2="121.69" y2="31.19"/><line class="cls-2" x1="13.22" y1="103.72" x2="103.72" y2="13.22"/><line class="cls-2" x1="-4.75" y1="85.74" x2="85.74" y2="-4.75"/><line class="cls-2" x1="-22.73" y1="67.77" x2="67.77" y2="-22.73"/><line class="cls-2" x1="-40.7" y1="49.79" x2="49.79" y2="-40.7"/><line class="cls-2" x1="22.21" y1="112.7" x2="112.7" y2="22.21"/><line class="cls-2" x1="4.23" y1="94.73" x2="94.73" y2="4.23"/><line class="cls-2" x1="-13.74" y1="76.75" x2="76.75" y2="-13.74"/><line class="cls-2" x1="-31.72" y1="58.78" x2="58.78" y2="-31.72"/><line class="cls-2" x1="-49.69" y1="40.81" x2="40.81" y2="-49.69"/><line class="cls-2" x1="26.7" y1="117.2" x2="117.2" y2="26.7"/><line class="cls-2" x1="8.73" y1="99.22" x2="99.22" y2="8.73"/><line class="cls-2" x1="-9.25" y1="81.25" x2="81.25" y2="-9.25"/><line class="cls-2" x1="-27.22" y1="63.27" x2="63.27" y2="-27.22"/><line class="cls-2" x1="-45.2" y1="45.3" x2="45.3" y2="-45.2"/><line class="cls-2" x1="17.71" y1="108.21" x2="108.21" y2="17.71"/><line class="cls-2" x1="-0.26" y1="90.24" x2="90.24" y2="-0.26"/><line class="cls-2" x1="-18.23" y1="72.26" x2="72.26" y2="-18.23"/><line class="cls-2" x1="-36.21" y1="54.29" x2="54.29" y2="-36.21"/><line class="cls-2" x1="-54.18" y1="36.31" x2="36.31" y2="-54.18"/><line class="cls-2" x1="-40.81" y1="121.69" x2="49.69" y2="31.19"/><line class="cls-2" x1="-58.78" y1="103.72" x2="31.72" y2="13.22"/><line class="cls-2" x1="-76.75" y1="85.74" x2="13.74" y2="-4.75"/><line class="cls-2" x1="-49.79" y1="112.7" x2="40.7" y2="22.21"/><line class="cls-2" x1="-67.77" y1="94.73" x2="22.73" y2="4.23"/><line class="cls-2" x1="-85.74" y1="76.75" x2="4.75" y2="-13.74"/><line class="cls-2" x1="-45.3" y1="117.2" x2="45.2" y2="26.7"/><line class="cls-2" x1="-63.27" y1="99.22" x2="27.22" y2="8.73"/><line class="cls-2" x1="-81.25" y1="81.25" x2="9.25" y2="-9.25"/><line class="cls-2" x1="-54.29" y1="108.21" x2="36.21" y2="17.71"/><line class="cls-2" x1="-72.26" y1="90.24" x2="18.24" y2="-0.26"/><line class="cls-2" x1="-90.23" y1="72.26" x2="0.26" y2="-18.23"/><line class="cls-2" x1="67.25" y1="13.74" x2="157.74" y2="-76.75"/><line class="cls-2" x1="58.26" y1="4.75" x2="148.75" y2="-85.74"/><line class="cls-2" x1="62.75" y1="9.25" x2="153.25" y2="-81.25"/><line class="cls-2" x1="71.74" y1="18.24" x2="162.24" y2="-72.26"/><line class="cls-2" x1="53.77" y1="0.26" x2="144.26" y2="-90.23"/><line class="cls-2" x1="31.19" y1="49.69" x2="121.69" y2="-40.81"/><line class="cls-2" x1="13.22" y1="31.72" x2="103.72" y2="-58.78"/><line class="cls-2" x1="-4.75" y1="13.74" x2="85.74" y2="-76.75"/><line class="cls-2" x1="22.21" y1="40.7" x2="112.7" y2="-49.79"/><line class="cls-2" x1="4.23" y1="22.73" x2="94.73" y2="-67.77"/><line class="cls-2" x1="-13.74" y1="4.75" x2="76.75" y2="-85.74"/><line class="cls-2" x1="26.7" y1="45.2" x2="117.2" y2="-45.3"/><line class="cls-2" x1="8.73" y1="27.22" x2="99.22" y2="-63.27"/><line class="cls-2" x1="-9.25" y1="9.25" x2="81.25" y2="-81.25"/><line class="cls-2" x1="17.71" y1="36.21" x2="108.21" y2="-54.29"/><line class="cls-2" x1="-0.26" y1="18.24" x2="90.24" y2="-72.26"/><line class="cls-2" x1="-18.23" y1="0.26" x2="72.26" y2="-90.23"/><line class="cls-2" x1="-40.81" y1="49.69" x2="49.69" y2="-40.81"/><line class="cls-2" x1="-58.78" y1="31.72" x2="31.72" y2="-58.78"/><line class="cls-2" x1="-76.75" y1="13.74" x2="13.74" y2="-76.75"/><line class="cls-2" x1="-49.79" y1="40.7" x2="40.7" y2="-49.79"/><line class="cls-2" x1="-67.77" y1="22.73" x2="22.73" y2="-67.77"/><line class="cls-2" x1="-85.74" y1="4.75" x2="4.75" y2="-85.74"/><line class="cls-2" x1="-45.3" y1="45.2" x2="45.2" y2="-45.3"/><line class="cls-2" x1="-63.27" y1="27.22" x2="27.22" y2="-63.27"/><line class="cls-2" x1="-81.25" y1="9.25" x2="9.25" y2="-81.25"/><line class="cls-2" x1="-54.29" y1="36.21" x2="36.21" y2="-54.29"/><line class="cls-2" x1="-72.26" y1="18.24" x2="18.24" y2="-72.26"/><line class="cls-2" x1="-90.23" y1="0.26" x2="0.26" y2="-90.23"/></pattern><pattern id="新規パターン_2" data-name="新規パターン 2" width="72" height="72" patternUnits="userSpaceOnUse" viewBox="0 0 72 72"><rect class="cls-1" width="72" height="72"/><line class="cls-3" x1="67.25" y1="157.74" x2="157.74" y2="67.25"/><line class="cls-3" x1="49.27" y1="139.77" x2="139.77" y2="49.27"/><line class="cls-3" x1="31.3" y1="121.79" x2="121.79" y2="31.3"/><line class="cls-3" x1="58.26" y1="148.75" x2="148.75" y2="58.26"/><line class="cls-3" x1="40.28" y1="130.78" x2="130.78" y2="40.28"/><line class="cls-3" x1="22.31" y1="112.81" x2="112.81" y2="22.31"/><line class="cls-3" x1="62.75" y1="153.25" x2="153.25" y2="62.75"/><line class="cls-3" x1="44.78" y1="135.27" x2="135.27" y2="44.78"/><line class="cls-3" x1="26.8" y1="117.3" x2="117.3" y2="26.8"/><line class="cls-3" x1="71.74" y1="162.24" x2="162.24" y2="71.74"/><line class="cls-3" x1="53.77" y1="144.26" x2="144.26" y2="53.77"/><line class="cls-3" x1="35.79" y1="126.29" x2="126.29" y2="35.79"/><line class="cls-3" x1="17.82" y1="108.31" x2="108.31" y2="17.82"/><line class="cls-3" x1="-4.75" y1="157.74" x2="85.74" y2="67.25"/><line class="cls-3" x1="-22.73" y1="139.77" x2="67.77" y2="49.27"/><line class="cls-3" x1="-40.7" y1="121.79" x2="49.79" y2="31.3"/><line class="cls-3" x1="-13.74" y1="148.75" x2="76.75" y2="58.26"/><line class="cls-3" x1="-31.72" y1="130.78" x2="58.78" y2="40.28"/><line class="cls-3" x1="-49.69" y1="112.81" x2="40.81" y2="22.31"/><line class="cls-3" x1="-9.25" y1="153.25" x2="81.25" y2="62.75"/><line class="cls-3" x1="-27.22" y1="135.27" x2="63.27" y2="44.78"/><line class="cls-3" x1="-45.2" y1="117.3" x2="45.3" y2="26.8"/><line class="cls-3" x1="-0.26" y1="162.24" x2="90.24" y2="71.74"/><line class="cls-3" x1="-18.23" y1="144.26" x2="72.26" y2="53.77"/><line class="cls-3" x1="-36.21" y1="126.29" x2="54.29" y2="35.79"/><line class="cls-3" x1="-54.18" y1="108.31" x2="36.31" y2="17.82"/><line class="cls-3" x1="-76.75" y1="157.74" x2="13.74" y2="67.25"/><line class="cls-3" x1="-85.74" y1="148.75" x2="4.75" y2="58.26"/><line class="cls-3" x1="-81.25" y1="153.25" x2="9.25" y2="62.75"/><line class="cls-3" x1="-72.26" y1="162.24" x2="18.24" y2="71.74"/><line class="cls-3" x1="-90.23" y1="144.26" x2="0.26" y2="53.77"/><line class="cls-3" x1="67.25" y1="85.74" x2="157.74" y2="-4.75"/><line class="cls-3" x1="49.27" y1="67.77" x2="139.77" y2="-22.73"/><line class="cls-3" x1="31.3" y1="49.79" x2="121.79" y2="-40.7"/><line class="cls-3" x1="58.26" y1="76.75" x2="148.75" y2="-13.74"/><line class="cls-3" x1="40.28" y1="58.78" x2="130.78" y2="-31.72"/><line class="cls-3" x1="22.31" y1="40.81" x2="112.81" y2="-49.69"/><line class="cls-3" x1="62.75" y1="81.25" x2="153.25" y2="-9.25"/><line class="cls-3" x1="44.78" y1="63.27" x2="135.27" y2="-27.22"/><line class="cls-3" x1="26.8" y1="45.3" x2="117.3" y2="-45.2"/><line class="cls-3" x1="71.74" y1="90.24" x2="162.24" y2="-0.26"/><line class="cls-3" x1="53.77" y1="72.26" x2="144.26" y2="-18.23"/><line class="cls-3" x1="35.79" y1="54.29" x2="126.29" y2="-36.21"/><line class="cls-3" x1="17.82" y1="36.31" x2="108.31" y2="-54.18"/><line class="cls-3" x1="31.19" y1="121.69" x2="121.69" y2="31.19"/><line class="cls-3" x1="13.22" y1="103.72" x2="103.72" y2="13.22"/><line class="cls-3" x1="-4.75" y1="85.74" x2="85.74" y2="-4.75"/><line class="cls-3" x1="-22.73" y1="67.77" x2="67.77" y2="-22.73"/><line class="cls-3" x1="-40.7" y1="49.79" x2="49.79" y2="-40.7"/><line class="cls-3" x1="22.21" y1="112.7" x2="112.7" y2="22.21"/><line class="cls-3" x1="4.23" y1="94.73" x2="94.73" y2="4.23"/><line class="cls-3" x1="-13.74" y1="76.75" x2="76.75" y2="-13.74"/><line class="cls-3" x1="-31.72" y1="58.78" x2="58.78" y2="-31.72"/><line class="cls-3" x1="-49.69" y1="40.81" x2="40.81" y2="-49.69"/><line class="cls-3" x1="26.7" y1="117.2" x2="117.2" y2="26.7"/><line class="cls-3" x1="8.73" y1="99.22" x2="99.22" y2="8.73"/><line class="cls-3" x1="-9.25" y1="81.25" x2="81.25" y2="-9.25"/><line class="cls-3" x1="-27.22" y1="63.27" x2="63.27" y2="-27.22"/><line class="cls-3" x1="-45.2" y1="45.3" x2="45.3" y2="-45.2"/><line class="cls-3" x1="17.71" y1="108.21" x2="108.21" y2="17.71"/><line class="cls-3" x1="-0.26" y1="90.24" x2="90.24" y2="-0.26"/><line class="cls-3" x1="-18.23" y1="72.26" x2="72.26" y2="-18.23"/><line class="cls-3" x1="-36.21" y1="54.29" x2="54.29" y2="-36.21"/><line class="cls-3" x1="-54.18" y1="36.31" x2="36.31" y2="-54.18"/><line class="cls-3" x1="-40.81" y1="121.69" x2="49.69" y2="31.19"/><line class="cls-3" x1="-58.78" y1="103.72" x2="31.72" y2="13.22"/><line class="cls-3" x1="-76.75" y1="85.74" x2="13.74" y2="-4.75"/><line class="cls-3" x1="-49.79" y1="112.7" x2="40.7" y2="22.21"/><line class="cls-3" x1="-67.77" y1="94.73" x2="22.73" y2="4.23"/><line class="cls-3" x1="-85.74" y1="76.75" x2="4.75" y2="-13.74"/><line class="cls-3" x1="-45.3" y1="117.2" x2="45.2" y2="26.7"/><line class="cls-3" x1="-63.27" y1="99.22" x2="27.22" y2="8.73"/><line class="cls-3" x1="-81.25" y1="81.25" x2="9.25" y2="-9.25"/><line class="cls-3" x1="-54.29" y1="108.21" x2="36.21" y2="17.71"/><line class="cls-3" x1="-72.26" y1="90.24" x2="18.24" y2="-0.26"/><line class="cls-3" x1="-90.23" y1="72.26" x2="0.26" y2="-18.23"/><line class="cls-3" x1="67.25" y1="13.74" x2="157.74" y2="-76.75"/><line class="cls-3" x1="58.26" y1="4.75" x2="148.75" y2="-85.74"/><line class="cls-3" x1="62.75" y1="9.25" x2="153.25" y2="-81.25"/><line class="cls-3" x1="71.74" y1="18.24" x2="162.24" y2="-72.26"/><line class="cls-3" x1="53.77" y1="0.26" x2="144.26" y2="-90.23"/><line class="cls-3" x1="31.19" y1="49.69" x2="121.69" y2="-40.81"/><line class="cls-3" x1="13.22" y1="31.72" x2="103.72" y2="-58.78"/><line class="cls-3" x1="-4.75" y1="13.74" x2="85.74" y2="-76.75"/><line class="cls-3" x1="22.21" y1="40.7" x2="112.7" y2="-49.79"/><line class="cls-3" x1="4.23" y1="22.73" x2="94.73" y2="-67.77"/><line class="cls-3" x1="-13.74" y1="4.75" x2="76.75" y2="-85.74"/><line class="cls-3" x1="26.7" y1="45.2" x2="117.2" y2="-45.3"/><line class="cls-3" x1="8.73" y1="27.22" x2="99.22" y2="-63.27"/><line class="cls-3" x1="-9.25" y1="9.25" x2="81.25" y2="-81.25"/><line class="cls-3" x1="17.71" y1="36.21" x2="108.21" y2="-54.29"/><line class="cls-3" x1="-0.26" y1="18.24" x2="90.24" y2="-72.26"/><line class="cls-3" x1="-18.23" y1="0.26" x2="72.26" y2="-90.23"/><line class="cls-3" x1="-40.81" y1="49.69" x2="49.69" y2="-40.81"/><line class="cls-3" x1="-58.78" y1="31.72" x2="31.72" y2="-58.78"/><line class="cls-3" x1="-76.75" y1="13.74" x2="13.74" y2="-76.75"/><line class="cls-3" x1="-49.79" y1="40.7" x2="40.7" y2="-49.79"/><line class="cls-3" x1="-67.77" y1="22.73" x2="22.73" y2="-67.77"/><line class="cls-3" x1="-85.74" y1="4.75" x2="4.75" y2="-85.74"/><line class="cls-3" x1="-45.3" y1="45.2" x2="45.2" y2="-45.3"/><line class="cls-3" x1="-63.27" y1="27.22" x2="27.22" y2="-63.27"/><line class="cls-3" x1="-81.25" y1="9.25" x2="9.25" y2="-81.25"/><line class="cls-3" x1="-54.29" y1="36.21" x2="36.21" y2="-54.29"/><line class="cls-3" x1="-72.26" y1="18.24" x2="18.24" y2="-72.26"/><line class="cls-3" x1="-90.23" y1="0.26" x2="0.26" y2="-90.23"/></pattern></defs><g id="レイヤー_2" data-name="レイヤー 2"><g id="_4F" data-name="4F"><rect class="cls-4" x="300.95" y="17.48" width="17.94" height="28.75"/><rect class="cls-4" x="318.89" y="17.48" width="29.92" height="19.06"/><rect class="cls-4" x="327.73" y="36.54" width="21.07" height="18.33"/><rect class="cls-4" x="28.85" y="64.98" width="51.12" height="37.16"/><rect class="cls-4" x="38.15" y="37.5" width="29.89" height="27.48"/><rect class="cls-4" x="38.15" y="27.12" width="29.89" height="11.19"/><rect class="cls-4" x="38.15" y="16.99" width="29.89" height="9.75"/><rect class="cls-4" x="38.14" y="0.5" width="29.89" height="16.72"/><rect class="cls-4" x="67.21" y="0.5" width="10.78" height="5.08"/><rect class="cls-5" x="98.55" y="65.3" width="154.7" height="37.06"/><rect class="cls-6" x="0.5" y="110.54" width="38.8" height="37.06"/><rect class="cls-6" x="39.3" y="110.54" width="38.8" height="37.06"/><rect class="cls-6" x="97.86" y="110.54" width="38.8" height="37.06"/><rect class="cls-6" x="214.25" y="110.54" width="38.8" height="37.06"/><rect class="cls-6" x="272.82" y="110.54" width="38.8" height="37.06"/><rect class="cls-6" x="98.52" y="64.98" width="154.53" height="37.06"/><rect class="cls-6" x="311.61" y="110.54" width="38.8" height="37.06"/><rect class="cls-6" x="136.66" y="110.54" width="38.8" height="37.06"/><rect class="cls-6" x="175.46" y="110.54" width="38.8" height="37.06"/><rect class="cls-6" x="214.25" y="9.53" width="38.8" height="37.06"/><rect class="cls-6" x="136.66" y="9.53" width="38.8" height="37.06"/><rect class="cls-6" x="175.46" y="9.53" width="38.8" height="37.06"/><line class="cls-7" x1="97.86" y1="117.7" x2="78.09" y2="117.7"/><line class="cls-6" x1="97.86" y1="138.52" x2="78.09" y2="138.52"/><polyline class="cls-6" points="78.09 117.7 87.98 117.7 87.98 131.59"/><line class="cls-7" x1="78.09" y1="120.02" x2="97.87" y2="120.02"/><line class="cls-7" x1="78.09" y1="122.33" x2="97.87" y2="122.33"/><line class="cls-7" x1="78.09" y1="124.64" x2="97.87" y2="124.64"/><line class="cls-7" x1="78.09" y1="126.96" x2="97.87" y2="126.96"/><line class="cls-7" x1="78.09" y1="129.27" x2="97.87" y2="129.27"/><line class="cls-7" x1="78.09" y1="131.59" x2="97.87" y2="131.59"/><line class="cls-7" x1="97.86" y1="38.3" x2="78.09" y2="38.3"/><polyline class="cls-6" points="97.78 38.3 87.89 38.3 87.89 24.42"/><line class="cls-7" x1="78.09" y1="35.99" x2="97.87" y2="35.99"/><line class="cls-7" x1="78.09" y1="33.67" x2="97.87" y2="33.67"/><line class="cls-7" x1="78.09" y1="31.36" x2="97.87" y2="31.36"/><line class="cls-7" x1="78.09" y1="29.05" x2="97.87" y2="29.05"/><line class="cls-7" x1="78.09" y1="26.73" x2="97.87" y2="26.73"/><line class="cls-7" x1="78.09" y1="24.42" x2="97.87" y2="24.42"/><line class="cls-7" x1="272.82" y1="117.7" x2="253.05" y2="117.7"/><line class="cls-6" x1="272.82" y1="138.52" x2="253.05" y2="138.52"/><polyline class="cls-6" points="253.05 117.7 262.94 117.7 262.94 131.59"/><line class="cls-7" x1="253.05" y1="120.02" x2="272.82" y2="120.02"/><line class="cls-7" x1="253.05" y1="122.33" x2="272.82" y2="122.33"/><line class="cls-7" x1="253.05" y1="124.64" x2="272.82" y2="124.64"/><line class="cls-7" x1="253.05" y1="126.96" x2="272.82" y2="126.96"/><line class="cls-7" x1="253.05" y1="129.27" x2="272.82" y2="129.27"/><line class="cls-7" x1="253.05" y1="131.59" x2="272.82" y2="131.59"/><line class="cls-7" x1="272.82" y1="38.3" x2="253.05" y2="38.3"/><polyline class="cls-6" points="272.82 38.3 262.94 38.3 262.94 24.42"/><line class="cls-7" x1="253.05" y1="35.99" x2="272.82" y2="35.99"/><line class="cls-7" x1="253.05" y1="33.67" x2="272.82" y2="33.67"/><line class="cls-7" x1="253.05" y1="31.36" x2="272.82" y2="31.36"/><line class="cls-7" x1="253.05" y1="29.05" x2="272.82" y2="29.05"/><line class="cls-7" x1="253.05" y1="26.73" x2="272.82" y2="26.73"/><line class="cls-7" x1="253.05" y1="24.42" x2="272.82" y2="24.42"/><polyline class="cls-6" points="53.83 64.98 79.97 64.98 79.97 102.15 43.86 102.15"/><polyline class="cls-6" points="47.44 102.15 0.5 102.15 0.5 110.54"/><polyline class="cls-6" points="77.99 54.74 77.99 0.5 38.15 0.5 38.15 64.98 53.83 64.98"/><line class="cls-6" x1="97.89" y1="17.55" x2="97.89" y2="54.74"/><line class="cls-6" x1="68.04" y1="5.7" x2="68.04" y2="16.99"/><line class="cls-6" x1="111.97" y1="17.55" x2="111.97" y2="45.14"/><line class="cls-6" x1="102.28" y1="44.94" x2="121.65" y2="44.94"/><line class="cls-6" x1="78.09" y1="17.48" x2="136.66" y2="17.48"/><polyline class="cls-6" points="126.05 17.48 126.05 54.87 136.66 54.87 136.66 46.59"/><line class="cls-6" x1="272.78" y1="17.55" x2="272.78" y2="54.74"/><line class="cls-6" x1="286.87" y1="17.55" x2="286.87" y2="53.73"/><polyline class="cls-6" points="253.05 17.48 300.95 17.48 300.95 54.87 318.89 54.87 318.89 17.48"/><polyline class="cls-6" points="38.15 16.98 68.03 16.98 68.03 64.98"/><polyline class="cls-6" points="77.99 5.7 63.41 5.7 63.41 0.5"/><line class="cls-6" x1="38.15" y1="37.5" x2="68.03" y2="37.5"/><line class="cls-6" x1="38.15" y1="27.12" x2="68.03" y2="27.12"/><line class="cls-6" x1="295.23" y1="53.73" x2="278.5" y2="53.73"/><line class="cls-6" x1="300.95" y1="46.23" x2="318.89" y2="46.23"/><polyline class="cls-6" points="350.41 110.54 350.41 102.15 350.41 102.15 272.82 102.15 272.82 64.98 272.82 64.98 348.8 64.98 348.8 54.87"/><polyline class="cls-6" points="28.85 101.93 28.85 64.98 38.15 64.98"/><polyline class="cls-6" points="300.95 17.48 348.81 17.48 348.81 54.87 327.73 54.87 327.73 36.85"/><rect class="cls-6" x="145.55" y="46.59" width="21.01" height="9.1"/><rect class="cls-6" x="184.35" y="46.59" width="21.01" height="9.1"/><rect class="cls-6" x="223.15" y="46.59" width="21.01" height="9.1"/><line class="cls-6" x1="318.89" y1="36.54" x2="348.8" y2="36.54"/><path class="cls-8" d="M118.87,25.49a1.55,1.55,0,1,0-1.55-1.55A1.55,1.55,0,0,0,118.87,25.49Z"/><path class="cls-8" d="M123,31.74l-1.13-4c-.32-1.06-1-1.76-1.81-1.76h-2.42c-.79,0-1.49.7-1.81,1.76l-1.14,4a.64.64,0,0,0,.47.77.62.62,0,0,0,.76-.46l1.14-4h.33l-2,7h1.86v5.2a.72.72,0,0,0,1.44,0V35h.4v5.2a.72.72,0,0,0,1.44,0V35h1.72l-2-7h.34l1.13,4a.63.63,0,1,0,1.23-.31Z"/><path class="cls-8" d="M104.89,25.49a1.55,1.55,0,1,0-1.55-1.55A1.54,1.54,0,0,0,104.89,25.49Z"/><path class="cls-8" d="M106.79,25.93h-4.06a1.74,1.74,0,0,0-1.57,1.56v5.2a.68.68,0,1,0,1.36,0V28.42h.31V40a.89.89,0,1,0,1.78,0V33.29h.29V40a.9.9,0,0,0,1.79,0V28.42H107v4.27a.68.68,0,1,0,1.36,0v-5.2A1.74,1.74,0,0,0,106.79,25.93Z"/><path class="cls-8" d="M293.67,29.77a1.55,1.55,0,1,0-1.54-1.55A1.54,1.54,0,0,0,293.67,29.77Z"/><path class="cls-8" d="M297.83,36l-1.14-4c-.31-1.06-1-1.76-1.81-1.76h-2.41c-.8,0-1.5.7-1.81,1.76l-1.14,4a.64.64,0,0,0,.46.77.63.63,0,0,0,.77-.46l1.13-4h.34l-2,7h1.87v5.2a.72.72,0,1,0,1.44,0v-5.2h.39v5.2a.72.72,0,0,0,1.44,0v-5.2h1.72l-2-7h.33l1.14,4a.63.63,0,0,0,.77.46A.64.64,0,0,0,297.83,36Z"/><path class="cls-8" d="M279.69,29.77a1.55,1.55,0,1,0-1.55-1.55A1.54,1.54,0,0,0,279.69,29.77Z"/><path class="cls-8" d="M281.6,30.21h-4.07A1.73,1.73,0,0,0,276,31.77V37a.68.68,0,1,0,1.35,0V32.7h.32V44.3a.89.89,0,0,0,1.78,0V37.57h.29V44.3a.89.89,0,0,0,1.78,0V32.7h.31V37a.68.68,0,0,0,1.36,0v-5.2A1.73,1.73,0,0,0,281.6,30.21Z"/><text class="cls-9" transform="translate(108.18 51.31)">EV</text><rect class="cls-10" x="106.79" y="44.98" width="10.35" height="8.75"/><path class="cls-11" d="M14.58,133.61v-6.1H12.2v-1.14h.7a2,2,0,0,0,1.91-1.52H16.1v8.76Z"/><path class="cls-11" d="M18.82,131.09v-1.42h3v1.42Z"/><path class="cls-11" d="M25,133.61v-6.1H22.66v-1.14h.69a2,2,0,0,0,1.91-1.52h1.29v8.76Z"/><path class="cls-11" d="M53.39,133.61v-6.1H51v-1.14h.69a2,2,0,0,0,1.91-1.52h1.3v8.76Z"/><path class="cls-11" d="M57.63,131.09v-1.42h3v1.42Z"/><path class="cls-11" d="M61.3,133.61c.22-1.56.76-2.5,2.73-4,1.29-.93,1.67-1.41,1.67-2.18A1.37,1.37,0,0,0,64.33,126c-1.21,0-1.24,1.26-1.25,1.9H61.55c0-.78.12-3.23,2.83-3.23a2.77,2.77,0,0,1,3,2.78c0,1.4-1,2.19-2.13,3a4.54,4.54,0,0,0-1.85,1.89h4.06v1.26Z"/><path class="cls-11" d="M112,133.61v-6.1h-2.38v-1.14h.7a2,2,0,0,0,1.9-1.52h1.3v8.76Z"/><path class="cls-11" d="M116.22,131.09v-1.42h3v1.42Z"/><path class="cls-11" d="M122.9,133.77a3.06,3.06,0,0,1-2.21-.86,2.9,2.9,0,0,1-.77-2.11h1.59c0,1.23.67,1.64,1.39,1.64a1.38,1.38,0,0,0,1.44-1.48c0-1-.62-1.38-1.56-1.38h-.67v-1.07h.67a1.27,1.27,0,0,0,1.37-1.27,1.15,1.15,0,0,0-1.26-1.21,1.31,1.31,0,0,0-1.35,1.49h-1.45a2.77,2.77,0,0,1,.44-1.57,2.89,2.89,0,0,1,2.47-1.26,2.49,2.49,0,0,1,2.72,2.3,1.9,1.9,0,0,1-1,1.81,2.39,2.39,0,0,1,1.29,2.14A2.86,2.86,0,0,1,122.9,133.77Z"/><path class="cls-11" d="M150.8,133.61v-6.1h-2.38v-1.14h.7a2,2,0,0,0,1.91-1.52h1.29v8.76Z"/><path class="cls-11" d="M155,131.09v-1.42h3v1.42Z"/><path class="cls-11" d="M163.79,131.73v1.88h-1.58v-1.88h-3.65v-1.25l3.46-5.63h1.77v5.72H165v1.16Zm-1.76-5-2.18,3.55-.34.41.34-.09h2.36V127l.06-.79Z"/><path class="cls-11" d="M186.22,22.69h-3.44c-1.57,0-1.83-.38-2.13-.82-.11.1-.12.12-.28.28l-.44.39s-.06.21-.09.21-.1-.07-.11-.1l-.5-.82a7.12,7.12,0,0,0,1-.57V19.54h-.77V18.8h1.67v2.33c0,.56.43.81,1.51.81.91,0,1.81,0,2.72-.06a5.67,5.67,0,0,1-1.43-.81l.36-.39h-1.18l.32.37s.06.08.06.1,0,.06-.2.06a5.1,5.1,0,0,1-1.23.64l-.45-.56a2.4,2.4,0,0,0,1.1-.61h-1.26v-.6h1.11v-.42h-1v-.6h1v-.37h-.39c-.43,0-.7,0-.7-.34V17.07h1.26V16.7h-1.26v-.62h2v1.59H182.2v.26c0,.17.05.24.2.24h.44c.18,0,.3-.23.33-.41l.5.25a1.32,1.32,0,0,1-.15.44c-.09.17-.17.21-.4.21l.27,0c.09,0,.14,0,.14.07s-.09.09-.15.12v.18h.78v-.41a.71.71,0,0,1-.19-.08.32.32,0,0,1-.11-.26v-1.2h1.28v-.37h-1.28v-.66H186V17.7H184.6V18c0,.16.07.22.23.22h.44c.26,0,.4-.35.43-.47l.58.3c-.09.61-.48.69-.91.69H185c.05,0,.15,0,.15.08s-.12.09-.18.1v.18h1.07v.6H185v.42h1.27v.6h-1.63a4,4,0,0,0,1.28.61l-.38.58a9.92,9.92,0,0,0,1-.07Zm-5.82-5a3.5,3.5,0,0,0-1-1l.64-.65a4,4,0,0,1,1,1.05Zm3.76,1.94h-.78v.42h.78Z"/><path class="cls-11" d="M193.58,22.81a5.51,5.51,0,0,1-1.38-1.61,6.09,6.09,0,0,1-.73-2.11h-.27a9,9,0,0,1-1,3.72l-.91-.36a1.46,1.46,0,0,1-1.14.35l-.45-.92a2.88,2.88,0,0,0,.46,0c.26,0,.32-.05.32-.26V20.22c-.16.05-.38.13-.48.15s-.09,0-.13.1-.12.18-.18.18-.11,0-.13-.25l-.1-.86c.52-.12.65-.14,1-.25V18h-1v-.87h1V15.91l.87,0c.09,0,.29,0,.29.1s0,.08-.12.15-.14.12-.14.16v.75h.73V18h-.73v1.11l.71-.19v.78l-.71.22v2.37a8.34,8.34,0,0,0,1-4.71c0-.48,0-1.2,0-1.44H194v3h-1.68a5,5,0,0,0,2.12,3.09Zm-.47-5.92h-1.87V18.3h1.87Z"/><path class="cls-11" d="M196.6,16l.85,0c.18,0,.21,0,.21.08s0,0,0,0-.12.13-.12.16v.43h.66V17a6.91,6.91,0,0,0,.32-.72l.75.3c.06,0,.12.05.12.1a.09.09,0,0,1,0,.06c-.1,0-.12,0-.16.1-.19.38-.32.62-.54,1H199v.7h-.87a6.67,6.67,0,0,1-.52.59h.73l.37.34a11.16,11.16,0,0,1-1,1.08v0l1.21-.09,0,.63-1.23.13V22c0,.74-.37.79-1.14.8l-.36-.74.47,0a.18.18,0,0,0,.2-.19v-.61l-1,.09s-.13.14-.16.14-.08-.07-.12-.19l-.16-.7c.36,0,.77,0,1.42,0v-.46l.33,0a1.56,1.56,0,0,0,.22-.4h-.57a10.89,10.89,0,0,1-1,.67l-.62-.51a7.73,7.73,0,0,0,.75-.46v-.38h.51c.27-.23.38-.33.64-.59h-1.64v-.7h1.16v-.46h-.95V16.7h.95Zm.92,1.85h.15c.09-.14.19-.26.31-.46h-.46Zm1,1.42A5.68,5.68,0,0,0,199.82,16l.86.11s.14,0,.14.11a.09.09,0,0,1,0,.06c-.1.08-.11.09-.12.15-.1.42-.18.67-.27.94h1.87v.78h-.41A5.84,5.84,0,0,1,201,21a3.65,3.65,0,0,0,1.32,1.06l-.59.7a3.79,3.79,0,0,1-1.29-1.11,5.83,5.83,0,0,1-1.66,1.06l-.59-.67A3.93,3.93,0,0,0,200,21a5.75,5.75,0,0,1-.59-1.6,2.36,2.36,0,0,1-.16.21Zm1.62-1.07-.14.29a5.83,5.83,0,0,0,.55,1.86,4.85,4.85,0,0,0,.54-2.15Z"/><path class="cls-11" d="M203.44,22.63v-.78h2.94v-.64H204.2v-.79h2.18v-.49c-.78.06-1.12.07-1.79.09-.19,0-.2,0-.27.07s-.12.09-.16.09S204,20,204,19.85l0-.64h1.31c.1-.19.12-.25.34-.76h-1V17.7H209v.75h-.84a21.05,21.05,0,0,1,1.66,1.33l-.75.55a6.57,6.57,0,0,0-.61-.58c-.43.05-.88.08-1.24.1l.12,0c.07,0,.1,0,.1.1s-.09.11-.13.12v.33h2.08v.79h-2.08v.64h2.94v.78Zm5.9-4.48v-.81h-5v.86h-.87V16.6h2.84v-.71l.83,0c.22,0,.38,0,.38.13s0,.07-.06.1-.11.08-.11.12v.34h2.83v1.55Zm-2.59.3-.48.76c.67,0,1,0,1.43-.08-.14-.09-.15-.11-.3-.2l.41-.48Z"/><path class="cls-11" d="M191.28,39.2c.26-1.82.89-2.91,3.19-4.61,1.5-1.09,1.95-1.65,1.95-2.54a1.6,1.6,0,0,0-1.6-1.7c-1.41,0-1.45,1.47-1.47,2.23h-1.77c0-.91.14-3.78,3.3-3.78a3.24,3.24,0,0,1,3.46,3.25c0,1.63-1.17,2.56-2.49,3.48a5.11,5.11,0,0,0-2.16,2.2h4.73V39.2Z"/><path class="cls-11" d="M225.52,22.69h-3.44c-1.57,0-1.83-.38-2.13-.82l-.28.28c-.06.06-.41.36-.43.39s-.07.21-.1.21-.09-.07-.11-.1l-.5-.82a6.59,6.59,0,0,0,1-.57V19.54h-.77V18.8h1.67v2.33c0,.56.44.81,1.51.81.91,0,1.81,0,2.72-.06a6,6,0,0,1-1.43-.81l.36-.39h-1.17l.32.37s.05.08.05.1,0,.06-.2.06a5.1,5.1,0,0,1-1.23.64l-.45-.56a2.52,2.52,0,0,0,1.11-.61h-1.27v-.6h1.11v-.42h-1v-.6h1v-.37h-.39c-.43,0-.7,0-.7-.34V17.07H222V16.7h-1.26v-.62h2v1.59H221.5v.26c0,.17.05.24.2.24h.44c.18,0,.3-.23.34-.41L223,18a1.39,1.39,0,0,1-.14.44.37.37,0,0,1-.4.21l.26,0c.1,0,.15,0,.15.07s-.1.09-.16.12v.18h.78v-.41a.55.55,0,0,1-.18-.08.3.3,0,0,1-.12-.26v-1.2h1.28v-.37h-1.28v-.66h2.1V17.7H223.9V18c0,.16.07.22.23.22h.44c.26,0,.4-.35.43-.47l.59.3c-.1.61-.49.69-.92.69h-.35s.14,0,.14.08-.12.09-.18.1v.18h1.07v.6h-1.07v.42h1.27v.6h-1.63a4.07,4.07,0,0,0,1.28.61l-.37.58a9.9,9.9,0,0,0,1-.07Zm-5.82-5a3.45,3.45,0,0,0-1-1l.63-.65a3.7,3.7,0,0,1,1,1.05Zm3.76,1.94h-.78v.42h.78Z"/><path class="cls-11" d="M232.88,22.81a5.53,5.53,0,0,1-1.37-1.61,5.91,5.91,0,0,1-.74-2.11h-.27a8.7,8.7,0,0,1-1.05,3.72l-.9-.36a1.5,1.5,0,0,1-1.15.35l-.44-.92a2.71,2.71,0,0,0,.45,0c.27,0,.32-.05.32-.26V20.22c-.16.05-.38.13-.48.15s-.09,0-.13.1-.11.18-.18.18-.1,0-.13-.25l-.1-.86c.53-.12.65-.14,1-.25V18h-.95v-.87h.95V15.91l.87,0c.09,0,.29,0,.29.1s0,.08-.12.15-.13.12-.13.16v.75h.72V18h-.72v1.11l.71-.19v.78l-.71.22v2.37a8.42,8.42,0,0,0,1-4.71c0-.48,0-1.2,0-1.44h3.73v3h-1.68a5,5,0,0,0,2.13,3.09Zm-.47-5.92h-1.86V18.3h1.86Z"/><path class="cls-11" d="M235.91,16l.85,0c.17,0,.2,0,.2.08s0,0,0,0-.12.13-.12.16v.43h.65V17a6.91,6.91,0,0,0,.32-.72l.75.3c.06,0,.12.05.12.1a.06.06,0,0,1,0,.06c-.1,0-.12,0-.16.1-.19.38-.32.62-.54,1h.36v.7h-.86c-.17.21-.32.37-.53.59h.73l.37.34A11.16,11.16,0,0,1,237,20.51v0l1.21-.09,0,.63-1.24.13V22c0,.74-.36.79-1.14.8l-.36-.74.47,0a.18.18,0,0,0,.2-.19v-.61l-1,.09s-.14.14-.17.14-.08-.07-.11-.19l-.17-.7c.36,0,.78,0,1.42,0v-.46l.33,0a1.31,1.31,0,0,0,.22-.4h-.56a11,11,0,0,1-1,.67l-.62-.51a7.54,7.54,0,0,0,.76-.46v-.38h.5c.27-.23.38-.33.64-.59h-1.63v-.7h1.16v-.46H235V16.7h.95Zm.92,1.85H237c.1-.14.19-.26.31-.46h-.45Zm1,1.42A5.77,5.77,0,0,0,239.12,16l.87.11s.13,0,.13.11a.14.14,0,0,1,0,.06c-.11.08-.11.09-.13.15-.1.42-.18.67-.26.94h1.87v.78h-.42a5.74,5.74,0,0,1-.88,2.89,3.59,3.59,0,0,0,1.33,1.06l-.6.7a4,4,0,0,1-1.29-1.11,5.83,5.83,0,0,1-1.66,1.06l-.59-.67A3.93,3.93,0,0,0,239.28,21a6.46,6.46,0,0,1-.59-1.6s-.1.15-.15.21Zm1.61-1.07-.13.29a5.79,5.79,0,0,0,.54,1.86,4.85,4.85,0,0,0,.54-2.15Z"/><path class="cls-11" d="M242.74,22.63v-.78h2.94v-.64h-2.17v-.79h2.17v-.49c-.77.06-1.12.07-1.79.09-.18,0-.2,0-.27.07s-.11.09-.15.09-.14-.18-.15-.33l0-.64h1.31c.1-.19.12-.25.34-.76h-1V17.7h4.38v.75h-.85a19.34,19.34,0,0,1,1.66,1.33l-.74.55a7.78,7.78,0,0,0-.62-.58c-.43.05-.88.08-1.24.1l.12,0c.07,0,.11,0,.11.1s-.1.11-.14.12v.33h2.09v.79h-2.09v.64h2.94v.78Zm5.9-4.48v-.81h-5v.86h-.86V16.6h2.83v-.71l.84,0c.21,0,.37,0,.37.13s0,.07-.06.1-.11.08-.11.12v.34h2.83v1.55Zm-2.59.3-.47.76c.66,0,1,0,1.42-.08-.14-.09-.15-.11-.3-.2l.41-.48Z"/><path class="cls-11" d="M234.1,39.39a3.62,3.62,0,0,1-2.59-1,3.38,3.38,0,0,1-.9-2.46h1.87c.05,1.44.78,1.92,1.62,1.92a1.62,1.62,0,0,0,1.68-1.74c0-1.16-.73-1.6-1.82-1.6h-.78V33.25H234a1.48,1.48,0,0,0,1.59-1.48,1.34,1.34,0,0,0-1.46-1.42,1.54,1.54,0,0,0-1.59,1.75h-1.69a3.27,3.27,0,0,1,.52-1.83,3.35,3.35,0,0,1,2.88-1.47c1.58,0,3.18,1,3.18,2.67a2.21,2.21,0,0,1-1.22,2.11,2.82,2.82,0,0,1,1.51,2.51A3.33,3.33,0,0,1,234.1,39.39Z"/><path class="cls-11" d="M189.61,133.61v-6.1h-2.37v-1.14h.69a2,2,0,0,0,1.91-1.52h1.29v8.76Z"/><path class="cls-11" d="M193.85,131.09v-1.42h3v1.42Z"/><path class="cls-11" d="M200.54,133.77a2.76,2.76,0,0,1-3-2.54h1.57a1.32,1.32,0,0,0,1.37,1.18,1.44,1.44,0,0,0,1.41-1.62,1.53,1.53,0,0,0-1.51-1.67,1.12,1.12,0,0,0-1.13.78l-1.47-.13.62-4.92h4.85v1.3h-3.77l-.22,1.72-.13.63a1.94,1.94,0,0,1,1.63-.71,2.78,2.78,0,0,1,2.79,2.89A2.94,2.94,0,0,1,200.54,133.77Z"/><path class="cls-11" d="M228.42,133.61v-6.1h-2.37v-1.14h.7a2,2,0,0,0,1.9-1.52H230v8.76Z"/><path class="cls-11" d="M232.66,131.09v-1.42h3v1.42Z"/><path class="cls-11" d="M239.46,133.77c-2.41,0-3.07-2.34-3.07-4.13,0-.93.09-4.95,3.22-4.95a2.66,2.66,0,0,1,1.87.74,2.57,2.57,0,0,1,.78,1.63h-1.58a1.09,1.09,0,0,0-1.11-1c-1.28,0-1.47,1.53-1.62,2.71a2,2,0,0,1,1.79-.94,2.71,2.71,0,0,1,2.65,2.83A3,3,0,0,1,239.46,133.77Zm0-4.65a1.52,1.52,0,0,0-1.44,1.66,1.43,1.43,0,0,0,1.38,1.57,1.41,1.41,0,0,0,1.36-1.59C240.76,129.83,240.26,129.12,239.46,129.12Z"/><path class="cls-11" d="M287,133.61v-6.1h-2.37v-1.14h.69a2,2,0,0,0,1.91-1.52h1.3v8.76Z"/><path class="cls-11" d="M291.25,131.09v-1.42h3v1.42Z"/><path class="cls-11" d="M298.84,129.67a13.13,13.13,0,0,0-.9,3.94h-1.66a11.13,11.13,0,0,1,.82-3.6,8.68,8.68,0,0,1,2.51-3.79l-.54.06h-4.29v-1.43h6.4v1.43A8.9,8.9,0,0,0,298.84,129.67Z"/><path class="cls-11" d="M325.83,133.61v-6.1h-2.38v-1.14h.7a2,2,0,0,0,1.9-1.52h1.3v8.76Z"/><path class="cls-11" d="M330.06,131.09v-1.42h3v1.42Z"/><path class="cls-11" d="M336.79,133.77a2.72,2.72,0,0,1-3-2.69,2.53,2.53,0,0,1,1.39-2.25A1.85,1.85,0,0,1,334,127c0-1.21,1-2.34,2.79-2.34a2.49,2.49,0,0,1,2.79,2.34,1.84,1.84,0,0,1-1.14,1.8,2.52,2.52,0,0,1,1.4,2.25A2.73,2.73,0,0,1,336.79,133.77Zm0-4.19a1.37,1.37,0,0,0-1.42,1.45,1.43,1.43,0,1,0,1.42-1.45Zm0-3.53a1.15,1.15,0,0,0-1.21,1.19,1.21,1.21,0,0,0,2.41,0A1.14,1.14,0,0,0,336.79,126.05Z"/><path class="cls-11" d="M150.31,32.74V26.65h-2.37V25.51h.69A2,2,0,0,0,150.54,24h1.3v8.76Z"/><path class="cls-11" d="M154.55,30.22V28.81h3v1.41Z"/><path class="cls-11" d="M161.05,32.91a2.75,2.75,0,0,1-1.86-.73,2.55,2.55,0,0,1-.78-1.65H160a1.07,1.07,0,0,0,1.09,1c1.29,0,1.49-1.55,1.63-2.73a2.06,2.06,0,0,1-1.79.95A2.71,2.71,0,0,1,158.28,27a3,3,0,0,1,2.92-3.13c2.42,0,3.08,2.33,3.08,4.14C164.28,28.88,164.18,32.91,161.05,32.91Zm.22-7.65a1.39,1.39,0,0,0-1.36,1.58c0,.92.51,1.63,1.29,1.63a1.52,1.52,0,0,0,1.45-1.66A1.41,1.41,0,0,0,161.27,25.26Z"/></g></g></svg>