<svg xmlns="http://www.w3.org/2000/svg" xmlns:xlink="http://www.w3.org/1999/xlink" viewBox="0 0 1183.45 60.94"><defs><style>.cls-1{fill:url(#名称未設定グラデーション_6);}.cls-2{fill:url(#名称未設定グラデーション_4);}.cls-3{fill:#fff;stroke:#003b7e;stroke-miterlimit:10;stroke-width:7px;opacity:0.39;}.cls-4{fill:#003b7e;}</style><linearGradient id="名称未設定グラデーション_6" x1="7" y1="30.47" x2="104.05" y2="30.47" gradientUnits="userSpaceOnUse"><stop offset="0.57" stop-color="#fff"/><stop offset="1" stop-color="#fff" stop-opacity="0.3"/></linearGradient><linearGradient id="名称未設定グラデーション_4" y1="30.47" x2="104.05" y2="30.47" gradientUnits="userSpaceOnUse"><stop offset="0.57" stop-color="#003b7e"/><stop offset="1" stop-color="#003b7e" stop-opacity="0.3"/></linearGradient></defs><g id="レイヤー_2" data-name="レイヤー 2"><g id="レイヤー_3" data-name="レイヤー 3"><path class="cls-1" d="M104.05,17.84v3.49H52.19l-1-1.85a23.47,23.47,0,1,0,0,22l1-1.86h51.86v3.5h0V17.84Z"/><path class="cls-2" d="M30.47,60.94A30.47,30.47,0,1,1,56.31,14.33h47.74v7H52.19l-1-1.85a23.47,23.47,0,1,0,0,22l1-1.86h51.86v7H56.31A30.42,30.42,0,0,1,30.47,60.94Z"/><path class="cls-3" d="M104.05,43.1H1167.32A12.64,12.64,0,0,0,1180,30.47h0a12.63,12.63,0,0,0-12.63-12.63H104.05"/><circle class="cls-4" cx="29.66" cy="30.47" r="12.63"/></g></g></svg>